<svg id="Layer_1" data-name="Layer 1" xmlns="http://www.w3.org/2000/svg" width="123" height="78.54" viewBox="0 0 123 78.54"><defs><style>.cls-1{fill:#fff;}</style></defs><title>cause-civic-hall</title><polygon class="cls-1" points="35.06 78.54 35.06 63.94 15.11 63.94 15.11 78.54 12.79 78.54 12.79 47.37 15.11 47.37 15.11 61.8 35.06 61.8 35.06 47.37 37.37 47.37 37.37 78.54 35.06 78.54"/><path class="cls-1" d="M60.66,49.69l-8.24,18H68.86l-8.19-18h0ZM73.8,78.54l-4-8.73H51.45l-4,8.73h-2.4l14.52-31.4h2.23l14.52,31.4H73.8Z"/><polygon class="cls-1" points="84.04 78.54 84.04 47.37 86.36 47.37 86.36 76.41 95.6 76.41 95.6 78.54 84.04 78.54"/><polygon class="cls-1" points="108.18 78.54 108.18 47.37 110.5 47.37 110.5 76.41 119.73 76.41 119.73 78.54 108.18 78.54"/><path class="cls-1" d="M0,16.21V16.12C0,7.3,6.59,0,15.59,0c5.57,0,8.91,2,12.11,5L26.05,6.68c-2.72-2.63-5.83-4.59-10.51-4.59C8.06,2.09,2.4,8.19,2.4,16v0.09c0,7.88,5.74,14,13.18,14,4.5,0,7.57-1.74,10.73-4.85l1.56,1.51c-3.3,3.25-6.86,5.43-12.38,5.43C6.59,32.24,0,25.16,0,16.21Z"/><path class="cls-1" d="M35.67,0.53H38V31.71H35.67V0.53Z"/><path class="cls-1" d="M46,0.53h2.58l12.2,28.68L73,0.53h2.45L61.77,31.93h-2Z"/><path class="cls-1" d="M83.5,0.53h2.32V31.71H83.5V0.53Z"/><path class="cls-1" d="M95.12,16.21V16.12C95.12,7.3,101.71,0,110.71,0c5.57,0,8.91,2,12.11,5l-1.65,1.69c-2.72-2.63-5.83-4.59-10.51-4.59-7.48,0-13.14,6.1-13.14,13.94v0.09c0,7.88,5.75,14,13.18,14,4.5,0,7.57-1.74,10.73-4.85L123,26.81c-3.29,3.25-6.86,5.43-12.38,5.43C101.71,32.24,95.12,25.16,95.12,16.21Z"/><path class="cls-1" d="M122.43,40.34H71.19V39.87h51.24v0.47Zm-71,0H0.19V39.87H51.43v0.47h0Z"/><path class="cls-1" d="M63.37,41.67H62l-0.33,1.9H61.16l0.33-1.9h-2.1l-0.33,1.9H58.57l0.33-1.9H57.66V41.19H59l0.41-2.4H58.07V38.31h1.39l0.33-1.86h0.49L60,38.31h2.1l0.31-1.86h0.49l-0.33,1.86h1.23v0.48H62.46l-0.41,2.4h1.31v0.48h0Zm-3.9-.48h2.1L62,38.79h-2.1Z"/></svg>