<?xml version="1.0" encoding="utf-8"?>
<!-- Generator: Adobe Illustrator 19.2.1, SVG Export Plug-In . SVG Version: 6.00 Build 0)  -->
<svg version="1.1" id="Layer_1" xmlns="http://www.w3.org/2000/svg" xmlns:xlink="http://www.w3.org/1999/xlink" x="0px" y="0px"
	 viewBox="0 0 579.7 133.5" style="enable-background:new 0 0 579.7 133.5;" xml:space="preserve">
<style type="text/css">
	.st0{fill:#FFFFFF;}
</style>
<g>
	<polygon class="st0" points="117.5,0.6 0,118.1 0,133.5 15.5,133.5 117.5,31.5 117.5,133.5 139.4,133.5 139.4,0.4 117.5,0.4 	"/>
	<rect x="514.1" y="0.4" class="st0" width="21.9" height="133.1"/>
	<rect x="557.8" y="0.4" class="st0" width="21.9" height="133.1"/>
	<rect x="316.2" y="0.4" class="st0" width="21.9" height="133.1"/>
	<polygon class="st0" points="183.1,0.4 161.2,0.4 161.2,133.5 161.5,133.5 183.1,133.5 192.4,133.5 294.4,31.5 294.4,0.6 
		183.1,111.8 	"/>
	<path class="st0" d="M426.5,22c20.9,0,38.6,14.5,43.3,34h22.4c-5.1-31.7-32.6-56-65.7-56C389.8,0,360,29.9,360,66.5
		c0,36.7,29.9,66.6,66.6,66.6c32.8,0,60.1-23.9,65.6-55.2h-22.4c-5,19.1-22.5,33.2-43.1,33.2c-24.6,0-44.6-20-44.6-44.6
		C381.9,42,401.9,22,426.5,22z"/>
</g>
</svg>
