<?xml version="1.0" encoding="utf-8"?>
<!-- Generator: Adobe Illustrator 19.2.1, SVG Export Plug-In . SVG Version: 6.00 Build 0)  -->
<svg version="1.1" id="Layer_1" xmlns="http://www.w3.org/2000/svg" xmlns:xlink="http://www.w3.org/1999/xlink" x="0px" y="0px"
	 viewBox="0 0 310.5 187" style="enable-background:new 0 0 310.5 187;" xml:space="preserve">
<style type="text/css">
	.st0{fill:#FFFFFF;}
</style>
<path class="st0" d="M159.8,124.6c-0.2-1.4-1.4-3.9-5.2-3.9c-2.6,0-4.2,1.6-4.2,3.3c0,1.5,0.9,2.6,3.1,3l4.2,0.8
	c5.9,1.1,9,4.9,9,9.3c0,4.9-4.1,9.8-11.5,9.8c-8.6,0-12.3-5.6-12.7-9.9l6.4-1.5c0.3,2.8,2.2,5.3,6.4,5.3c2.7,0,4.4-1.3,4.4-3.2
	c0-1.6-1.3-2.7-3.3-3.1l-4.2-0.8c-5.3-1-8.5-4.5-8.5-9.1c0-5.9,5.2-10,11.1-10c7.8,0,10.7,4.6,11.4,8.3L159.8,124.6z M174.5,135.4
	c0,3.5,2.3,5.4,5.1,5.4c2.6,0,4-1.6,4.5-3.2l5.9,1.8c-1,3.8-4.6,7.6-10.4,7.6c-6.5,0-11.7-4.8-11.7-11.5c0-6.8,5.1-11.6,11.5-11.6
	c6,0,9.5,3.7,10.5,7.6l-6,1.8c-0.5-1.7-1.8-3.2-4.4-3.2C176.7,130,174.5,131.9,174.5,135.4z M198.2,146.3h-6.7v-31.7h6.7v11.4
	c1.4-1.4,3.6-2,5.6-2c5.7,0,8.2,3.9,8.2,8.7v13.7h-6.7v-12.5c0-2.1-1.1-3.8-3.5-3.8c-2.1,0-3.5,1.5-3.6,3.5V146.3z M236.8,135.3
	c0,6.7-5,11.6-11.6,11.6c-6.5,0-11.6-4.8-11.6-11.6c0-6.7,5.1-11.5,11.6-11.5C231.8,123.8,236.8,128.6,236.8,135.3z M230.1,135.3
	c0-3.7-2.4-5.4-4.9-5.4c-2.5,0-4.9,1.7-4.9,5.4c0,3.6,2.4,5.4,4.9,5.4C227.8,140.8,230.1,139,230.1,135.3z M261.2,135.3
	c0,6.7-5,11.6-11.6,11.6c-6.5,0-11.6-4.8-11.6-11.6c0-6.7,5.1-11.5,11.6-11.5C256.1,123.8,261.2,128.6,261.2,135.3z M254.5,135.3
	c0-3.7-2.4-5.4-4.9-5.4c-2.5,0-4.9,1.7-4.9,5.4c0,3.6,2.4,5.4,4.9,5.4C252.1,140.8,254.5,139,254.5,135.3z M263,146.3v-31.7h6.7
	v31.7H263z M277,139.1c0.1,1.5,1.1,2.9,3.4,2.9c1.7,0,2.5-0.9,2.5-1.9c0-0.8-0.5-1.4-2.1-1.8l-2.5-0.6c-4.6-1-6.5-3.6-6.5-6.7
	c0-4,3.5-7.2,8.4-7.2c6.3,0,8.5,3.9,8.7,6.5l-5.5,1c-0.2-1.4-1.1-2.7-3.1-2.7c-1.3,0-2.4,0.7-2.4,1.9c0,0.9,0.7,1.4,1.7,1.6l2.9,0.6
	c4.5,0.9,6.7,3.6,6.7,6.8c0,3.7-2.8,7.4-8.7,7.4c-6.8,0-9-4.4-9.2-6.8L277,139.1z M144.6,108.3V77.2h19.7v6.5h-12.8v5.9h11.6v6.1
	h-11.6v6h12.8v6.6H144.6z M172.5,97.4l-7.6-10.9h7.8l3.9,6l3.8-6h7.5l-7.5,10.6c2.5,3.5,5.3,7.6,7.8,11.1h-7.8l-4-6.1
	c-1.2,1.8-2.8,4.3-4,6.1H165L172.5,97.4z M193.1,97.4c0,3.5,2.3,5.4,5.1,5.4c2.6,0,4-1.6,4.5-3.2l5.9,1.8c-1,3.8-4.6,7.6-10.4,7.6
	c-6.5,0-11.7-4.8-11.7-11.5c0-6.8,5.1-11.6,11.5-11.6c6,0,9.5,3.7,10.5,7.6l-6,1.8c-0.5-1.7-1.8-3.2-4.4-3.2
	C195.3,92,193.1,93.9,193.1,97.4z M230.7,102c-1.1,3.8-4.5,6.9-10,6.9c-6,0-11.4-4.3-11.4-11.6c0-7,5.2-11.5,10.9-11.5
	c6.7,0,10.9,4.2,10.9,11.2c0,0.9-0.1,1.9-0.1,2.1h-15.2c0.1,2.5,2.4,4.2,4.9,4.2c2.4,0,3.8-1.1,4.4-2.8L230.7,102z M224.7,94.8
	c-0.1-1.7-1.2-3.7-4.4-3.7c-2.8,0-4.2,2.1-4.3,3.7H224.7z M233,108.3V76.6h6.7v31.7H233z M242.7,108.3V76.6h6.7v31.7H242.7z
	 M272.4,102c-1.1,3.8-4.5,6.9-10,6.9c-6,0-11.4-4.3-11.4-11.6c0-7,5.2-11.5,10.9-11.5c6.7,0,10.9,4.2,10.9,11.2
	c0,0.9-0.1,1.9-0.1,2.1h-15.2c0.1,2.5,2.4,4.2,4.9,4.2c2.4,0,3.8-1.1,4.4-2.8L272.4,102z M266.3,94.8c-0.1-1.7-1.2-3.7-4.4-3.7
	c-2.8,0-4.2,2.1-4.3,3.7H266.3z M281.3,108.3h-6.7V86.5h6.4V89c1.2-2.1,3.9-3.1,6.1-3.1c5.5,0,7.9,3.9,7.9,8.7v13.7h-6.7V95.8
	c0-2.1-1.1-3.8-3.5-3.8c-2.2,0-3.6,1.6-3.6,3.8V108.3z M306.3,86.5h4.3v5.8h-4.3v8.2c0,1.8,1,2.3,2.4,2.3c0.7,0,1.4-0.1,1.8-0.2v5.5
	c-0.3,0.1-1.4,0.6-3.5,0.6c-4.5,0-7.3-2.7-7.3-7v-9.3h-3.9v-5.8h1.1c2.3,0,3.4-1.5,3.4-3.5v-2.8h6V86.5z M151.8,54.1v16.2h-6.7V54.1
	h-3.5v-5.6h3.5v-1.9c0-5,3-8.4,8.3-8.4c1.4,0,2.5,0.2,3.2,0.5v5.4c-0.3-0.1-0.9-0.2-2-0.2c-1.2,0-2.8,0.5-2.8,2.9v1.7h4.7v5.6H151.8
	z M179.6,59.4c0,6.7-5,11.6-11.6,11.6c-6.5,0-11.6-4.8-11.6-11.6c0-6.7,5.1-11.5,11.6-11.5C174.5,47.9,179.6,52.7,179.6,59.4z
	 M172.9,59.4c0-3.7-2.4-5.4-4.9-5.4c-2.5,0-4.9,1.7-4.9,5.4c0,3.6,2.4,5.4,4.9,5.4C170.6,64.8,172.9,63.1,172.9,59.4z M195,55.1
	c-0.7-0.2-1.4-0.2-2.1-0.2c-2.7,0-5.1,1.6-5.1,5.9v9.5h-6.7V48.5h6.4v2.9c1.1-2.5,3.9-3.2,5.7-3.2c0.7,0,1.3,0.1,1.8,0.2V55.1z
	 M144.6,32.3V1.3h20v6.6h-13.1v6.6h11.5v6.3h-11.5v11.6H144.6z M181.3,29.5c-1,2.1-3.2,3.4-5.9,3.4c-6.4,0-10.8-4.9-10.8-11.6
	c0-6.5,4.2-11.5,10.6-11.5c3.9,0,5.6,2.1,6,3.2v-2.5h6.4v17.9c0,2,0.1,3.4,0.2,3.9h-6.4c-0.1-0.5-0.2-1.7-0.2-2.6V29.5z M176.3,27.2
	c2.7,0,4.9-2.1,4.9-5.8c0-3.8-2.2-5.7-4.9-5.7c-2.9,0-5,2-5,5.7C171.3,25,173.6,27.2,176.3,27.2z M190.1,32.3V10.6h6.4v2.5
	c1.1-1.9,3.9-3.2,6.3-3.2c3.1,0,5.3,1.3,6.4,3.4c1.7-2.5,3.8-3.4,6.7-3.4c4.1,0,8.1,2.4,8.1,8.3v14.1h-6.4V19.7
	c0-2.1-1.1-3.7-3.5-3.7c-2.4,0-3.6,1.8-3.6,3.7v12.6h-6.6V19.7c0-2.1-1.1-3.7-3.5-3.7c-2.3,0-3.6,1.8-3.6,3.8v12.5H190.1z M229.5,0
	c2.2,0,3.9,1.8,3.9,3.9s-1.8,3.9-3.9,3.9c-2.1,0-3.9-1.8-3.9-3.9S227.4,0,229.5,0z M226.2,32.3V10.6h6.7v21.8H226.2z M235.5,32.3
	V0.6h6.7v31.7H235.5z M248,0c2.2,0,3.9,1.8,3.9,3.9s-1.7,3.9-3.9,3.9c-2.1,0-3.9-1.8-3.9-3.9S245.9,0,248,0z M244.7,32.3V10.6h6.7
	v21.8H244.7z M274.2,26.1c-1.1,3.8-4.5,6.9-10,6.9c-6,0-11.4-4.3-11.4-11.6c0-7,5.2-11.5,10.9-11.5c6.7,0,10.9,4.2,10.9,11.2
	c0,0.9-0.1,1.9-0.1,2.1h-15.2c0.1,2.5,2.4,4.2,5,4.2c2.4,0,3.8-1.1,4.4-2.8L274.2,26.1z M268.2,18.8c-0.1-1.7-1.2-3.7-4.4-3.7
	c-2.8,0-4.2,2.1-4.3,3.7H268.2z M281.3,25.2c0.1,1.5,1.1,2.9,3.4,2.9c1.7,0,2.5-0.9,2.5-1.9c0-0.8-0.5-1.4-2.2-1.8l-2.5-0.6
	c-4.6-1-6.5-3.6-6.5-6.7c0-4,3.5-7.2,8.4-7.2c6.3,0,8.5,3.9,8.7,6.5l-5.5,1c-0.2-1.4-1.1-2.7-3.1-2.7c-1.3,0-2.4,0.7-2.4,1.9
	c0,0.9,0.7,1.4,1.7,1.6l2.9,0.6c4.5,0.9,6.7,3.6,6.7,6.8c0,3.7-2.9,7.4-8.7,7.4c-6.8,0-9-4.4-9.2-6.8L281.3,25.2z M75.4,185.9
	l47.6-40.8c1-0.9,1.6-2.1,1.6-3.4v-40.8c0-1.8-1-3.4-2.6-4.1c-1.6-0.7-3.5-0.5-4.8,0.7L77,131.9V103l46-39.4
	c1.9-1.6,2.1-4.5,0.5-6.4c-1.6-1.9-4.5-2.1-6.4-0.5L69.5,97.5c-1,0.9-1.6,2.1-1.6,3.4v40.8c0,1.8,1,3.4,2.6,4.1
	c1.6,0.7,3.5,0.5,4.8-0.7l40.1-34.4v28.8l-46,39.4c-1.9,1.6-2.1,4.5-0.5,6.4c0.9,1,2.2,1.6,3.4,1.6C73.5,187,74.6,186.6,75.4,185.9z
	 M124.6,46.6c0-2.5-2-4.5-4.5-4.5c-8.7,0-15.9-7.1-15.9-15.9c0-8.7,7.1-15.9,15.9-15.9c2.5,0,4.5-2,4.5-4.5s-2-4.5-4.5-4.5
	c-13.7,0-24.9,11.2-24.9,24.9c0,13.7,11.2,24.9,24.9,24.9C122.6,51.1,124.6,49.1,124.6,46.6z M55.5,185.4c1.6-1.9,1.4-4.8-0.5-6.4
	l-32.9-28.2c-1.9-1.6-4.8-1.4-6.4,0.5c-1.6,1.9-1.4,4.8,0.5,6.4l32.9,28.2c0.9,0.7,1.9,1.1,2.9,1.1C53.4,187,54.6,186.5,55.5,185.4z
	 M55.1,138.3l-46-39.4V70l40.1,34.4c1.9,1.6,4.8,1.4,6.4-0.5c1.6-1.9,1.4-4.8-0.5-6.4L7.5,56.7c-1.3-1.2-3.2-1.4-4.8-0.7
	C1,56.8,0,58.4,0,60.2v81.5c0,2.5,2,4.5,4.5,4.5c2.5,0,4.5-2,4.5-4.5v-30.9l40.1,34.4c0.9,0.7,1.9,1.1,2.9,1.1
	c1.3,0,2.5-0.5,3.4-1.6C57.2,142.8,56.9,139.9,55.1,138.3z M29.4,26.2c0-13.7-11.2-24.9-24.9-24.9C2,1.3,0,3.3,0,5.8s2,4.5,4.5,4.5
	c8.7,0,15.9,7.1,15.9,15.9c0,8.7-7.1,15.9-15.9,15.9C2,42,0,44.1,0,46.6c0,2.5,2,4.5,4.5,4.5C18.3,51.1,29.4,39.9,29.4,26.2z"/>
</svg>
