<?xml version="1.0" encoding="utf-8"?>
<!-- Generator: Adobe Illustrator 19.2.1, SVG Export Plug-In . SVG Version: 6.00 Build 0)  -->
<svg version="1.1" id="Layer_1" xmlns="http://www.w3.org/2000/svg" xmlns:xlink="http://www.w3.org/1999/xlink" x="0px" y="0px"
	 viewBox="0 0 1537.8 203.9" style="enable-background:new 0 0 1537.8 203.9;" xml:space="preserve">
<style type="text/css">
	.st0{fill:#FFFFFF;}
</style>
<g>
	<path class="st0" d="M82,201.5c-1.4,0-1.4-6,0-6h15.2c1.9,0,1.9-0.8,1.9-1.1V93.6c0-0.5,0-1.1-1.9-1.1H55.7c-1.9,0-1.9,0.5-1.9,1.1
		v100.9c0,0.3,0,1.1,1.9,1.1h15.2c1.4,0,1.4,6,0,6H4.2c-0.5,0-0.5-6,0-6h16c0.8,0,1.4-0.8,1.4-1.1V93.6c0-0.5-0.5-1.1-1.4-1.1H0.4
		c-0.5,0-0.5-6.2,0-6.2h19.8c0.8,0,1.4-0.5,1.4-1.1v-5.4C21.6,20.1,51.4,0,90.7,0c32.5,0,44.5,21.2,44.5,36.1
		c0,8.9-6.8,17.6-17.4,17.6c-11.7,0-17.1-5.7-17.1-13.3c0-8.7,4.6-6.8,4.6-16.3C105.3,10.8,101,7,84.7,7c-14.4,0-30.9,8.4-30.9,32
		v46.1c0,0.5,0,1.1,1.9,1.1h74.8c0.5,0,0.8,0.3,0.8,0.8v107.4c0,0.3,0.5,1.1,1.6,1.1h15.5c1.1,0,1.1,6,0,6H82z"/>
	<path class="st0" d="M162.8,201.5c-0.8,0-0.8-6.5,0-6.5h16c1.4,0,1.9-0.3,1.9-1.1V9.8c0-0.8-0.5-1.1-1.9-1.1h-16
		c-0.8,0-0.8-6.5,0-6.5h48.8c0.5,0,1.1,0.5,1.1,0.8v190.9c0,0.8,0.5,1.1,1.4,1.1h15.7c1.1,0,1.1,6.5,0,6.5H162.8z"/>
	<path class="st0" d="M400.4,201.5V195h16.3c0.8,0,1.9-0.3,1.9-1.1v-76.2c0-19-6-27.7-15.5-27.7c-23.9,0-32.8,18.4-32.8,33.6v70.2
		c0,0.8,0.5,1.1,1.9,1.1h16c0.5,0,0.5,6.5,0,6.5H321c-0.5,0-0.5-6.5,0-6.5h15.5c1.1,0,1.6-0.3,1.6-1.1v-76.2
		c0-19-4.9-27.7-14.9-27.7c-16.5,0-26,7.6-32.5,27.9v75.9c0,0.8,0.5,1.1,1.6,1.1H308c0.8,0,0.8,6.5,0,6.5h-67.2
		c-0.8,0-0.8-6.5,0-6.5h15.7c1.6,0,2.2-0.3,2.2-1.1V93.6c0-0.8-0.5-1.1-2.2-1.1h-15.7c-0.8,0-0.8-6.5,0-6.5h49.1
		c0.5,0,0.8,0.3,0.8,0.8v17.9c5.2-15.2,19.5-21.2,32.5-21.2c25.5,0,39.9,8.7,45.6,21.4c7.3-16,21.4-21.4,34.4-21.4
		c29.3,0,46.9,10.8,46.9,39.6v70.8c0,0.8,1.1,1.1,2.2,1.1h16c0.5,0,0.5,6.5,0,6.5H400.4z"/>
	<path class="st0" d="M533.5,203.9c-32.5,0-59.7-27.1-59.7-60.2s27.1-60.2,59.7-60.2c26.6,0,46.4,19.5,46.4,33.9
		c0,8.7-5.7,12.5-13,12.5c-8.1,0-12.7-4.6-12.7-10.3c0-7.6,3.5-6.2,3.5-15.2c0-10.8-9.5-14.4-24.1-14.4c-6.8,0-11.7,1.1-16.3,5.7
		c-7.1,7.1-9.5,18.4-9.5,48s2.4,40.9,9.5,48c4.6,4.6,9.5,5.7,16.3,5.7c20.6,0,39-9.5,48-22.8c0.3-0.3,3.3,3,2.7,3.5
		C573.3,193.6,553.8,203.9,533.5,203.9z"/>
	<path class="st0" d="M648.4,203.9c-32.5,0-59.7-27.1-59.7-60.2s27.1-60.2,59.7-60.2c33.4,0,60.5,27.1,60.5,60.2
		S681.8,203.9,648.4,203.9z M665.5,95.7c-4.3-4.6-10-5.7-17.1-5.7c-6.2,0-11.9,1.1-16.5,5.7c-6.8,7.1-9.5,22.2-9.5,48
		c0,29.6,2.7,40.9,9.5,48c4.6,4.6,10.3,5.7,16.5,5.7c7.1,0,12.7-1.1,17.1-5.7c7-7.1,9.8-18.4,9.8-48
		C675.3,118,672.6,102.8,665.5,95.7z"/>
	<path class="st0" d="M873.5,201.5V195h16.3c0.8,0,1.9-0.3,1.9-1.1v-76.2c0-19-6-27.7-15.5-27.7c-23.9,0-32.8,18.4-32.8,33.6v70.2
		c0,0.8,0.5,1.1,1.9,1.1h16c0.5,0,0.5,6.5,0,6.5h-67.2c-0.5,0-0.5-6.5,0-6.5h15.5c1.1,0,1.6-0.3,1.6-1.1v-76.2
		c0-19-4.9-27.7-14.9-27.7c-16.5,0-26,7.6-32.5,27.9v75.9c0,0.8,0.5,1.1,1.6,1.1H781c0.8,0,0.8,6.5,0,6.5h-67.2
		c-0.8,0-0.8-6.5,0-6.5h15.7c1.6,0,2.2-0.3,2.2-1.1V93.6c0-0.8-0.5-1.1-2.2-1.1h-15.7c-0.8,0-0.8-6.5,0-6.5h49.1
		c0.5,0,0.8,0.3,0.8,0.8v17.9c5.2-15.2,19.5-21.2,32.5-21.2c25.5,0,39.9,8.7,45.6,21.4c7.3-16,21.4-21.4,34.4-21.4
		c29.3,0,46.9,10.8,46.9,39.6v70.8c0,0.8,1.1,1.1,2.2,1.1h16c0.5,0,0.5,6.5,0,6.5H873.5z"/>
	<path class="st0" d="M1113.7,201.5V195h16.3c0.8,0,1.9-0.3,1.9-1.1v-76.2c0-19-6-27.7-15.5-27.7c-23.9,0-32.8,18.4-32.8,33.6v70.2
		c0,0.8,0.5,1.1,1.9,1.1h16c0.5,0,0.5,6.5,0,6.5h-67.2c-0.5,0-0.5-6.5,0-6.5h15.5c1.1,0,1.6-0.3,1.6-1.1v-76.2
		c0-19-4.9-27.7-14.9-27.7c-16.5,0-26,7.6-32.5,27.9v75.9c0,0.8,0.5,1.1,1.6,1.1h15.7c0.8,0,0.8,6.5,0,6.5H954c-0.8,0-0.8-6.5,0-6.5
		h15.7c1.6,0,2.2-0.3,2.2-1.1V93.6c0-0.8-0.5-1.1-2.2-1.1H954c-0.8,0-0.8-6.5,0-6.5h49.1c0.5,0,0.8,0.3,0.8,0.8v17.9
		c5.2-15.2,19.5-21.2,32.5-21.2c25.5,0,39.9,8.7,45.6,21.4c7.3-16,21.4-21.4,34.4-21.4c29.3,0,46.9,10.8,46.9,39.6v70.8
		c0,0.8,1.1,1.1,2.2,1.1h16c0.5,0,0.5,6.5,0,6.5H1113.7z"/>
	<path class="st0" d="M1301.9,137.7h-80.3c0,1.6,0,3.8,0,6c0,29.6,3,40.9,10.6,48c4.3,4.6,9.5,5.7,17.1,5.7
		c20.3,0,36.9-9.5,46.6-22.8c0.3-0.3,4.1,3,3.8,3.5c-10.6,15.5-30.4,25.8-50.4,25.8c-33.1,0-61.6-27.1-61.6-60.2
		s28.5-60.2,61.6-60.2c35.8,0,53.4,35,53.4,53.4C1302.7,137.5,1302.5,137.7,1301.9,137.7z M1264.2,95.7c-3.8-4.6-8.7-5.7-14.9-5.7
		c-7.6,0-12.7,1.1-17.1,5.7c-6.8,6.2-10.3,13.8-10.6,35.5h51.8C1273.2,109.5,1269.9,102,1264.2,95.7z"/>
	<path class="st0" d="M1394.1,201.5c-0.8,0-0.8-6.5,0-6.5h15.7c1.1,0,1.4-0.3,1.4-1.1v-76.2c0-19-5.2-27.7-15.2-27.7
		c-16.5,0-26,7.6-32.5,27.9v75.9c0,0.8,0.5,1.1,1.6,1.1h16c0.5,0,0.5,6.5,0,6.5h-67.5c-0.5,0-0.5-6.5,0-6.5h15.7
		c1.6,0,2.2-0.3,2.2-1.1V93.6c0-0.8-0.5-1.1-2.2-1.1h-15.7c-0.5,0-0.5-6.5,0-6.5h49.1c0.5,0,0.8,0.3,0.8,0.8v17.9
		c5.2-15.2,19.5-21.2,32.5-21.2c29.6,0,47.5,16.5,47.5,45.3v65.1c0,0.8,0.5,1.1,1.9,1.1h15.7c0.8,0,0.8,6.5,0,6.5H1394.1z"/>
	<path class="st0" d="M1505.3,203.9c-20.1,0-27.9-8.9-27.9-26.6V93.6c0-0.8-1.1-1.1-1.9-1.1h-20.1c-0.5,0-0.5-6.5,0-6.5h20.1
		c0.8,0,1.9-0.3,1.9-1.1V62.1c12.5-1.1,23.3-16,25.2-23.9c0.8-0.5,6,0,6,0v46.6c0,0.8,1.4,1.1,2.7,1.1h23.6c0.5,0,0.5,6.5,0,6.5
		h-23.6c-1.4,0-2.7,0.3-2.7,1.1v93c0,5.2,3.8,7.9,9.2,7.9c7.6,0,12.7-7.3,16.3-17.4c-0.5,0,4.1,2.4,3.8,3
		C1533.7,194.4,1522.6,203.9,1505.3,203.9z"/>
</g>
</svg>
