<?xml version="1.0" encoding="utf-8"?>
<!-- Generator: Adobe Illustrator 16.0.0, SVG Export Plug-In . SVG Version: 6.00 Build 0)  -->
<!DOCTYPE svg PUBLIC "-//W3C//DTD SVG 1.1//EN" "http://www.w3.org/Graphics/SVG/1.1/DTD/svg11.dtd">
<svg version="1.1" id="Isolation_Mode" xmlns="http://www.w3.org/2000/svg" xmlns:xlink="http://www.w3.org/1999/xlink" x="0px"
	 y="0px" width="198px" height="198px" viewBox="0 0 198 198" enable-background="new 0 0 198 198" xml:space="preserve">
<g>
	<path fill="#FFFFFF" d="M55.298,153.894c-1.236,0-1.854,0.675-1.854,1.909v4.382h3.708v-4.382
		C57.151,154.568,56.534,153.894,55.298,153.894z"/>
	<path fill="#FFFFFF" d="M55.298,92.441c1.404,0,1.854-1.067,1.854-2.247v-16.74c0-1.179-0.449-2.247-1.854-2.247
		s-1.854,1.067-1.854,2.247v16.74C53.444,91.374,53.894,92.441,55.298,92.441z"/>
	<path fill="#FFFFFF" d="M105.46,134.856c1.404,0,1.853-1.067,1.853-2.247V115.87c0-1.18-0.448-2.247-1.853-2.247
		c-1.405,0-1.854,1.067-1.854,2.247v16.739C103.606,133.789,104.055,134.856,105.46,134.856z"/>
	<path fill="#FFFFFF" d="M119.84,73.118c0-1.236-0.618-1.91-1.854-1.91c-1.236,0-1.854,0.674-1.854,1.91V77.5h3.708V73.118z"/>
	<path fill="#FFFFFF" d="M123.154,153.894c-1.236,0-1.854,0.675-1.854,1.909v4.382h3.708v-4.382
		C125.008,154.568,124.39,153.894,123.154,153.894z"/>
	<path fill="#FFFFFF" d="M0,0v198h198V0H0z M143.151,115.083c-1.686,0-1.91,1.517-1.91,2.921v22.301h-8.875v-32.131h8.875v3.988
		h0.112c0.843-2.81,2.978-4.381,6.461-4.381c3.987,0,6.01,2.752,6.01,7.357v25.166h-8.875v-22.301
		C144.949,116.6,144.836,115.083,143.151,115.083z M131.524,65.759h2.977v-5.786h8.875v5.786h3.876v5.842h-3.876v17.526
		c0,1.91,0.056,2.921,2.135,2.921h1.741v5.842h-7.246c-4.438,0-5.505-2.472-5.505-6.685V71.601h-2.977V65.759z M107.257,74.41
		c0-5.786,3.82-9.044,10.729-9.044c5.674,0,10.729,2.135,10.729,9.044v8.426h-12.583v6.516c0,1.91,0.675,3.09,1.854,3.09
		c1.404,0,1.854-1.18,1.854-3.09v-4.157h8.875v4.719c0,6.067-4.494,8.37-10.729,8.37c-5.674,0-10.729-2.584-10.729-8.538V74.41z
		 M128.715,100.31v39.995h-8.875V100.31H128.715z M94.731,57.895h8.875v5.674h-8.875V57.895z M94.731,65.759h8.875V97.89h-8.875
		V65.759z M94.73,116.825c0-5.786,3.82-9.044,10.729-9.044c6.909,0,10.729,3.258,10.729,9.044v15.335
		c0,5.954-5.057,8.538-10.729,8.538c-5.674,0-10.729-2.584-10.729-8.538V116.825z M47.114,18.058h8.875v39.996h-8.875V18.058z
		 M44.569,74.41c0-5.786,3.82-9.044,10.729-9.044s10.729,3.258,10.729,9.044v15.335c0,5.954-5.056,8.538-10.729,8.538
		s-10.729-2.584-10.729-8.538V74.41z M17.961,25.922h1.966v-2.078c0-2.472,1.629-5.786,5.73-5.786h5.673V23.9
		c-2.191,0-2.528,0.73-2.528,2.022h2.528v5.842h-2.528v26.29h-8.875v-26.29h-1.966V25.922z M19.516,100.31h8.875v39.995h-8.875
		V100.31z M40.974,159.792h-8.875v-3.651c0-1.18-0.449-2.247-1.854-2.247c-1.404,0-1.854,1.067-1.854,2.247v16.739
		c0,1.18,0.449,2.247,1.854,2.247c1.405,0,1.854-1.067,1.854-2.247v-4.999h8.875v4.718c0,6.067-4.494,8.37-10.786,8.37
		c-6.628,0-10.673-2.752-10.673-8.931v-14.999c0-5.28,3.932-8.987,10.673-8.987c5.73,0,10.786,2.134,10.786,9.043V159.792z
		 M40.974,108.174v32.131h-8.875v-32.131H40.974z M32.098,105.983v-5.674h8.875v5.674H32.098z M40.974,77.106h-8.875v-3.483
		c0-1.348-0.449-2.415-1.854-2.415c-1.404,0-1.854,1.067-1.854,2.415c0,5.505,12.414,4.494,12.414,14.942
		c0,6.348-3.82,9.718-11.234,9.718c-5.674,0-10.055-2.19-10.055-7.977v-5.112h8.875v4.831c0,1.348,0.449,2.416,1.854,2.416
		c1.405,0,1.854-1.067,1.854-2.416c0-7.64-12.583-5.28-12.583-15.729c0-6.404,4.55-8.932,10.392-8.932
		c6.741,0,11.066,2.64,11.066,8.033V77.106z M43.407,58.053h-8.875V25.922h8.875V58.053z M43.407,23.731h-8.875v-5.673h8.875V23.731
		z M66.027,165.521H53.444v6.517c0,1.909,0.674,3.089,1.854,3.089c1.404,0,1.854-1.18,1.854-3.089v-4.157h8.875v4.718
		c0,6.067-4.494,8.37-10.729,8.37c-5.673,0-10.729-2.584-10.729-8.538v-15.336c0-5.785,3.82-9.043,10.729-9.043
		c5.673,0,10.729,2.134,10.729,9.043V165.521z M66.083,140.305h-8.875v-22.301c0-1.404-0.112-2.921-1.797-2.921
		c-1.685,0-1.91,1.517-1.91,2.921v22.301h-8.875v-32.131H53.5v3.988h0.112c0.843-2.81,2.977-4.381,6.46-4.381
		c3.988,0,6.01,2.752,6.01,7.357V140.305z M91.08,180.576h-8.875v-22.301c0-1.404-0.112-2.922-1.798-2.922
		c-1.685,0-1.91,1.518-1.91,2.922v22.301h-8.875v-32.131h8.875v3.987h0.112c0.843-2.809,2.977-4.381,6.46-4.381
		c3.988,0,6.01,2.752,6.01,7.358V180.576z M80.351,71.208c-1.404,0-1.854,1.067-1.854,2.247v16.74c0,1.18,0.449,2.247,1.854,2.247
		s1.854-1.067,1.854-2.247v-5h8.875v4.719c0,6.067-4.494,8.37-10.785,8.37c-6.628,0-10.673-2.752-10.673-8.932V74.354
		c0-5.28,3.932-8.988,10.673-8.988c5.73,0,10.785,2.135,10.785,9.044v2.696h-8.875v-3.651
		C82.205,72.275,81.755,71.208,80.351,71.208z M91.136,119.521H82.26v-3.65c0-1.18-0.449-2.247-1.854-2.247
		s-1.854,1.067-1.854,2.247v16.739c0,1.18,0.45,2.247,1.854,2.247s1.854-1.067,1.854-2.247v-4.999h8.875v4.718
		c0,6.066-4.494,8.37-10.785,8.37c-6.628,0-10.673-2.752-10.673-8.932v-14.999c0-5.279,3.932-8.986,10.673-8.986
		c5.729,0,10.785,2.134,10.785,9.044V119.521z M92.445,58.053h-8.539V35.752c0-1.404-0.112-2.921-1.797-2.921
		c-1.686,0-1.741,1.517-1.741,2.921v22.301H71.83V35.752c0-1.404-0.112-2.921-1.797-2.921c-1.686,0-1.742,1.517-1.742,2.921v22.301
		h-8.538V25.922h8.538v4.269h0.112c0.899-2.977,2.921-4.662,6.179-4.662c3.202,0,5.168,1.573,5.786,4.662h0.112
		c0.505-2.865,2.977-4.662,6.123-4.662c4.438,0,5.842,2.865,5.842,6.797V58.053z M109.617,154.287h-3.876v17.525
		c0,1.91,0.056,2.922,2.134,2.922h1.742v5.842h-7.247c-4.438,0-5.505-2.473-5.505-6.686v-19.604h-2.977v-5.842h2.977v-5.786h8.876
		v5.786h3.876V154.287z M133.883,165.521H121.3v6.517c0,1.909,0.674,3.089,1.854,3.089c1.403,0,1.854-1.18,1.854-3.089v-4.157h8.875
		v4.718c0,6.067-4.494,8.37-10.729,8.37c-5.674,0-10.729-2.584-10.729-8.538v-15.336c0-5.785,3.82-9.043,10.729-9.043
		c5.673,0,10.729,2.134,10.729,9.043V165.521z M158.936,165.802h-8.875v-7.808c0-1.292-0.394-2.641-1.854-2.641
		c-1.461,0-1.854,1.349-1.854,2.641v22.582h-8.875v-32.131h8.875v4.213h0.169c1.18-2.81,3.146-4.606,6.403-4.606
		c4.494,0,6.011,2.978,6.011,6.291V165.802z M164.834,99.632c-0.73,3.651-3.314,5.448-7.19,5.448h-7.134v-5.842h4.606
		c1.179,0,1.573-0.281,1.573-0.899c0-0.449-0.113-0.842-0.226-1.404l-6.965-31.176h8.987l2.977,22.188h0.113l2.977-22.188h7.472
		L164.834,99.632z"/>
</g>
</svg>
