<?xml version="1.0" encoding="utf-8"?>
<!-- Generator: Adobe Illustrator 19.2.1, SVG Export Plug-In . SVG Version: 6.00 Build 0)  -->
<svg version="1.1" id="Layer_1" xmlns="http://www.w3.org/2000/svg" xmlns:xlink="http://www.w3.org/1999/xlink" x="0px" y="0px"
	 viewBox="0 0 245.4 125.3" style="enable-background:new 0 0 245.4 125.3;" xml:space="preserve">
<style type="text/css">
	.st0{fill-rule:evenodd;clip-rule:evenodd;fill:#FFFFFF;}
</style>
<g>
	<path class="st0" d="M4.2,97.5H0v-1.1h23.4l0.3,8.6h-1.1c-0.7-2.7-1.2-5.7-4.1-6.9c-1-0.4-2.6-0.5-4.3-0.5H9.6v12.1
		c3.9,0,6.1-0.7,6.4-5.2h1.1v11.8H16c-0.4-4.8-1.9-5.7-6.4-5.6v12.8h4.1v1.1H0v-1.1h4.2V97.5L4.2,97.5z"/>
	<path class="st0" d="M24.2,113.6c0-5.2,4.5-10.3,9.8-10.3c5.2,0,9.8,5.2,9.8,10.3c0,5.7-3.5,11.5-9.8,11.5S24.2,119.3,24.2,113.6
		L24.2,113.6z M39.1,110.3c0-1.2-0.1-2.2-0.5-3.1c-0.5-1.9-1.9-3.3-4.6-3.3c-2.9,0-4.2,1.4-4.8,3.3c-0.3,1-0.4,1.9-0.4,3.1v6.8
		c0,1.2,0,2.4,0.3,3.5c0.7,2.2,1.9,3.7,4.9,3.7c3,0,4.2-1.5,4.8-3.7c0.3-1.1,0.4-2.3,0.4-3.5V110.3L39.1,110.3z"/>
	<path class="st0" d="M67.9,103.7v0.8h-3.1v13.2c0,3.1-0.7,4.6-1.9,5.8c-1.4,1.1-3.3,1.6-6.1,1.6c-2.2,0-4.2-0.7-5.6-1.8
		c-1.4-1-1.9-3-1.9-6.5v-12.4h-3.1v-0.8h10.2v0.8h-3.1v11.4c0,4.3-0.4,8.2,5.3,8.2c3.7,0,5.2-2.3,5.2-5.7v-13.9h-3v-0.8H67.9
		L67.9,103.7z"/>
	<path class="st0" d="M77.3,123.8h3.1v0.8H70.2v-0.8h3.1v-19.3h-3.1v-0.8h10.5c3.4,0,7.5,0.4,7.5,4.8c0,3.5-3.7,4.8-6.7,5.2l0,0
		c4.9,0.8,6,3.4,6,8.6c0,1.1,0.1,2.3,3.1,1.8v0.7c-0.8,0.3-1.8,0.4-2.6,0.4c-3.3,0-4.9-1.6-4.9-4.8c0-2.6-0.4-4.6-1.2-5.3
		c-1-0.7-1.9-1.1-2.9-1.1h-1.8V123.8L77.3,123.8z M77.3,113h2.6c2.9,0,3.9-1.4,3.9-4.2c0-3.4-1-4.3-3.8-4.3h-2.7V113L77.3,113z"/>
	<path class="st0" d="M103.8,124.9h-0.7v-8.4h1.2c0.8,4.1,3.3,7.7,7.7,7.7c3.3,0,6.2-2.4,6.2-5.8c0-3.9-3.5-4.8-6.7-5.8
		c-0.8-0.3-1.6-0.5-2.6-0.8c-3.8-1.2-5.8-4.1-5.8-8.2c0-4.3,3.3-7.6,7.7-7.6c2.4,0,4.2,0.5,6.1,2l1.6-1.6h0.7v7.9h-1.4
		c-0.4-3.9-3-7.3-7.2-7.3c-2.7,0-5.3,2-5.3,4.9c0,3.3,2.3,3.5,4.9,4.2c1.1,0.3,1.9,0.7,2.6,0.8c0.8,0.3,1.9,0.5,2.9,1
		c3.5,1.8,4.8,4.5,4.8,8.3c0,5.3-3.4,9.2-8.8,9.2c-2,0-4.6-0.8-6-2.2L103.8,124.9L103.8,124.9z"/>
	<path class="st0" d="M131.8,104.5v9c3,0,4.6-0.4,4.8-3.8h0.8v8.7h-0.8c-0.3-3.4-1.4-4.2-4.8-4.1v9.5h4.3c4.1,0,5-2.3,5.7-5.8h0.8
		l-0.3,6.7h-17.8v-0.8h3.1v-19.3h-3.1v-0.8H142l0.1,5.7h-0.8c-0.7-3-1.9-4.2-3.5-4.6c-0.8-0.3-1.6-0.3-2.7-0.3H131.8L131.8,104.5z"
		/>
	<path class="st0" d="M145,124.6v-0.8h2.6l7.5-20.5h1.1l7.1,20.5h2.6v0.8h-9.9v-0.8h3.3l-1.9-5.4h-6.8l-1.9,5.4h3.1v0.8H145
		L145,124.6z M150.7,117.5h6.1l-2.9-8.8L150.7,117.5L150.7,117.5z"/>
	<path class="st0" d="M169,124.9h-0.5v-6.2h0.8c0.7,3,2.4,5.7,5.8,5.7c2.4,0,4.6-1.9,4.6-4.3c0-3-2.6-3.5-4.9-4.3
		c-0.7-0.3-1.4-0.4-1.9-0.7c-3-0.8-4.3-3-4.3-6c0-3.3,2.4-5.7,5.7-5.7c1.8,0,3.1,0.4,4.5,1.5l1.2-1.2h0.5v6h-1
		c-0.4-3-2.3-5.6-5.4-5.6c-2,0-3.9,1.5-3.9,3.7c0,2.3,1.8,2.6,3.7,3.1c0.8,0.3,1.4,0.4,1.9,0.7c0.7,0.1,1.5,0.4,2.2,0.7
		c2.6,1.2,3.5,3.3,3.5,6.1c0,3.9-2.6,6.9-6.7,6.9c-1.5,0-3.4-0.7-4.5-1.6L169,124.9L169,124.9z"/>
	<path class="st0" d="M185.7,113.6c0-5.2,4.5-10.3,9.8-10.3c5.2,0,9.6,5.2,9.6,10.3c0,5.7-3.5,11.5-9.6,11.5
		C189.2,125.1,185.7,119.3,185.7,113.6L185.7,113.6z M200.5,110.3c0-1.2-0.1-2.2-0.4-3.1c-0.7-1.9-1.9-3.3-4.6-3.3
		c-2.9,0-4.2,1.4-4.8,3.3c-0.3,1-0.4,1.9-0.4,3.1v6.8c0,1.2,0,2.4,0.3,3.5c0.5,2.2,1.9,3.7,4.9,3.7c3,0,4.2-1.5,4.8-3.7
		c0.3-1.1,0.3-2.3,0.3-3.5V110.3L200.5,110.3z"/>
	<polygon class="st0" points="225.9,125 225,125 211.8,105.2 211.8,123.8 214.8,123.8 214.8,124.6 207.7,124.6 207.7,123.8 
		210.7,123.8 210.7,104.5 207.7,104.5 207.7,103.7 215.7,103.7 225,117.4 225,104.5 222,104.5 222,103.7 229.1,103.7 229.1,104.5 
		225.9,104.5 225.9,125 	"/>
	<path class="st0" d="M232.9,124.9h-0.5v-6.2h1c0.7,3,2.4,5.7,5.7,5.7c2.4,0,4.8-1.9,4.8-4.3c0-3-2.7-3.5-5-4.3
		c-0.5-0.3-1.2-0.4-1.9-0.7c-2.9-0.8-4.3-3-4.3-6c0-3.3,2.4-5.7,5.7-5.7c1.9,0,3.1,0.4,4.6,1.5l1.2-1.2h0.5v6h-1.1
		c-0.3-3-2.2-5.6-5.3-5.6c-2,0-3.9,1.5-3.9,3.7c0,2.3,1.6,2.6,3.5,3.1c0.8,0.3,1.5,0.4,2,0.7c0.5,0.1,1.4,0.4,2,0.7
		c2.6,1.2,3.5,3.3,3.5,6.1c0,3.9-2.6,6.9-6.5,6.9c-1.5,0-3.4-0.7-4.5-1.6L232.9,124.9L232.9,124.9z"/>
	<path class="st0" d="M143.1,57.9c0.5,0,1-0.5,1-1c0-0.5-0.4-1.1-1-1.1c-0.5,0-1,0.5-1,1.1C142.1,57.3,142.5,57.9,143.1,57.9
		L143.1,57.9z"/>
	<polygon class="st0" points="141.8,55.7 142.6,56 143.1,55.2 143.3,56 144.3,55.7 143.9,56.5 144.7,56.9 143.9,57.2 144.3,58.1 
		143.3,57.7 143.1,58.6 142.6,57.7 141.8,58.1 142.1,57.2 141.3,56.9 142.1,56.5 141.8,55.7 	"/>
	<path class="st0" d="M118.6,14.7c1.5,0.1,2.7,0.8,2.9,2.7C119.7,17.3,118.9,16.2,118.6,14.7L118.6,14.7z"/>
	<path class="st0" d="M118.6,11.8c1.5,0.1,2.7,0.8,3,2.6C119.7,14.4,118.9,13.3,118.6,11.8L118.6,11.8z"/>
	<path class="st0" d="M118.7,8.8c1.5,0.1,2.6,0.8,2.9,2.7C119.8,11.4,119,10.3,118.7,8.8L118.7,8.8z"/>
	<path class="st0" d="M118.7,6c1.5,0.1,2.7,0.8,2.9,2.6C119.8,8.6,119,7.5,118.7,6L118.7,6z"/>
	<path class="st0" d="M118.7,3c1.5,0.1,2.7,1,3,2.7C119.8,5.6,119,4.5,118.7,3L118.7,3z"/>
	<path class="st0" d="M118.9,0.1c1.5,0.1,2.6,0.8,2.9,2.6C120,2.7,119.1,1.6,118.9,0.1L118.9,0.1z"/>
	<path class="st0" d="M117.9,81.1h8v-0.3l-2.6-1.2L122,0.1c0-0.1,0-0.1-0.1-0.1c0,0,0,0,0,0.1l-1.4,79.5l-2.6,1.2V81.1L117.9,81.1z"
		/>
	<path class="st0" d="M140.5,25.5c-0.3,1.6-1.1,2.7-2.9,2.7C137.8,26.5,139,25.7,140.5,25.5L140.5,25.5z"/>
	<path class="st0" d="M140.6,28.3c-0.3,1.5-1.1,2.6-2.9,2.6C137.9,29.1,139.1,28.4,140.6,28.3L140.6,28.3z"/>
	<path class="st0" d="M131.4,25.4c-1.8,0-2.6-1.1-2.9-2.6C130,23,131.2,23.6,131.4,25.4L131.4,25.4z"/>
	<path class="st0" d="M126.5,34c-1.9,0-2.7-1.1-3-2.6C125.1,31.5,126.2,32.2,126.5,34L126.5,34z"/>
	<path class="st0" d="M145.9,42.1c-1.5,0.1-2.7,0.8-3,2.6C144.8,44.7,145.6,43.6,145.9,42.1L145.9,42.1z"/>
	<path class="st0" d="M143.5,52.6c1.6,0.1,2.9,0.8,3,2.6C144.6,55.2,143.7,54.1,143.5,52.6L143.5,52.6z"/>
	<path class="st0" d="M146.7,48.8c-1.6-0.1-2.9-0.8-2.9-2.7C145.8,46.2,146.6,47.3,146.7,48.8L146.7,48.8z"/>
	<path class="st0" d="M97.7,57.7c-0.3-0.3-0.3-0.5-0.3-0.5l-0.5-15.5c0-0.3-0.1-0.4-0.1-0.4c-0.1,0-0.1,0.1-0.1,0.4l-0.7,16.4
		c0,0,0,0.4,0.3,0.5l25.7,15.1v-3.7L97.7,57.7L97.7,57.7z"/>
	<path class="st0" d="M146,57.7c0.4-0.3,0.4-0.5,0.4-0.5l0.5-15.5c0-0.3,0-0.4,0.1-0.4c0,0,0.1,0.1,0.1,0.4l0.5,16.4
		c0,0,0.1,0.4-0.1,0.5l-25.8,15.1v-3.7L146,57.7L146,57.7z"/>
	<path class="st0" d="M102.2,46.6c-0.3-0.1-0.3-0.3-0.3-0.3l-0.4-13c0-0.1,0-0.3-0.1-0.3c0,0-0.1,0.1-0.1,0.3L100.8,47
		c0,0-0.1,0.3,0.1,0.4l20.9,12.4v-3L102.2,46.6L102.2,46.6z"/>
	<path class="st0" d="M141.6,46.6c0.3-0.1,0.3-0.3,0.3-0.3l0.5-13c0-0.1,0-0.3,0-0.3c0.1,0,0.1,0.1,0.1,0.3l0.5,13.7
		c0,0,0,0.3-0.1,0.4l-21.1,12.4v-3L141.6,46.6L141.6,46.6z"/>
	<path class="st0" d="M107.1,35.6c-0.3-0.1-0.3-0.3-0.3-0.3l-0.3-9.8l-0.1-0.1l-0.1,0.1L106,36.1c0,0,0,0.3,0.1,0.4l15.8,9.4v-2.6
		L107.1,35.6L107.1,35.6z"/>
	<path class="st0" d="M136.8,35.6c0.1-0.1,0.1-0.3,0.1-0.3l0.4-9.8v-0.1c0.1,0,0.1,0.1,0.1,0.1l0.4,10.6c0,0,0,0.3-0.1,0.4
		l-15.9,9.4v-2.6L136.8,35.6L136.8,35.6z"/>
	<path class="st0" d="M111.5,25c-0.1,0-0.1-0.1-0.1-0.1l-0.3-6.9c0-0.1-0.1-0.1-0.1-0.1s0,0,0,0.1l-0.4,7.5c0,0,0,0.3,0.1,0.3
		l11.1,6.7v-1.9L111.5,25L111.5,25z"/>
	<path class="st0" d="M115.2,16.2V16l-0.3-4.3c0-0.1,0-0.1-0.1-0.1c0,0,0,0,0,0.1l-0.3,4.9c0,0,0,0.1,0.1,0.1l7.2,4.2v-1.2
		L115.2,16.2L115.2,16.2z"/>
	<path class="st0" d="M128.5,16.2c0.1,0,0.1-0.1,0.1-0.1l0.3-4.3c0-0.1,0-0.1,0-0.1s0,0,0,0.1l0.3,4.9v0.1l-7.3,4.2v-1.2L128.5,16.2
		L128.5,16.2z"/>
	<path class="st0" d="M132.3,25c0.1,0,0.1-0.1,0.1-0.1l0.3-6.9c0-0.1,0-0.1,0-0.1c0.1,0,0.1,0,0.1,0.1l0.3,7.5c0,0,0,0.3-0.1,0.3
		l-11.1,6.7v-1.9L132.3,25L132.3,25z"/>
	<path class="st0" d="M129.1,14.1c1.9,0,2.7-1.1,3-2.6C130.6,11.5,129.3,12.4,129.1,14.1L129.1,14.1z"/>
	<path class="st0" d="M128.9,11.5c1.9,0,2.7-1.1,3-2.6C130.4,9.1,129.2,9.8,128.9,11.5L128.9,11.5z"/>
	<path class="st0" d="M128.8,13c-1.8,0-2.6-1.2-2.9-2.7C127.4,10.5,128.7,11.3,128.8,13L128.8,13z"/>
	<path class="st0" d="M128.7,15.6c-1.8-0.1-2.6-1.2-2.9-2.7C127.3,13,128.5,13.7,128.7,15.6L128.7,15.6z"/>
	<path class="st0" d="M135.9,17.9c-0.3,1.6-1.1,2.7-2.9,2.7C133.1,18.9,134.4,18.1,135.9,17.9L135.9,17.9z"/>
	<path class="st0" d="M135.7,15.2c-1.5,0.1-2.7,1-2.9,2.7C134.6,17.9,135.4,16.8,135.7,15.2L135.7,15.2z"/>
	<path class="st0" d="M103.4,23c1.5,0.1,2.7,0.8,3,2.7C104.5,25.5,103.7,24.5,103.4,23L103.4,23z"/>
	<path class="st0" d="M103.4,25.5c0.3,1.6,1.1,2.7,2.9,2.7C106.1,26.5,104.9,25.7,103.4,25.5L103.4,25.5z"/>
	<path class="st0" d="M103.3,28.3c0.3,1.5,1.1,2.6,2.9,2.6C106,29.1,104.7,28.4,103.3,28.3L103.3,28.3z"/>
	<path class="st0" d="M103.1,30.8c0.3,1.6,1.1,2.7,3,2.7C105.8,31.8,104.7,31,103.1,30.8L103.1,30.8z"/>
	<path class="st0" d="M106,36.1c-1.8,0-2.6-1.1-2.9-2.6C104.6,33.7,105.8,34.4,106,36.1L106,36.1z"/>
	<path class="st0" d="M110.7,25.4c-1.9,0-2.7-1.1-3-2.6C109.4,23,110.5,23.6,110.7,25.4L110.7,25.4z"/>
	<path class="st0" d="M109.6,30.2c-1.5,0.1-2.7,1-2.9,2.7C108.5,32.9,109.4,31.8,109.6,30.2L109.6,30.2z"/>
	<path class="st0" d="M106.9,35.5c1.8-0.1,2.6-1.2,2.9-2.7C108.3,32.9,107.1,33.6,106.9,35.5L106.9,35.5z"/>
	<path class="st0" d="M111.8,34c-0.3,1.5-1.1,2.6-2.9,2.6C109.1,34.8,110.3,34.1,111.8,34L111.8,34z"/>
	<path class="st0" d="M114,35.1c-0.3,1.5-1.1,2.6-2.9,2.6C111.3,35.9,112.5,35.2,114,35.1L114,35.1z"/>
	<path class="st0" d="M116.2,36.1c-0.3,1.5-1.1,2.6-3,2.6C113.4,37,114.7,36.3,116.2,36.1L116.2,36.1z"/>
	<path class="st0" d="M118.3,37.2c-0.3,1.5-1.2,2.6-3,2.7C115.6,38,116.7,37.4,118.3,37.2L118.3,37.2z"/>
	<path class="st0" d="M117.5,41c1.8-0.1,2.6-1.2,2.9-2.7C118.9,38.4,117.7,39.1,117.5,41L117.5,41z"/>
	<path class="st0" d="M111.4,24.9c1.9,0,2.7-1.1,3-2.6C112.8,22.4,111.7,23.1,111.4,24.9L111.4,24.9z"/>
	<path class="st0" d="M116.4,23.4c-0.3,1.5-1.1,2.6-2.9,2.7C113.7,24.2,114.9,23.5,116.4,23.4L116.4,23.4z"/>
	<path class="st0" d="M118.6,24.5c-0.3,1.5-1.1,2.6-2.9,2.7C115.9,25.3,117.1,24.6,118.6,24.5L118.6,24.5z"/>
	<path class="st0" d="M120.8,25.5c-0.3,1.5-1.1,2.7-3,2.7C118.1,26.5,119.3,25.7,120.8,25.5L120.8,25.5z"/>
	<path class="st0" d="M107.5,37.4c-0.3,1.5-1.2,2.6-3,2.6C104.7,38.2,105.8,37.5,107.5,37.4L107.5,37.4z"/>
	<path class="st0" d="M106.5,41.2c0.3-1.8,1.4-2.6,3-2.7C109.2,40.1,108.3,41.2,106.5,41.2L106.5,41.2z"/>
	<path class="st0" d="M108.5,42.4c0.3-1.8,1.4-2.6,3-2.7C111.3,41.3,110.3,42.4,108.5,42.4L108.5,42.4z"/>
	<path class="st0" d="M110.6,43.6c0.3-1.9,1.4-2.6,3-2.7C113.3,42.4,112.4,43.5,110.6,43.6L110.6,43.6z"/>
	<path class="st0" d="M114.7,45.9c0.3-1.8,1.4-2.4,3-2.6C117.4,44.8,116.4,45.9,114.7,45.9L114.7,45.9z"/>
	<path class="st0" d="M112.1,26.5c-0.3,1.5-1.1,2.6-3,2.7C109.4,27.3,110.5,26.6,112.1,26.5L112.1,26.5z"/>
	<path class="st0" d="M111.1,30.3c0.3-1.8,1.5-2.4,3-2.6C113.8,29.2,113,30.3,111.1,30.3L111.1,30.3z"/>
	<path class="st0" d="M113.3,31.5c0.1-1.8,1.4-2.4,2.9-2.6C115.9,30.4,115.1,31.5,113.3,31.5L113.3,31.5z"/>
	<path class="st0" d="M115.3,32.7c0.1-1.8,1.4-2.4,2.9-2.6C117.9,31.7,117.1,32.7,115.3,32.7L115.3,32.7z"/>
	<path class="st0" d="M117.4,34c1.8,0,2.6-1.1,2.9-2.6C118.7,31.5,117.5,32.2,117.4,34L117.4,34z"/>
	<path class="st0" d="M115.9,17.4c-0.3,1.5-1.2,2.6-3,2.7C113.2,18.2,114.3,17.5,115.9,17.4L115.9,17.4z"/>
	<path class="st0" d="M115.1,21.2c0.1-1.8,1.4-2.4,2.9-2.6C117.7,20.1,116.8,21.2,115.1,21.2L115.1,21.2z"/>
	<path class="st0" d="M117.1,22.4c0.1-1.8,1.4-2.4,2.9-2.6C119.7,21.3,118.9,22.4,117.1,22.4L117.1,22.4z"/>
	<path class="st0" d="M114.5,16.6c-1.8,0-2.6-1.1-2.9-2.6C113.2,14.1,114.4,14.8,114.5,16.6L114.5,16.6z"/>
	<path class="st0" d="M114.7,14.1c-1.8,0-2.6-1.1-2.9-2.6C113.3,11.5,114.5,12.4,114.7,14.1L114.7,14.1z"/>
	<path class="st0" d="M114.8,11.5c-1.8,0-2.6-1.1-2.9-2.6C113.4,9.1,114.7,9.8,114.8,11.5L114.8,11.5z"/>
	<path class="st0" d="M114.9,12.9c1.9,0,2.7-1.1,3-2.7C116.4,10.3,115.2,11.1,114.9,12.9L114.9,12.9z"/>
	<path class="st0" d="M115.2,15.6c1.8-0.1,2.6-1.2,2.9-2.7C116.6,13,115.3,13.7,115.2,15.6L115.2,15.6z"/>
	<path class="st0" d="M107.9,20.2c0.3,1.5,1.1,2.6,2.9,2.7C110.6,21.1,109.4,20.4,107.9,20.2L107.9,20.2z"/>
	<path class="st0" d="M108,17.8c0.3,1.5,1.1,2.6,2.9,2.6C110.7,18.6,109.5,17.9,108,17.8L108,17.8z"/>
	<path class="st0" d="M108,15.2c1.6,0.1,2.7,1,3,2.7C109.1,17.9,108.3,16.8,108,15.2L108,15.2z"/>
	<path class="st0" d="M98,42.1c1.5,0.1,2.7,0.8,2.9,2.6C99,44.7,98.2,43.6,98,42.1L98,42.1z"/>
	<path class="st0" d="M98.2,34.2c1.5,0.1,2.7,1,2.9,2.7C99.3,37,98.5,35.9,98.2,34.2L98.2,34.2z"/>
	<path class="st0" d="M98.1,37c1.5,0.1,2.7,0.8,3,2.7C99.2,39.5,98.4,38.4,98.1,37L98.1,37z"/>
	<path class="st0" d="M130.4,44.7c0.5,0,1-0.4,1-1c0-0.5-0.4-1-1-1c-0.5,0-1.1,0.4-1.1,1C129.3,44.3,129.9,44.7,130.4,44.7
		L130.4,44.7z"/>
	<polygon class="st0" points="129.2,42.5 130,42.8 130.4,42 130.7,42.8 131.6,42.5 131.2,43.3 132.1,43.7 131.2,44 131.6,45 
		130.7,44.6 130.4,45.4 130,44.6 129.2,45 129.5,44 128.7,43.7 129.5,43.3 129.2,42.5 	"/>
	<path class="st0" d="M127.2,52.2c0.5,0,1-0.5,1-1.1c0-0.5-0.4-1-1-1c-0.5,0-1,0.4-1,1C126.2,51.6,126.6,52.2,127.2,52.2L127.2,52.2
		z"/>
	<polygon class="st0" points="125.9,49.9 126.9,50.3 127.2,49.5 127.6,50.3 128.4,49.9 128.1,50.8 128.9,51.1 128.1,51.5 
		128.4,52.3 127.6,52 127.2,52.8 126.9,52 125.9,52.3 126.3,51.5 125.5,51.1 126.3,50.8 125.9,49.9 	"/>
	<path class="st0" d="M133.4,60c0.5,0,1-0.5,1-1.1c0-0.5-0.4-1-1-1c-0.5,0-1,0.4-1,1C132.5,59.5,132.9,60,133.4,60L133.4,60z"/>
	<polygon class="st0" points="132.2,57.7 133,58.1 133.4,57.3 133.8,58.1 134.6,57.7 134.2,58.7 135.2,59 134.2,59.4 134.6,60.2 
		133.8,59.9 133.4,60.7 133,59.9 132.2,60.2 132.5,59.4 131.6,59 132.5,58.7 132.2,57.7 	"/>
	<path class="st0" d="M135.4,70.1c0.5,0,1-0.5,1-1.1c0-0.4-0.4-1-1-1c-0.5,0-1,0.5-1,1C134.5,69.6,134.9,70.1,135.4,70.1L135.4,70.1
		z"/>
	<polygon class="st0" points="134.2,67.8 135,68.2 135.4,67.4 135.9,68.2 136.7,67.8 136.4,68.7 137.2,69 136.4,69.4 136.7,70.2 
		135.9,70 135.4,70.8 135,70 134.2,70.2 134.5,69.4 133.7,69 134.5,68.7 134.2,67.8 	"/>
	<path class="st0" d="M132.9,70c0.3,1.5-0.1,2.9-1.8,3.5C130.6,71.7,131.4,70.6,132.9,70L132.9,70z"/>
	<path class="st0" d="M144.4,65.8c-1.6-0.1-2.9-1-2.9-2.7C143.5,63,144.3,64.3,144.4,65.8L144.4,65.8z"/>
	<path class="st0" d="M129.6,59.6c-1.6-0.1-2.9-0.8-3-2.6C128.5,57.1,129.3,58.1,129.6,59.6L129.6,59.6z"/>
	<path class="st0" d="M142,42.9c-1.8-0.1-2.6-1.2-2.9-2.7C140.6,40.3,141.8,41,142,42.9L142,42.9z"/>
	<path class="st0" d="M132.2,51.4c-1.8,0-2.7-1.1-3-2.6C130.8,48.9,131.9,49.6,132.2,51.4L132.2,51.4z"/>
	<path class="st0" d="M137.1,32.9c-1.9,0-2.7-1.1-3-2.7C135.7,30.3,136.8,31.1,137.1,32.9L137.1,32.9z"/>
	<path class="st0" d="M151.8,54.6c-1.6-0.1-2.9-0.8-3-2.7C150.7,52,151.5,53.1,151.8,54.6L151.8,54.6z"/>
	<path class="st0" d="M134.4,42.7c0.3,1.5-0.1,2.9-1.8,3.5C132.1,44.4,133,43.3,134.4,42.7L134.4,42.7z"/>
	<path class="st0" d="M136.5,52.6c0.3,1.5-0.1,2.9-1.8,3.5C134.2,54.3,135.2,53.3,136.5,52.6L136.5,52.6z"/>
	<path class="st0" d="M129.2,66.2c-1.8,0-2.6-1.1-2.9-2.7C127.8,63.6,129.1,64.4,129.2,66.2L129.2,66.2z"/>
	<path class="st0" d="M141,77.3c0-2,1.8-3.8,3.8-3.8c2,0,3.7,1.8,3.7,3.8c0,2-1.6,3.8-3.7,3.8C142.8,81.1,141,79.3,141,77.3
		L141,77.3z M147.8,77.3c0-1.6-1.4-3-3-3c-1.8,0-3.1,1.4-3.1,3c0,1.8,1.4,3,3.1,3C146.5,80.3,147.8,79.1,147.8,77.3L147.8,77.3z
		 M146.7,79.3h-1l-1-1.8H144v1.8h-0.8v-4.1h2c0.3,0,0.8,0,1.1,0.3c0.4,0.1,0.4,0.5,0.4,1c0,0.8-0.3,1.1-1.1,1.1L146.7,79.3
		L146.7,79.3z M145.2,77c0.4,0,0.8-0.1,0.8-0.5c0-0.5-0.7-0.5-1-0.5H144V77H145.2L145.2,77z"/>
</g>
</svg>
