<?xml version="1.0" encoding="utf-8"?>
<!-- Generator: Adobe Illustrator 19.2.1, SVG Export Plug-In . SVG Version: 6.00 Build 0)  -->
<svg version="1.1" id="Layer_1" xmlns="http://www.w3.org/2000/svg" xmlns:xlink="http://www.w3.org/1999/xlink" x="0px" y="0px"
	 viewBox="0 0 589 154.8" style="enable-background:new 0 0 589 154.8;" xml:space="preserve">
<style type="text/css">
	.st0{fill:#FFFFFF;stroke:#B2B1B8;stroke-width:2;stroke-miterlimit:10;}
</style>
<g id="Layer_1_1_">
	<g>
		<g>
			<path class="st0" d="M13.2,0H8.1C0.7,0,0,0.7,0,7.7v136.4c0,7,0.7,7.7,8.1,7.7h5.1c7.3,0,8.1-0.7,8.1-7.7V7.7
				C21.3,0.7,20.5,0,13.2,0"/>
		</g>
	</g>
	<g>
		<g>
			<path class="st0" d="M64.6,27.9c0-7.3-5.9-13.2-13.6-13.2s-13.9,5.9-13.9,13.2c0,6.2,4.4,11.4,10.6,12.8v23.5
				c-6.6,0-7.3,0.7-7.3,7.7v72.3c0,7,0.7,7.7,8.1,7.7h4.8c7.3,0,8.1-0.7,8.1-7.7V71.9c0-7-0.7-7.7-7.3-7.7V40.7
				C59.8,39.2,64.6,34.1,64.6,27.9"/>
		</g>
	</g>
	<g>
		<g>
			<path class="st0" d="M118.1,64.2h-8.4V40c0-7-0.7-7.7-8.1-7.7h-5.1c-7.3,0-8.1,0.7-8.1,7.7v24.2h-1.1c-7,0-7.7,0.7-7.7,7.7v3.7
				c0,7,0.7,7.7,7.7,7.7h1.1v60.9c0,7,0.7,7.7,8.1,7.7h5.1c7.3,0,8.1-0.7,8.1-7.7V83.3h8.4c7.3,0,8.1-0.7,8.1-7.7v-3.7
				C126.2,64.9,125.4,64.2,118.1,64.2"/>
		</g>
	</g>
	<g>
		<g>
			<path class="st0" d="M176.8,64.2h-8.4V40c0-7-0.7-7.7-8.1-7.7h-5.1c-7.3,0-8.1,0.7-8.1,7.7v24.2H146c-7,0-7.7,0.7-7.7,7.7v3.7
				c0,7,0.7,7.7,7.7,7.7h1.1v60.9c0,7,0.7,7.7,8.1,7.7h5.1c7.3,0,8.1-0.7,8.1-7.7V83.3h8.4c7.3,0,8.1-0.7,8.1-7.7v-3.7
				C184.9,64.9,184.1,64.2,176.8,64.2"/>
		</g>
	</g>
	<g>
		<g>
			<path class="st0" d="M210.5,0h-5.1c-7.3,0-8.1,0.7-8.1,7.7v136.4c0,7,0.7,7.7,8.1,7.7h5.1c7.3,0,8.1-0.7,8.1-7.7V7.7
				C218.6,0.7,217.9,0,210.5,0"/>
		</g>
	</g>
	<g>
		<g>
			<path class="st0" d="M254.2,96.5c2.6-9.9,10.6-16.1,20.9-16.1c10.6,0,18.3,5.9,21.3,16.1H254.2z M318,107.5
				C318,80,301.5,62,275.4,62c-26.8,0-44.4,18-44.4,46.9c0,27.1,18,45.8,44.7,45.8c13.6,0,25.7-4.8,34.1-13.6c4.4-4.4,7-8.4,7-10.3
				c0-2.2-0.7-3.3-5.1-5.5l-4-2.2c-2.9-1.8-4-2.2-5.1-2.2c-1.8,0-3.3,0.7-4.4,2.9c-5.5,8.4-12.8,12.5-21.6,12.5
				c-13.2,0-22.4-9.2-23.5-23.5H310C316.5,113,318,111.9,318,107.5"/>
		</g>
	</g>
	<g>
		<g>
			<path class="st0" d="M369.7,132h-13.2V90.2h11c20.9,0,31.2,7,31.2,21.3C398.7,124.3,388.4,132,369.7,132 M356.5,32.3h7.7
				c14.7,0,22.7,7,22.7,19.8c0,13.2-8.1,20.5-23.5,20.5h-6.6V32.3H356.5z M395.4,77c8.1-7,11.7-15,11.7-24.9
				c0-12.8-6.6-25.7-16.5-32.3c-7.7-5.1-17.2-7-34.5-7h-13.6c-7.3,0-8.1,0.7-8.1,7.7v123.2c0,7,0.7,7.7,8.1,7.7h24.9
				c19.4,0,28.6-2.6,37.8-9.9s14.3-18,14.3-30.1C420,95.7,410.4,82.2,395.4,77"/>
		</g>
	</g>
	<g>
		<g>
			<path class="st0" d="M456.6,27.9c0-7.3-5.9-13.2-13.6-13.2s-13.9,5.9-13.9,13.2c0,6.2,4.8,11.4,10.6,12.8v23.5
				c-6.6,0-7.3,0.7-7.3,7.7v72.3c0,7,0.7,7.7,8.1,7.7h5.1c7.3,0,8.1-0.7,8.1-7.7V71.9c0-7-0.7-7.7-7.3-7.7V40.7
				C452.2,39.2,456.6,34.1,456.6,27.9"/>
		</g>
	</g>
	<g>
		<g>
			<path class="st0" d="M506.9,64.2h-8.4V40c0-7-0.7-7.7-8.1-7.7h-5.1c-7.3,0-8.1,0.7-8.1,7.7v24.2h-1.1c-7,0-7.7,0.7-7.7,7.7v3.7
				c0,7,0.7,7.7,7.7,7.7h1.1v60.9c0,7,0.7,7.7,8.1,7.7h5.1c7.3,0,8.1-0.7,8.1-7.7V83.3h8.4c7.3,0,8.1-0.7,8.1-7.7v-3.7
				C515,64.9,514.2,64.2,506.9,64.2"/>
		</g>
	</g>
	<g>
		<g>
			<path class="st0" d="M554.6,96.1c-9.9-4.4-12.1-6.2-12.1-9.9s2.9-6.2,7-6.2c3.3,0,4.8,0.7,7.7,4.4c1.1,1.5,2.2,2.2,4,2.2
				c1.1,0,1.5-0.4,5.1-2.2l4-1.8c4.4-2.2,5.1-3.3,5.1-5.5c0-7-13.2-15.4-24.2-15.4c-16.1,0-27.9,11.4-27.9,26.4
				c0,10.6,4.4,16.1,17.6,22.7c19.8,9.5,20.9,10.3,20.9,16.1s-4.4,9.5-10.6,9.5c-4,0-8.1-1.8-9.9-4.4c-4-5.5-4.4-5.9-6.6-5.5
				c-0.7,0-2.2,0.7-4.8,1.8l-4,1.8c-4.8,2.2-5.5,2.9-5.5,5.1c0,1.5,0.7,3.7,2.9,5.9c5.9,8.4,16.5,13.6,28.2,13.6
				c18,0,32.3-13.2,32.3-29.7C582.8,111.9,576.9,106.4,554.6,96.1"/>
		</g>
	</g>
	<g>
		<g>
			<path class="st0" d="M581.3,52.4C581.3,52.1,581.3,52.1,581.3,52.4c-0.4-0.4-0.4-0.4-0.7-0.4h-1.8c-0.4,0-0.4,0-0.4,0s0,0,0,0.4
				l-1.5,8.8v0.4c0,0,0,0,0,0.4h0.4h1.5c0.4,0,0.4,0,0.4,0s0,0,0-0.4l0.7-5.1l2.2,5.5c0,0,0,0.4,0.4,0.4h0.4h0.4c0.4,0,0.4,0,0.4,0
				s0,0,0.4-0.4l2.2-5.5l0.7,5.1c0,0.4,0,0.4,0,0.4h0.4h1.5c0.4,0,0.4,0,0.4,0s0,0,0-0.4c0,0,0,0,0-0.4l-1.5-8.8c0-0.4,0-0.4,0-0.4
				h-0.4h-1.8c-0.4,0-0.4,0-0.4,0s0,0-0.4,0.4l-2.2,4.8L581.3,52.4z M575.8,54.3c0.4,0,0.4,0,0.4,0v-0.4v-1.1c0-0.4,0-0.4,0-0.4
				h-0.4H570c-0.4,0-0.4,0-0.4,0v0.4v1.1c0,0.4,0,0.4,0,0.4h0.4h1.8v7.3c0,0.4,0,0.4,0,0.4h0.4h1.5c0.4,0,0.4,0,0.4,0v-0.4v-7.3
				H575.8z"/>
		</g>
	</g>
</g>
</svg>
