<?xml version="1.0" encoding="utf-8"?>
<!-- Generator: Adobe Illustrator 19.2.1, SVG Export Plug-In . SVG Version: 6.00 Build 0)  -->
<svg version="1.1" id="Layer_1" xmlns="http://www.w3.org/2000/svg" xmlns:xlink="http://www.w3.org/1999/xlink" x="0px" y="0px"
	 viewBox="0 0 328 166.9" style="enable-background:new 0 0 328 166.9;" xml:space="preserve">
<style type="text/css">
	.st0{fill:#FFFFFF;}
</style>
<g>
	<path class="st0" d="M0,0.5h9.1l8.8,27.1l8.8-27.1h9.1v62.5h-8.5V20.4L18,48h-0.2L8.5,20.4v42.7H0V0.5z"/>
</g>
<g>
	<path class="st0" d="M75.4,0.4h9.5l12.4,62.7h-8.9l-2.5-13.9H74.1l-2.5,13.9H63L75.4,0.4z M84.5,41.2L80,16.1l-4.6,25.1H84.5z"/>
</g>
<g>
	<path class="st0" d="M124.7,0.5h8.8v29.4L145,0.5h9.6l-11.6,27l12.3,35.6h-9.6l-9-25.7l-3.3,7.9v17.9h-8.8V0.5z"/>
</g>
<g>
	<path class="st0" d="M182.7,0.5h23.1v8.3h-14.3v18.6h12.8v8.3h-12.8v19h14.6v8.3h-23.4V0.5z"/>
</g>
<g>
	<path class="st0" d="M234.9,0.5h10.2c5.7,0,10.5,1.6,13.8,4.9c3.2,3.3,5.1,8,5.1,14.6v0.6c0,8.3-3.5,13.8-8.4,16.7l9.5,25.7h-9.5
		l-8.4-22.9c-0.4,0-0.8,0.1-1.2,0.1h-2.3v22.8h-8.8V0.5z M245.3,32.3c5.9,0,9.9-3.6,9.9-11.6v-0.5c0-8.6-4.3-11.4-10.2-11.4h-1.3
		v23.6H245.3z"/>
</g>
<g>
	<path class="st0" d="M302.4,60.7v-9.1c3.9,2.4,6.8,3.7,10,3.7c4,0,6.8-2.5,6.8-7.1c0-3-1-6-6.8-12.9c-7.9-9.2-10.5-13.3-10.5-20.1
		v-0.1c0-9.1,6.3-15.2,14.6-15.2c3.9,0,6.8,0.9,9.4,2.2v9.1c-3.4-2.1-5.8-3-8.7-3c-3.6,0-6.4,2.5-6.4,6.6c0,3.2,1.2,5.5,6.9,12.3
		c8.3,9.8,10.5,14.2,10.5,20.9v0.1c0,9.3-6.4,15.4-14.6,15.4C309.2,63.6,305.7,62.5,302.4,60.7z"/>
</g>
<g>
	<path class="st0" d="M139.7,89.6c-0.3-1.4-1.1-2.3-2.6-2.3c-2.3,0-4.8,1.4-6.3,7.9c-0.2,0.9-3.4,16.3-3.5,17.1c0,0-2.4-0.1-3.7-0.1
		c-1.3,0-3.8,0.1-3.8,0.1c1-4.2,2.9-13.3,3.8-17.5c1-4.9,1.5-6.9,0.1-6.9c-2,0-3.3,3.5-3.9,8.3l-2.2-0.2c0.5-5.3,2.9-11.6,8.5-11.6
		c3.5,0,4.9,2,5.3,4.8c1.7-3.7,4.5-4.8,6.7-4.8c3.3,0,5.3,2.1,4.8,6.2c-0.5,3.9-2.4,5.5-4.9,5.5c-2,0-3.8-1.3-3.3-3.9
		C135.1,89.7,137.8,89,139.7,89.6z"/>
	<path class="st0" d="M143.3,100.4c0.9-7.2,5.4-16,14.6-16c6.9,0,10.9,3.5,10.2,11.7c-0.6,8.3-5,17.1-14.6,17.1
		C146.5,113.3,142.2,109.6,143.3,100.4z M160.6,94.7c0.8-6-0.5-7.1-2.8-7.1c-3.4,0-5.7,6-6.9,15c-0.8,6.2,0.6,7.5,2.7,7.5
		C157,110.1,159.3,104.2,160.6,94.7z"/>
	<path class="st0" d="M174.8,101.4l2.1-7.3c1.3-4.4,1-6.2-0.1-6.2c-2,0-3.4,3.5-3.9,8.3l-2.2-0.2c0.5-5.3,2.8-11.6,8.5-11.6
		c5.6,0,7,4.7,5.3,10.4l-1.9,6.6c-1.8,6.1-1,8.3,0.8,8.3c3,0,5.6-4.4,7.8-14.9l2-9.6c0,0,2.6,0.1,3.9,0.1s3.9-0.1,3.9-0.1
		c-0.5,1.5-3.6,14.2-4,16c-1.6,6.7-1.1,8.5,1.5,8.5c4.6,0,8.4-7.5,9.4-14.2c0.3-1.9,0.4-3.3,0.3-4.7c-0.2,0.1-0.6,0.1-0.9,0.1
		c-1.8,0-3.4-1.1-3-3.5c0.3-2.2,1.9-3.1,3.5-3.1c3,0,3.9,2.8,3.3,7.7c-1,7.5-6.2,21.1-15.6,21.1c-4.5,0-6.8-1.9-6.7-6.6
		c-2.1,4.5-5.4,6.6-9.1,6.6C173.9,113.3,172.5,109.1,174.8,101.4z"/>
</g>
<g>
	<polygon class="st0" points="98.4,100.9 0,100.9 0,97.6 98.4,97.6 98.4,100.9 	"/>
</g>
<g>
	<polygon class="st0" points="328,100.9 229.6,100.9 229.6,97.6 328,97.6 328,100.9 	"/>
</g>
<g>
	<path class="st0" d="M172.2,145.2L172.2,145.2c2.5,0,17.4-1.4,23-9.2h-23v-1.8H135v6.7c0,0,25.9,7.4,10.9,21.5v4.6h35.4v-4.6
		C181.3,162.3,162,153.7,172.2,145.2z"/>
</g>
<path class="st0" d="M71.6,142.8h11.5v2.5h-8.8v4h7.8v2.5h-7.8v4.2h8.9v2.5H71.6V142.8z"/>
<path class="st0" d="M93.2,158.6c-1.2,0-2.4-0.2-3.4-0.6c-1.1-0.4-2.1-1-3-1.9l1.6-2c0.8,0.7,1.5,1.2,2.3,1.5
	c0.8,0.3,1.6,0.5,2.6,0.5c0.8,0,1.5-0.2,2-0.5c0.5-0.4,0.7-0.8,0.7-1.4v0c0-0.3,0-0.5-0.1-0.7c-0.1-0.2-0.3-0.4-0.5-0.6
	c-0.3-0.2-0.6-0.4-1.1-0.5c-0.5-0.2-1-0.3-1.8-0.5c-0.8-0.2-1.6-0.4-2.2-0.7c-0.6-0.2-1.2-0.5-1.6-0.9c-0.4-0.3-0.8-0.8-1-1.3
	c-0.2-0.5-0.3-1.1-0.3-1.8v0c0-0.7,0.1-1.3,0.4-1.8c0.3-0.6,0.6-1,1.1-1.4c0.5-0.4,1-0.7,1.7-0.9c0.7-0.2,1.4-0.3,2.1-0.3
	c1.1,0,2.2,0.2,3.1,0.5c0.9,0.3,1.8,0.8,2.6,1.5l-1.5,2.1c-0.7-0.5-1.4-0.9-2.1-1.2c-0.7-0.3-1.4-0.4-2.1-0.4
	c-0.8,0-1.4,0.2-1.9,0.5c-0.4,0.4-0.7,0.8-0.7,1.3v0c0,0.3,0.1,0.6,0.2,0.8c0.1,0.2,0.3,0.4,0.6,0.6c0.3,0.2,0.7,0.4,1.1,0.5
	c0.5,0.2,1.1,0.3,1.8,0.5c0.8,0.2,1.5,0.4,2.2,0.7c0.6,0.3,1.2,0.6,1.6,0.9c0.4,0.4,0.7,0.8,0.9,1.3c0.2,0.5,0.3,1,0.3,1.7v0
	c0,0.7-0.1,1.4-0.4,2c-0.3,0.6-0.7,1.1-1.1,1.5c-0.5,0.4-1.1,0.7-1.8,0.9C94.8,158.5,94.1,158.6,93.2,158.6z"/>
<path class="st0" d="M106.9,145.3h-4.9v-2.5h12.6v2.5h-4.9v13h-2.8V145.3z"/>
<path class="st0" d="M211.1,156.2l5.4-4.6c0.5-0.4,1-0.8,1.4-1.2c0.4-0.4,0.7-0.7,0.9-1c0.2-0.3,0.4-0.6,0.5-1
	c0.1-0.3,0.2-0.6,0.2-1c0-0.8-0.2-1.4-0.7-1.8c-0.5-0.4-1.1-0.6-1.8-0.6c-0.7,0-1.3,0.2-1.9,0.6c-0.5,0.4-1.1,1-1.7,1.8l-1.9-1.5
	c0.4-0.5,0.7-1,1.1-1.4c0.4-0.4,0.8-0.8,1.3-1c0.5-0.3,0.9-0.5,1.5-0.6c0.5-0.1,1.2-0.2,1.9-0.2c0.8,0,1.4,0.1,2.1,0.3
	c0.6,0.2,1.2,0.5,1.6,0.9c0.5,0.4,0.8,0.9,1.1,1.5c0.3,0.6,0.4,1.2,0.4,1.9v0c0,0.6-0.1,1.2-0.2,1.7c-0.2,0.5-0.4,1-0.7,1.4
	c-0.3,0.5-0.8,0.9-1.3,1.4c-0.5,0.5-1.1,1-1.8,1.5L215,156h7.4v2.4h-11.3V156.2z"/>
<path class="st0" d="M232.6,158.6c-1,0-2-0.2-2.8-0.6c-0.8-0.4-1.5-1-2.1-1.7c-0.6-0.7-1.1-1.6-1.4-2.5c-0.3-1-0.5-2-0.5-3.1v0
	c0-1.1,0.2-2.2,0.5-3.1c0.3-1,0.8-1.8,1.4-2.6c0.6-0.7,1.3-1.3,2.1-1.7s1.8-0.6,2.8-0.6c1,0,2,0.2,2.8,0.6c0.8,0.4,1.5,1,2.1,1.7
	c0.6,0.7,1,1.6,1.4,2.5c0.3,1,0.5,2,0.5,3.1v0c0,1.1-0.2,2.2-0.5,3.1c-0.3,1-0.8,1.8-1.4,2.6c-0.6,0.7-1.3,1.3-2.1,1.7
	C234.6,158.4,233.7,158.6,232.6,158.6z M232.7,156.2c0.6,0,1.2-0.1,1.6-0.4c0.5-0.3,0.9-0.7,1.2-1.2c0.3-0.5,0.6-1.1,0.8-1.8
	c0.2-0.7,0.3-1.4,0.3-2.2v0c0-0.8-0.1-1.5-0.3-2.2c-0.2-0.7-0.5-1.3-0.8-1.8c-0.3-0.5-0.8-0.9-1.3-1.2s-1-0.4-1.6-0.4
	c-0.6,0-1.2,0.1-1.6,0.4c-0.5,0.3-0.9,0.7-1.2,1.2c-0.3,0.5-0.6,1.1-0.8,1.8c-0.2,0.7-0.3,1.4-0.3,2.2v0c0,0.8,0.1,1.5,0.3,2.2
	c0.2,0.7,0.5,1.3,0.8,1.8c0.3,0.5,0.8,0.9,1.3,1.2C231.5,156,232.1,156.2,232.7,156.2z"/>
<path class="st0" d="M245.5,145.5l-2.8,0.8l-0.6-2.2l4.2-1.3h1.9v15.7h-2.7V145.5z"/>
<path class="st0" d="M252.8,156.2l5.4-4.6c0.5-0.4,1-0.8,1.4-1.2c0.4-0.4,0.7-0.7,0.9-1c0.2-0.3,0.4-0.6,0.5-1
	c0.1-0.3,0.2-0.6,0.2-1c0-0.8-0.2-1.4-0.7-1.8c-0.5-0.4-1.1-0.6-1.8-0.6c-0.7,0-1.3,0.2-1.9,0.6c-0.5,0.4-1.1,1-1.7,1.8l-1.9-1.5
	c0.4-0.5,0.7-1,1.1-1.4c0.4-0.4,0.8-0.8,1.3-1c0.5-0.3,0.9-0.5,1.5-0.6c0.5-0.1,1.2-0.2,1.9-0.2c0.8,0,1.4,0.1,2.1,0.3
	c0.6,0.2,1.2,0.5,1.6,0.9c0.5,0.4,0.8,0.9,1.1,1.5c0.3,0.6,0.4,1.2,0.4,1.9v0c0,0.6-0.1,1.2-0.2,1.7c-0.2,0.5-0.4,1-0.7,1.4
	c-0.3,0.5-0.8,0.9-1.3,1.4c-0.5,0.5-1.1,1-1.8,1.5l-3.2,2.7h7.4v2.4h-11.3V156.2z"/>
<g>
	<g>
		<path class="st0" d="M278.7,0.5h8.9v8.9l-8.9,7.5V0.5z"/>
	</g>
</g>
</svg>
