<?xml version="1.0" encoding="utf-8"?>
<!-- Generator: Adobe Illustrator 19.2.1, SVG Export Plug-In . SVG Version: 6.00 Build 0)  -->
<svg version="1.1" id="Layer_1" xmlns="http://www.w3.org/2000/svg" xmlns:xlink="http://www.w3.org/1999/xlink" x="0px" y="0px"
	 viewBox="0 0 552.7 212.2" style="enable-background:new 0 0 552.7 212.2;" xml:space="preserve">
<style type="text/css">
	.st0{fill:#FFFFFF;}
	.st1{fill:none;stroke:#FFFFFF;stroke-width:1.89;}
</style>
<g>
	<polygon class="st0" points="494.8,5.2 5.3,5.2 5.3,0 494.8,0 	"/>
	<polygon class="st0" points="548.2,212.2 223.9,212.2 223.9,207.7 548.2,207.7 	"/>
	<line class="st1" x1="5.9" y1="107.5" x2="548.2" y2="107.5"/>
	<path class="st0" d="M223.7,201.5H237v-44.2l8.2,44.2h15.6v-87.9h-13.2v41.2l-8.3-41.2h-15.6L223.7,201.5L223.7,201.5z
		 M269.4,201.5h24.4v-11.9h-9.5v-30.2h9.5v-11.8h-9.5v-22.2h9.5v-11.9h-24.4L269.4,201.5L269.4,201.5z M307.8,201.5h16.9l5.3-47.8
		l5.4,47.8h16l7.8-87.9h-13.1l-3.4,48.1l-3.2-48.1h-19.1l-3.3,48.1l-3.2-48.1h-14.8L307.8,201.5L307.8,201.5z"/>
	<path class="st0" d="M372.2,201.7h14.9v-42.1h9.2v-11.8h-9.2v-22.2h9.2v-11.9h-24.2V201.7L372.2,201.7z M403.7,201.7h15.1v-87.9
		h-15.1V201.7L403.7,201.7z M451.1,190h-9.2v-76.2h-14.8v87.9h24V190L451.1,190z M456.1,201.7h13.3v-49.9l6.6,49.9h10l6.6-49.9v49.9
		h13.5v-87.9H485l-4.1,42.1l-4.1-42.1h-20.7L456.1,201.7L456.1,201.7z M513.4,165.8v23.1c0,10.8,3.3,12.9,19.4,12.9
		c11.4,0,15.4-3.3,15.4-12.8v-23.2c0-5.9-1.2-8.3-5.7-11.1l-12.1-7.7c-2-1.2-2.2-1.6-2.2-4.5v-12.8c0-3,0.8-4.4,2.6-4.4
		c1.8,0,2.6,1.3,2.6,4.5v14.5h14.8v-16.6c0-11.6-3.4-14.3-19-14.3c-13.1,0-15.8,2.6-15.8,14.9v14.8c0,7.1,1.5,9.6,7.5,13.3l9.5,5.5
		c2,1.3,2.4,1.6,2.9,2.5c0.1,0.4,0.1,0.4,0.1,1.1c0,0.4,0,1.6,0,3.4v16.5c0,3.3-0.7,4.4-2.6,4.4c-1.8,0-2.6-1.2-2.6-4.5v-19.7
		L513.4,165.8L513.4,165.8z"/>
	<path class="st0" d="M5.3,101.1h13.3V56.9l8.2,44.2h15.6V13.2H29.2v41.2l-8.3-41.2H5.3V101.1L5.3,101.1z M51,101.1h24.4V89.3h-9.5
		V59h9.5V47.3h-9.5V25.1h9.5V13.2H51V101.1L51,101.1z M89,101.1h16.9l5.3-47.8l5.4,47.8h16l7.8-87.9h-13.1l-3.4,48.1l-3.2-48.1
		h-19.1l-3.3,48.1l-3.2-48.1H80.3L89,101.1L89,101.1z"/>
	<path class="st0" d="M171.1,89.8l0.1-64.7c0.1,0,0.4,0,0.7,0c3.7,0,4.5,0.9,4.5,5.4v54.6c0,4-0.5,4.8-4,4.8
		C172.1,89.8,171.7,89.8,171.1,89.8L171.1,89.8z M156.2,101.5h19c13.1,0,16.1-2.9,16.1-15.3V29.5c0-13.3-2.8-16-16.4-16h-18.8
		L156.2,101.5L156.2,101.5z M199.7,101.5h15.1v-88h-15.1V101.5L199.7,101.5z M238.7,52V25.4h2c2.5,0,3.2,1.1,3.2,5.2v15.9
		c0,5-0.5,5.8-3.8,5.8C239.5,52.2,239.1,52.2,238.7,52L238.7,52z M223.7,101.5h14.9V64.2c0.5-0.1,0.9-0.1,1.3-0.1
		c3,0,3.8,0.9,3.8,4.5v32.9h15.1V69.1c0-6.2-1.7-9.2-6.3-10.8c5.3-2.9,6.3-4.8,6.3-12V30.6c0-14-2.8-17.2-15.1-17.2h-20.1
		L223.7,101.5L223.7,101.5z M267.5,101.5h24.4V89.6h-9.5V59.3h9.5V47.6h-9.5V25.4h9.5V13.5h-24.4V101.5L267.5,101.5z M334.6,64.7
		h-14.9v20.7c0,2.9-0.9,4.2-2.8,4.2s-2.5-1.2-2.5-4.4V29.5c0-3.4,0.7-4.5,2.8-4.5c1.9,0,2.5,1.2,2.5,4.6V44h14.9V27.5
		c0-11.8-3.3-14.3-18.4-14.3c-13.7,0-16.9,2.9-16.9,16v56.7c0,13.3,3,15.7,18.5,15.7c12.7,0,16.8-3.2,16.8-13.3V64.7L334.6,64.7z
		 M346.9,101.5h15.1V25.6h8.2V13.5h-31.4v12.2h8.2L346.9,101.5L346.9,101.5z M394,85.3c0,2.9-0.9,4.4-2.6,4.4
		c-1.9,0-2.6-1.3-2.6-4.4V29.6c0-3.3,0.8-4.6,2.5-4.6c2,0,2.8,1.5,2.8,4.8L394,85.3L394,85.3z M373.7,85.3c0,9.9,1.7,13.6,6.9,15.5
		c1.9,0.7,5.8,0.8,12.2,0.8c13.2,0,16.1-2.8,16.1-16.3V27.6c0-11.6-3.3-14.4-17.2-14.4c-14.8,0-18,2.8-18,15.5L373.7,85.3
		L373.7,85.3z M430.4,52V25.4h2c2.5,0,3.2,1.1,3.2,5.2v15.9c0,5-0.5,5.8-3.8,5.8C431.2,52.2,430.8,52.2,430.4,52L430.4,52z
		 M415.5,101.5h14.9V64.2c0.5-0.1,0.9-0.1,1.3-0.1c3,0,3.8,0.9,3.8,4.5v32.9h15.1V69.1c0-6.2-1.7-9.2-6.3-10.8
		c5.3-2.9,6.3-4.8,6.3-12V30.6c0-14-2.8-17.2-15.1-17.2h-20.1V101.5L415.5,101.5z M457.2,65.5v23.1c0,10.8,3.3,12.9,19.4,12.9
		c11.4,0,15.5-3.3,15.5-12.8V65.5c0-5.9-1.2-8.3-5.7-11.1l-12.2-7.7c-2-1.2-2.2-1.6-2.2-4.5V29.5c0-3,0.8-4.4,2.6-4.4
		c1.9,0,2.6,1.3,2.6,4.5v14.5h14.8V27.5c0-11.6-3.4-14.3-19-14.3c-13.1,0-15.9,2.6-15.9,14.9v14.8c0,7.1,1.5,9.6,7.5,13.3l9.5,5.5
		c2,1.3,2.4,1.6,2.9,2.5c0.1,0.4,0.1,0.4,0.1,1.1c0,0.4,0,1.6,0,3.4v16.5c0,3.3-0.7,4.4-2.6,4.4c-1.9,0-2.6-1.2-2.6-4.5V65.5H457.2
		L457.2,65.5z"/>
</g>
</svg>
