<?xml version="1.0" encoding="utf-8"?>
<!-- Generator: Adobe Illustrator 19.2.1, SVG Export Plug-In . SVG Version: 6.00 Build 0)  -->
<svg version="1.1" id="Layer_1" xmlns="http://www.w3.org/2000/svg" xmlns:xlink="http://www.w3.org/1999/xlink" x="0px" y="0px"
	 viewBox="0 0 443.1 154.1" style="enable-background:new 0 0 443.1 154.1;" xml:space="preserve">
<style type="text/css">
	.st0{fill-rule:evenodd;clip-rule:evenodd;fill:#FFFFFF;}
</style>
<g>
	<path class="st0" d="M273.4,0h-24.7l-40.2,58.7L168,0h-63.6v94.1L61,0H0c5.5,5.5,9.5,11.7,9.5,22.6l0,108.9c0,10.9-4,17-9.5,22.6
		h48.7V59.2l45,94.9h59c-5.5-5.5-9.1-11.7-9.1-22.6l0-93.7l44.7,58.8l0,34.9c0,10.9-3.6,17-9.1,22.6h58.1
		c-5.5-5.5-9.1-11.7-9.1-22.6V96.6l45.2-58.8V0"/>
	<path class="st0" d="M273.4,37.8v93.7c0,10.9-3.6,17-9.2,22.6H324c-5.5-5.5-9.1-11.7-9.1-22.6V37.8H273.4"/>
	<path class="st0" d="M314.8,37.8h44.7v93.7c0,10.9-3.6,17-9.1,22.6h58.1c-5.5-5.5-9.1-11.7-9.1-22.6V37.8h21.2
		c10.9,0,17,3.7,22.6,9.2V0H314.8V37.8"/>
</g>
</svg>
