<?xml version="1.0" encoding="utf-8"?>
<!-- Generator: Adobe Illustrator 19.2.1, SVG Export Plug-In . SVG Version: 6.00 Build 0)  -->
<svg version="1.1" id="Layer_1" xmlns="http://www.w3.org/2000/svg" xmlns:xlink="http://www.w3.org/1999/xlink" x="0px" y="0px"
	 viewBox="0 0 750.4 189.2" style="enable-background:new 0 0 750.4 189.2;" xml:space="preserve">
<style type="text/css">
	.st0{fill:#FFFFFF;}
</style>
<path class="st0" d="M465.5,189.2l2.4-1.2l6.1-9.2l4.3-8.6l10.4-15.3l2.4-2.4c3.7,3.7,9.2,6.1,16.5,6.7c9.8-1.2,18.9-4.3,26.3-10.4
	l9.8-6.7l9.2-11l9.8-19V111c1.8-4.9,1.8-9.2,0-14.1l-3-3.7l-3.1-2.4l-4.3-2.4l-6.1-1.2l-8.6,1.2c-4.3,1.2-8.6,3.7-11.6,6.1l-2.4,1.2
	v-1.2l2.4-6.1h-16.5c-1.8,0-2.4,0-2.4,1.2l-3.7,7.3l-53.2,89.3l-0.6,3.1l7.9-1.2L465.5,189.2L465.5,189.2z M516.2,111
	c3.7-5.5,8.6-10.4,15.9-14.1l9.8-3.7c2.4,0,3.7,1.2,4.3,2.4l2.4,4.9l-3.7,11.6l-1.2,1.2l-1.8,4.3l-9.8,15.9l-7.9,9.2l-12.2,9.2
	l-9.8,1.8l-5.5-4.9L496,144l0.6-3.1l1.8-3.7l1.8-2.4l1.8-2.4C506.4,125,510.7,117.7,516.2,111L516.2,111z"/>
<path class="st0" d="M158.6,10.7c-7.3-6.7-17.7-9.8-30-9.8c-16.5,0-33,4.3-50.7,13.4C59.5,22.9,43,35.2,28.9,50.5
	C14.3,66.4,5.1,85.3,0.8,107.3C-1,122,0.2,134.2,5.1,143.4c4.9,9.2,10.4,16.5,17.7,21.4c7.3,4.9,14.1,7.3,19.6,7.9
	c26.9,3.1,48.9-1.2,68.5-12.8c19-11,34.2-25.7,45.9-44.6c11-18.9,17.7-37.3,20.8-56.3c1.2-8.6,0.6-17.1-2.4-26.3
	C172,24.2,167.1,16.8,158.6,10.7L158.6,10.7z M41.2,73.7c9.8-17.1,22-32.4,36.7-44.6c14.1-12.2,30-19,47.1-19.6
	c12.2,1.2,19.6,6.1,23.8,14.1c3.7,8.6,5.5,15.9,4.9,22.6c0,8.6-3.1,19.6-9.2,33c-4.9,14.1-12.2,28.1-22,41.6s-20.8,24.5-33.6,33
	c-12.2,8.6-26.9,11.6-42.2,10.4c-8.6-1.8-14.1-4.9-17.1-11.6c-3.1-6.1-4.9-12.2-5.5-18.9l0.6-12.8C26.5,106.1,32,90.8,41.2,73.7
	L41.2,73.7z"/>
<path class="st0" d="M610.4,70.6l4.9,3.1c5.5,0,10.4-1.8,13.5-4.9l2.4-5.5l-1.8-4.9c-1.2-1.2-2.4-1.8-3.1-1.8h-4.9
	c-4.3,0.6-7.3,2.4-9.2,4.9C610.4,64.5,609.2,67.6,610.4,70.6L610.4,70.6z"/>
<path class="st0" d="M493.6,9.5l-1.8-1.2l-7.3-3.1l-8.6-3.1c-15.3-3.1-30-3.1-44,1.2C427,4,422.1,5.2,418.4,7
	c-5.5,1.8-9.8,4.3-14.1,7.3l-8.6,7.3l-4.9,9.8c-1.8,3.1-1.8,6.1-1.8,10.4l3.1,7.9l4.3,9.8l5.5,7.3l20.2,20.2l1.2,2.4l9.8,9.8
	l11.6,17.7l2.4,4.9l1.2,6.7l-1.2,6.7l-1.2,4.3l-3.1,6.1l-3.1,3.7l-9.2,6.7l-5.5,2.4l-3,1.8l-7.3,3.1l-10.4,2.4l-19.6,0.6
	c-8.6-1.2-17.1-3.7-24.5-7.3c-6.7-4.3-11-9.2-12.8-14.7l-1.2-6.1v-9.8c1.2-4.9,3.7-9.2,7.3-15.3l7.3-7.3c4.9-4.3,9.2-7.3,14.1-9.2
	c4.3-2.4,9.8-4.3,15.3-6.1c1.2-0.6,1.2-1.2,0.6-2.4h-4.3H378l-15.3,4.3c-4.9,1.8-9.8,4.3-14.1,7.3l-9.8,7.3
	c-4.3,3.7-7.3,7.9-9.2,12.2l-3.7,10.4v6.1l1.2,6.1l4.3,8.6l9.8,9.2l9.8,6.1l23.2,6.7l34.2-1.2l18.9-3.7l1.8-0.6
	c9.2-3.1,17.7-7.3,25.1-12.2l11.6-12.8c3-4.3,5.5-9.2,6.1-14.1l1.2-5.5l-3.7-14.7l-4.9-7.3c-4.9-7.9-11.6-16.5-20.2-24.5l-2.4-2.4
	l-9.2-7.9l-14.7-15.9l-0.6-1.8l-2.4-3.7l-3.7-9.2c0-4.3,0-7.3,1.2-10.4l1.8-1.8l3.7-4.3l4.9-4.3l3.7-1.8l9.2-3.7l19-2.4h4.9l9.8,1.8
	l12.8,7.3l4.3,6.1l1.8,3.7v1.8v5.5l-1.2,4.9l-4.9,6.1l-7.3,7.3l-7.9,4.3v1.8h7.3l2.4-0.6c2.4-1.2,4.3-1.8,5.5-2.4l12.2-5.5l1.2-1.2
	l1.8-1.2l3.1-3.1l3.1-4.3l2.4-5.5c0.6-5.5,0-9.2-1.2-12.2C502.8,16.2,499.1,12.5,493.6,9.5L493.6,9.5z"/>
<path class="st0" d="M616.5,87.1h-20.2l-26.9,47.1l-3.7,7.9c-0.6,3.1-0.6,6.1,0,8.6c1.2,3.7,4.3,5.5,9.2,7.3l17.7-4.3l9.8-5.5
	l2.4-2.4l7.3-5.5l1.2,0.6c0.6,5.5,3.7,9.8,9.8,13.5c6.1,3,13.5,3.7,20.8,2.4l6.7-1.8l2.4-0.6l8.6-3.7l16.5-11.6l1.8,1.8l0.6,4.3
	l1.2,2.4c3.1,6.1,9.8,9.2,19,10.4h7.9l6.1-1.8c14.1-5.5,24.5-12.2,31.2-20.8l2.4-4.3l-2.4-0.6L729,145.2c-4.3,2.4-9.2,4.9-15.3,6.7
	h-9.2c-3.7-1.2-5.5-3.7-6.1-6.1v-8.6l1.2-4.3l5.5-12.2l11.6-18.3l7.3-7.9c3.1-3.1,5.5-4.3,8.6-4.9c2.4,0.6,3.7,1.8,3.7,3.1v5.5
	l-3.7,8.6l-3.1,3.7l-8.6,8.6l-9.2,3.7h-2.4c-1.2,0.6-1.8,1.2-1.8,1.8l3.7,1.2l3.7-0.6c14.1-2.4,25.1-8.6,31.8-17.7
	c1.8-3.1,3-6.1,3.7-9.2v-2.4c0-4.3-3-7.3-9.2-9.8l-3.7-0.6h-3.1c-7.3,0.6-14.7,3.1-20.8,7.3l-4.3,2.4L696,106.7l-11.6,15.9l-3.7,7.3
	l-0.6,0.6l-13.5,11c-5.5,4.3-11.6,6.7-17.1,7.9h-10.4c-3.1-1.2-5.5-3.7-6.1-7.3l-0.6-4.9l0.6-3.1v-2.4l2.4-4.9l9.8-16.5
	c4.9-7.3,12.2-14.7,22.6-20.2l6.7-0.6l3.7,3.1v2.4c0.6,1.8,0,3.7-3.1,6.1l-11,6.1l-1.8,0.6l-1.8,1.2l3.7,1.2h6.7l7.3-1.2
	c6.1-3.1,9.2-6.1,9.2-10.4v-3.1l-4.3-6.7c-2.4-1.8-5.5-2.4-8.6-3.1H666c-5.5,0.6-9.8,2.4-14.1,3.7l-3.1,1.8
	c-6.1,3.7-11,7.3-15.9,12.2c-7.9,8.6-14.1,17.1-18.3,26.3l-4.9,6.7l-18.9,12.2h-4.9c-1.2-1.8-1.8-4.3-1.2-5.5l5.5-11.6L616.5,87.1
	L616.5,87.1z"/>
<path class="st0" d="M324.9,46.8H312l-7.3,1.2l-25.1,41.6l-2.4,3.1l-2.4-3.1c-1.8-1.8-4.9-3.1-9.2-4.3l-6.7,0.6l-1.8,0.6
	c-8.6,2.4-15.9,5.5-22.6,10.4l-15.9,13.4c-4.9,6.1-8.6,13.5-11.6,20.8l-1.8,4.9l-2.4,2.4c-4.3,3.7-9.8,6.7-16.5,9.2l-6.7,1.2
	l-1.8-3.1l4.3-11.6l51.4-87.4h-19.6L161,137.3l-3.1,7.9c0,3.1,0,6.1,1.2,8.6c1.8,2.4,3.7,3.7,7.9,4.3h2.4l16.5-4.3l19-11l0.6,1.8
	l3.1,7.3c3.7,4.3,8.6,6.1,15.9,6.1l15.3-4.3l6.7-4.9l4.9-5.5l1.2,2.4v4.9l2.4,4.3c1.8,1.8,3.7,3.1,6.7,3.1h6.1l10.4-4.3
	c9.2-4.9,15.9-10.4,20.8-16.5l0.6-2.4h-2.4l-15.9,11.6l-3.7,2.5l-3.1,1.2l-4.3-0.6c-1.2-1.8-1.8-3.7-1.2-6.1v-2.4l55-92.9
	L324.9,46.8L324.9,46.8z M233.1,117.7l12.2-15.3l8.6-7.9c3.1-1.8,6.1-3.1,11-3.7l4.3,1.2l3.1,6.1l-3.1,10.4l-16.5,25.7l-8.6,9.8
	l-6.1,4.9l-9.2,3.7c-2.4,0.6-4.9,0-6.1-1.8c-1.2-1.8-1.2-4.9-1.2-7.9l0.6-4.3l4.3-11l1.2-1.8L233.1,117.7L233.1,117.7z"/>
</svg>
