<?xml version="1.0" encoding="utf-8"?>
<!-- Generator: Adobe Illustrator 19.2.1, SVG Export Plug-In . SVG Version: 6.00 Build 0)  -->
<svg version="1.1" id="Layer_1" xmlns="http://www.w3.org/2000/svg" xmlns:xlink="http://www.w3.org/1999/xlink" x="0px" y="0px"
	 viewBox="0 0 451.8 192.9" style="enable-background:new 0 0 451.8 192.9;" xml:space="preserve">
<style type="text/css">
	.st0{fill:#FFFFFF;}
</style>
<g>
	<g>
		<path class="st0" d="M49.4,99.9L34.5,73H22.7v26.9H6.6V24.3H42c15.8,0,25.4,10.3,25.4,24.4c0,13.4-8.4,20.5-16.6,22.5l17,28.8
			H49.4z M51,48.6c0-6.4-4.9-10.2-11.3-10.2H22.7v20.4h16.9C46.1,58.9,51,55,51,48.6z"/>
		<path class="st0" d="M138.5,99.9l-4.6-12.8h-32.4l-4.8,12.8H78.3l29.3-75.6h20.2l29.1,75.6H138.5z M117.7,40.4l-11.8,32.5h23.6
			L117.7,40.4z"/>
		<path class="st0" d="M170.7,99.9V24.3h16.1v75.6H170.7z"/>
		<path class="st0" d="M203.5,89.2l8.7-12.2c5.3,5.6,13.6,10.2,24,10.2c8.8,0,13.2-4.1,13.2-8.4c0-13.4-43.5-4.2-43.5-32.7
			c0-12.6,10.9-23,28.7-23c12,0,22,3.6,29.5,10.5l-9,11.8c-6.1-5.7-14.3-8.3-22-8.3c-6.9,0-10.8,3.1-10.8,7.6c0,12,43.4,4,43.4,32.2
			c0,13.8-9.9,24.3-30.3,24.3C221,101.3,210.5,96.4,203.5,89.2z"/>
		<path class="st0" d="M283.5,99.9V24.3H337v14.2h-37.4v16h36.6v14.2h-36.6v17.1H337v14.2H283.5z"/>
		<path class="st0" d="M4.8,164.6v-27H0v-4.3h14.5v4.3H9.7v27H4.8z"/>
		<path class="st0" d="M32.3,164.6v-13.9h-6.6v13.9h-4.9v-31.3h4.9v13h6.6v-13h4.9v31.3H32.3z"/>
		<path class="st0" d="M45.4,164.6v-31.3h12.8v4.3h-7.9v8.9h7.6v4.3h-7.6v9.5h7.9v4.3H45.4z"/>
		<path class="st0" d="M134.6,191.4l-13.3-51.9l-13.2,51.9H91.1l-21.7-75.6h18l13.3,54.7l14.4-54.7h12.6l14.3,54.7l13.2-54.7h18.1
			l-21.5,75.6H134.6z"/>
		<path class="st0" d="M234.9,191.4l-4.6-12.8h-32.4l-4.8,12.8h-18.4l29.3-75.6h20.2l29.1,75.6H234.9z M214,131.9l-11.8,32.5h23.6
			L214,131.9z"/>
		<path class="st0" d="M259.6,153.7c0-23.9,18.1-39.1,40.3-39.1c15.8,0,25.6,7.9,31.3,16.9l-13.4,7.3c-3.4-5.3-9.9-9.9-17.9-9.9
			c-13.7,0-23.7,10.5-23.7,24.8c0,14.3,10,24.8,23.7,24.8c6.7,0,13-2.9,16.1-5.8v-9.1h-20v-14.1H332v29
			c-7.7,8.6-18.5,14.3-32.2,14.3C277.7,192.9,259.6,177.5,259.6,153.7z"/>
		<path class="st0" d="M351.7,191.4v-75.6h53.5V130h-37.4v16h36.6v14.2h-36.6v17.1h37.4v14.2H351.7z"/>
	</g>
	<rect x="4.8" y="177.7" class="st0" width="53.3" height="14"/>
	<path class="st0" d="M402.5,0c-27.2,0-49.3,22.1-49.3,49.3s22.1,49.3,49.3,49.3s49.3-22.1,49.3-49.3S429.7,0,402.5,0z M417.6,79.5
		L410.4,51l-2.2-8.8l-0.2,0.1l-9,2.3l-28.4,7.2l9.2-15.4l25.1-6.3l0.2-0.1l0-0.1l12.3-3.1l3.1,12.3l6.3,25.1L417.6,79.5z"/>
</g>
</svg>
