<?xml version="1.0" encoding="utf-8"?>
<!-- Generator: Adobe Illustrator 19.2.1, SVG Export Plug-In . SVG Version: 6.00 Build 0)  -->
<svg version="1.1" id="Layer_1" xmlns="http://www.w3.org/2000/svg" xmlns:xlink="http://www.w3.org/1999/xlink" x="0px" y="0px"
	 viewBox="0 0 1480 192.6" style="enable-background:new 0 0 1480 192.6;" xml:space="preserve">
<style type="text/css">
	.st0{fill:#FFFFFF;}
</style>
<g>
	<path class="st0" d="M134.6,131.5h-27l-10.2,58.3H69.4l10.2-58.3H57.8l-10.2,58.3H19.9l10.2-58.3H0l4.8-27.6h30.4L39,82.2H9.1
		l4.8-27.6h29.9L53.5,0h27.6l-9.7,54.6h21.6L102.7,0h28.2l-9.7,54.6h26.2l-4.8,27.6h-26.2l-3.7,21.6h26.7L134.6,131.5z M66.6,82.2
		l-3.7,21.6h21.6l3.7-21.6H66.6z"/>
	<path class="st0" d="M280.9,37.6h-47v152.2h-45V37.6h-47.2V0h139.2V37.6z"/>
	<path class="st0" d="M337.5,189.8c-1.7-9.1-2-10.8-2-18.2c0-0.3,0-2,0.3-3.7c-13.7,18.5-24.8,24.8-45,24.8
		c-26.7,0-44.1-15.4-44.1-39.3c0-19.9,11.1-34.7,31.3-42.4c11.1-4,24.2-6.3,55.8-8.8v-8c0-13.7-6.8-20.5-20.8-20.5
		c-13.7,0-22.2,7.1-23.9,20.5L251,90.5c2.8-15.1,7.1-22.8,15.9-29.6c12.2-9.4,29.6-14.2,50.1-14.2c22.8,0,41.3,6.5,50.4,17.6
		c6,7.7,7.7,15.1,7.7,35.9v63.5c0,16.8,0,16.8,2.6,26.2H337.5z M333.8,122.6c-12.8,1.4-17.9,2.3-25,4.8c-12.2,4-18.5,11.1-18.5,21.3
		c0,10.5,7.1,17.9,17.6,17.9c14.8,0,25.9-13.7,25.9-31.3V122.6z"/>
	<path class="st0" d="M518.5,137.2c-2,15.1-4.8,22.5-12,31.6c-12,15.9-29.6,23.9-52.4,23.9c-40.4,0-67.2-28.7-67.2-72
		c0-44.4,27.9-74,69.4-74c20.2,0,35.9,6.5,47.5,19.6c9.1,10.2,12.5,18.5,14.5,34.4l-38.7,2.3c-2-17.6-8.5-25.3-21.9-25.3
		c-16.8,0-24.5,13.1-24.5,41.5c0,28.2,6.8,39.8,23.3,39.8c13.1,0,20.5-7.7,23-24.2L518.5,137.2z"/>
	<path class="st0" d="M667,189.8h-45.8l-29.3-63.7l-24.2,27.9v35.9h-39V0h39v113.8c2.8-3.4,5.1-6.5,6-7.7c3.7-4.6,6-7.7,6.5-8.3
		l41-48.4h40.4L621.2,97L667,189.8z"/>
	<path class="st0" d="M675,0h41.3v189.8H675V0z"/>
	<path class="st0" d="M769.2,126.6c-0.3,2.3-0.3,5.4-0.3,6.5c0,18.2,10.8,30.2,27,30.2c13.7,0,22.2-7.7,25-21.9l37.6,2.6
		c-4.8,14.8-8.5,21.3-16.2,29.6c-12.2,13.1-27.3,19.1-47.8,19.1c-41.5,0-69.1-28.7-69.1-71.7c0-43.8,27.6-74.3,67.7-74.3
		c23.3,0,44.4,11.4,54.9,29.6c8.3,13.9,11.1,25.6,11.4,50.4H769.2z M818.7,102.4c-1.7-20.2-8.5-28.7-23.6-28.7
		c-15.7,0-23.9,9.1-25.9,28.7H818.7z"/>
	<path class="st0" d="M915.7,36.1v39h71.1v35.6h-71.1v41.5h90.5v37.6H870.5V0h135.7v36.1H915.7z"/>
	<path class="st0" d="M1058.9,67.2c9.1-14.8,18.5-20.5,34.7-20.5c32.2,0,52.4,27.9,52.4,72.3c0,46.4-21.1,73.7-56.6,73.7
		c-19.3,0-28.7-5.7-40.7-24.5c-3.4,4.8-4,6.3-6.8,14.8c-1.1,3.7-1.7,5.7-2.3,6.8h-21.9V0h41.3V67.2z M1058.9,134.3
		c0,18.5,8.3,29.6,21.3,29.6c8.5,0,16.2-5.7,19.3-14.5c2.8-7.1,4-16.8,4-29.9c0-13.9-1.1-23.9-3.1-30.7
		c-2.8-8.5-10.8-14.5-19.6-14.5c-13.7,0-21.9,12.8-21.9,33V134.3z"/>
	<path class="st0" d="M1287.7,120.1c0,43-27.9,72.6-68,72.6c-21.1,0-36.4-6.8-48.9-21.3c-12-14.2-17.4-30.4-17.4-52.6
		c0-43,26.7-72,66.3-72C1260.6,46.7,1287.7,75.7,1287.7,120.1z M1196.9,116.1c0,35,6.8,49.5,23.6,49.5c16.2,0,23.6-13.7,23.6-44.7
		c0-34.1-6.5-47.2-23.3-47.2C1204,73.7,1196.9,86.2,1196.9,116.1z"/>
	<path class="st0" d="M1296.5,0h41.3v189.8h-41.3V0z"/>
	<path class="st0" d="M1439.9,189.8c-1.7-9.1-2-10.8-2-18.2c0-0.3,0-2,0.3-3.7c-13.7,18.5-24.8,24.8-45,24.8
		c-26.7,0-44.1-15.4-44.1-39.3c0-19.9,11.1-34.7,31.3-42.4c11.1-4,24.2-6.3,55.8-8.8v-8c0-13.7-6.8-20.5-20.8-20.5
		c-13.7,0-22.2,7.1-23.9,20.5l-38.1-3.7c2.8-15.1,7.1-22.8,15.9-29.6c12.2-9.4,29.6-14.2,50.1-14.2c22.8,0,41.3,6.5,50.4,17.6
		c6,7.7,7.7,15.1,7.7,35.9v63.5c0,16.8,0,16.8,2.6,26.2H1439.9z M1436.2,122.6c-12.8,1.4-17.9,2.3-25,4.8
		c-12.2,4-18.5,11.1-18.5,21.3c0,10.5,7.1,17.9,17.6,17.9c14.8,0,25.9-13.7,25.9-31.3V122.6z"/>
</g>
</svg>
