<?xml version="1.0" encoding="utf-8"?>
<!-- Generator: Adobe Illustrator 19.2.1, SVG Export Plug-In . SVG Version: 6.00 Build 0)  -->
<svg version="1.1" id="Layer_1" xmlns="http://www.w3.org/2000/svg" xmlns:xlink="http://www.w3.org/1999/xlink" x="0px" y="0px"
	 viewBox="0 0 749 175.2" style="enable-background:new 0 0 749 175.2;" xml:space="preserve">
<style type="text/css">
	.st0{fill:#FFFFFF;}
</style>
<g>
	<g>
		<path class="st0" d="M49.6,23.4v148.9H28.5V23.4H0V3.7h77.4v19.7H49.6z"/>
		<path class="st0" d="M154,172.3V97.8h-38v74.5H94.9V3.7h21.2v75.2h38V3.7h21.2v168.6H154z"/>
		<path class="st0" d="M193.5,172.3V3.7h65.7v19h-45.3v52.6h32.9v18.3h-32.9v59.1h45.3v19h-65.7V172.3z"/>
		<path class="st0" d="M336.5,22.6v55.5h33.6v18.3h-33.6v75.9h-21.2V3.7h65v19H336.5z"/>
		<path class="st0" d="M399.3,172.3V3.7H465v19h-45.3v52.6h32.9v18.3h-32.9v59.1H465v19h-65.7V172.3z"/>
		<path class="st0" d="M547.5,172.3l-6.6-38.7H511l-7.3,38.7H484L515.4,3.7h21.9l31.4,168.6H547.5z M526.3,42.3l-11.7,72.3H538
			L526.3,42.3z"/>
		<path class="st0" d="M621.2,175.2c-24.1,0-39.4-15.3-39.4-38v-15.3h20.4v13.1c0,13.9,6.6,21.9,18.3,21.9c12.4,0,18.3-8,18.3-19.7
			c0-15.3-6.6-27-23.4-42.3c-15.3-13.9-32.1-32.9-32.1-55.5S596.4,0,621.2,0c22.6,0,37.2,15.3,37.2,38v15.3h-19.7V40.2
			c0-13.1-5.8-21.9-18.3-21.9c-11,0-16.8,6.6-16.8,17.5c0,16.8,6.6,26.3,26.3,43.8c19.7,17.5,29.9,33.6,29.9,54
			C660.7,161.3,642.4,175.2,621.2,175.2z"/>
		<path class="st0" d="M720.5,23.4v148.9h-21.2V23.4h-27.7V3.7H749v19.7H720.5z"/>
	</g>
</g>
</svg>
