<svg id="Layer_1" data-name="Layer 1" xmlns="http://www.w3.org/2000/svg" xmlns:xlink="http://www.w3.org/1999/xlink" width="657.63" height="142.25" viewBox="0 0 657.63 142.25"><defs><style>.cls-1{fill:none;}.cls-2{clip-path:url(#clip-path);}.cls-3{fill:#fee600;}</style><clipPath id="clip-path" transform="translate(-0.06 -0.69)"><rect class="cls-1" x="0.06" y="0.69" width="657.63" height="142.25"/></clipPath></defs><title>logo-tackle-ebola</title><g class="cls-2"><rect class="cls-3" width="657.63" height="142.25"/></g><path d="M83.52,86.09h-11l-4.15,23.64H57.11l4.15-23.64H52.38l-4.15,23.64H37L41.2,86.09H29l2-11.19H43.28l1.5-8.76H32.67l2-11.18H46.73l3.92-22.14H61.84L57.92,55h8.76L70.6,32.81H82L78.1,55H88.71l-2,11.18H76.14l-1.5,8.76H85.48l-2,11.19M56,66.14l-1.5,8.76h8.76l1.5-8.76Z" transform="translate(-0.06 -0.69)"/><polyline points="142.73 47.34 123.7 47.34 123.7 109.03 105.48 109.03 105.48 47.34 86.34 47.34 86.34 32.12 142.73 32.12 142.73 47.34"/><path d="M165.74,109.72a29.92,29.92,0,0,1-.81-7.38,9.79,9.79,0,0,1,.12-1.5c-5.54,7.49-10,10-18.22,10C136,110.88,129,104.65,129,95c0-8.07,4.5-14.07,12.68-17.18,4.5-1.61,9.8-2.54,22.6-3.57V71c0-5.54-2.77-8.3-8.42-8.3s-9,2.88-9.69,8.3l-15.45-1.5c1.15-6.11,2.88-9.22,6.46-12,5-3.81,12-5.76,20.29-5.76,9.23,0,16.72,2.65,20.41,7.15C180.27,62,181,65,181,73.4V99.12c0,6.8,0,6.8,1,10.61H165.74m-1.5-27.21c-5.19.58-7.26.92-10.15,2-5,1.62-7.5,4.5-7.5,8.65a6.87,6.87,0,0,0,7.15,7.26c6,0,10.49-5.53,10.49-12.68Z" transform="translate(-0.06 -0.69)"/><path d="M239.07,88.39c-.81,6.11-2,9.11-4.84,12.8-4.84,6.46-12,9.69-21.22,9.69-16.37,0-27.21-11.65-27.21-29.17,0-18,11.3-30,28.14-30,8.19,0,14.53,2.65,19.26,8,3.69,4.15,5.07,7.5,5.88,14l-15.68.92c-.81-7.15-3.46-10.26-8.88-10.26-6.8,0-9.92,5.3-9.92,16.84s2.77,16.14,9.46,16.14c5.3,0,8.3-3.11,9.34-9.8l15.68.92" transform="translate(-0.06 -0.69)"/><path d="M299.27,109.72H280.7L268.83,83.9,259,95.2v14.53h-15.8V32.81H259V78.94c1.15-1.38,2.08-2.65,2.42-3.11,1.5-1.85,2.42-3.11,2.65-3.34l16.61-19.6h16.37L280.7,72.13l18.57,37.59" transform="translate(-0.06 -0.69)"/><rect x="302.44" y="32.12" width="16.72" height="76.91"/><path d="M340.67,84.13a24.32,24.32,0,0,0-.11,2.65c0,7.38,4.38,12.22,11,12.22,5.54,0,9-3.11,10.15-8.88l15.22,1c-2,6-3.46,8.65-6.57,12-5,5.3-11.07,7.73-19.37,7.73-16.83,0-28-11.65-28-29.06,0-17.76,11.19-30.1,27.45-30.1,9.46,0,18,4.61,22.25,12,3.34,5.65,4.5,10.38,4.61,20.41H340.67m20.06-9.8c-.69-8.19-3.46-11.65-9.57-11.65-6.34,0-9.68,3.69-10.49,11.65Z" transform="translate(-0.06 -0.69)"/><polyline points="399.99 46.77 399.99 62.56 428.82 62.56 428.82 76.98 399.99 76.98 399.99 93.81 436.66 93.81 436.66 109.03 381.66 109.03 381.66 32.12 436.66 32.12 436.66 46.77 399.99 46.77"/><path d="M458.05,60c3.69-6,7.5-8.3,14.07-8.3,13,0,21.22,11.3,21.22,29.29,0,18.79-8.53,29.87-22.95,29.87-7.84,0-11.65-2.31-16.49-9.92-1.38,2-1.61,2.54-2.77,6a24.12,24.12,0,0,1-.92,2.77h-8.88V32.81h16.72V60m0,27.21c0,7.49,3.34,12,8.65,12a8.45,8.45,0,0,0,7.84-5.88c1.15-2.88,1.61-6.8,1.61-12.11,0-5.65-.46-9.69-1.27-12.45a8.52,8.52,0,0,0-8-5.88c-5.54,0-8.88,5.19-8.88,13.38Z" transform="translate(-0.06 -0.69)"/><path d="M550.77,81.47c0,17.41-11.3,29.41-27.56,29.41-8.53,0-14.76-2.77-19.83-8.65-4.84-5.76-7-12.34-7-21.33,0-17.41,10.84-29.17,26.87-29.17,16.6,0,27.56,11.76,27.56,29.75M514,79.86c0,14.18,2.77,20.06,9.57,20.06,6.57,0,9.57-5.53,9.57-18.1,0-13.84-2.65-19.14-9.46-19.14S514,67.75,514,79.86Z" transform="translate(-0.06 -0.69)"/><rect x="554.28" y="32.12" width="16.72" height="76.91"/><path d="M612.46,109.72a30,30,0,0,1-.81-7.38,9.71,9.71,0,0,1,.12-1.5c-5.54,7.49-10,10-18.22,10-10.84,0-17.87-6.23-17.87-15.91,0-8.07,4.5-14.07,12.68-17.18,4.5-1.61,9.8-2.54,22.6-3.57V71c0-5.54-2.77-8.3-8.42-8.3s-9,2.88-9.69,8.3l-15.45-1.5c1.15-6.11,2.88-9.22,6.46-12,5-3.81,12-5.76,20.3-5.76,9.22,0,16.72,2.65,20.41,7.15C627,62,627.68,65,627.68,73.4V99.12c0,6.8,0,6.8,1,10.61H612.46M611,82.51c-5.19.58-7.27.92-10.15,2-5,1.62-7.49,4.5-7.49,8.65a6.87,6.87,0,0,0,7.15,7.26c6,0,10.49-5.53,10.49-12.68Z" transform="translate(-0.06 -0.69)"/></svg>