<svg id="Layer_1" data-name="Layer 1" xmlns="http://www.w3.org/2000/svg" width="266.53" height="160.51" viewBox="0 0 266.53 160.51"><defs><style>.cls-1{fill:#fff;}</style></defs><title>logo-fes</title><path class="cls-1" d="M137.14,106.92c-.19-1.24-1.2-3.35-4.44-3.35-2.22,0-3.65,1.39-3.65,2.86,0,1.28.79,2.22,2.63,2.56l3.57.68c5.08.94,7.71,4.21,7.71,8,0,4.17-3.5,8.42-9.85,8.42-7.37,0-10.53-4.78-10.91-8.54l5.46-1.32c.22,2.44,1.88,4.59,5.53,4.59,2.33,0,3.76-1.13,3.76-2.78,0-1.35-1.09-2.33-2.86-2.67l-3.65-.68c-4.51-.87-7.26-3.87-7.26-7.82,0-5,4.44-8.58,9.55-8.58,6.66,0,9.18,4,9.74,7.11Zm12.6,9.29a4.28,4.28,0,0,0,4.37,4.63,3.86,3.86,0,0,0,3.87-2.78l5,1.54a8.86,8.86,0,0,1-8.91,6.51,9.75,9.75,0,0,1-10-9.89,9.65,9.65,0,0,1,9.85-9.93c5.15,0,8.16,3.16,9,6.51l-5.11,1.54a3.68,3.68,0,0,0-3.76-2.78C151.66,111.54,149.74,113.2,149.74,116.21Zm20.42,9.33h-5.72V98.31h5.72V108a7,7,0,0,1,4.78-1.69c4.89,0,7.07,3.35,7.07,7.45v11.74h-5.72V114.78c0-1.84-1-3.23-3-3.23a3,3,0,0,0-3.08,3Zm33.1-9.37a9.93,9.93,0,1,1-9.93-9.89A9.67,9.67,0,0,1,203.25,116.17Zm-5.72,0c0-3.16-2-4.63-4.21-4.63s-4.21,1.47-4.21,4.63,2.07,4.66,4.21,4.66S197.54,119.33,197.54,116.17Zm26.63,0a9.93,9.93,0,1,1-9.93-9.89A9.67,9.67,0,0,1,224.16,116.17Zm-5.72,0c0-3.16-2-4.63-4.21-4.63S210,113,210,116.17s2.07,4.66,4.21,4.66S218.45,119.33,218.45,116.17Zm7.33,9.37V98.31h5.72v27.23Zm12-6.17a2.66,2.66,0,0,0,2.93,2.52c1.47,0,2.18-.79,2.18-1.62s-.45-1.24-1.84-1.54l-2.14-.49c-4-.87-5.57-3.12-5.57-5.75,0-3.42,3-6.21,7.19-6.21,5.41,0,7.3,3.38,7.48,5.56l-4.74.87a2.46,2.46,0,0,0-2.67-2.29,1.82,1.82,0,0,0-2,1.62c0,.79.64,1.24,1.47,1.39l2.48.49c3.87.79,5.75,3.12,5.75,5.87,0,3.2-2.45,6.32-7.45,6.32-5.87,0-7.75-3.8-7.9-5.87ZM124.12,92.94V66.28H141v5.6H130.07V77H140v5.23h-9.93V87.3h11v5.64ZM148,83.62l-6.54-9.37h6.73l3.35,5.12,3.27-5.12h6.39l-6.47,9.14c2.11,3,4.55,6.54,6.7,9.55h-6.7l-3.46-5.26c-1,1.5-2.41,3.72-3.42,5.26h-6.28Zm17.68,0a4.28,4.28,0,0,0,4.36,4.63A3.85,3.85,0,0,0,174,85.46L179,87a8.85,8.85,0,0,1-8.91,6.51,9.75,9.75,0,0,1-10-9.89,9.65,9.65,0,0,1,9.85-9.93c5.15,0,8.16,3.16,9,6.51l-5.12,1.54A3.68,3.68,0,0,0,170,79C167.63,79,165.72,80.61,165.72,83.62ZM198,87.56c-.9,3.24-3.87,5.94-8.61,5.94a9.52,9.52,0,0,1-9.74-10c0-6,4.48-9.85,9.33-9.85,5.79,0,9.37,3.57,9.37,9.59a11.4,11.4,0,0,1-.11,1.77h-13a4,4,0,0,0,4.25,3.61,3.61,3.61,0,0,0,3.76-2.45Zm-5.19-6.21c-.08-1.43-1.05-3.16-3.76-3.16a3.56,3.56,0,0,0-3.72,3.16ZM200,92.94V65.71h5.72V92.94Zm8.31,0V65.71H214V92.94Zm25.5-5.38c-.9,3.24-3.87,5.94-8.61,5.94a9.52,9.52,0,0,1-9.74-10c0-6,4.47-9.85,9.33-9.85,5.79,0,9.37,3.57,9.37,9.59A11.93,11.93,0,0,1,234,85H221a4,4,0,0,0,4.25,3.61A3.61,3.61,0,0,0,229,86.21Zm-5.19-6.21c-.08-1.43-1.05-3.16-3.76-3.16a3.56,3.56,0,0,0-3.72,3.16Zm12.86,11.58h-5.72V74.25h5.53v2.14a6.13,6.13,0,0,1,5.23-2.63c4.7,0,6.81,3.35,6.81,7.45V92.94h-5.72V82.19c0-1.84-1-3.24-3-3.24a3,3,0,0,0-3.08,3.27Zm21.44-18.69h3.65v5h-3.65v7c0,1.54.83,2,2.07,2a7.1,7.1,0,0,0,1.51-.19v4.74a6.81,6.81,0,0,1-3,.53c-3.87,0-6.24-2.29-6.24-6v-8h-3.31v-5h.94a2.74,2.74,0,0,0,2.89-3V68.8h5.12ZM130.33,46.47V60.35h-5.72V46.47h-3V41.66h3V40c0-4.29,2.6-7.22,7.15-7.22a6.86,6.86,0,0,1,2.71.41V37.9a6.35,6.35,0,0,0-1.69-.19,2.27,2.27,0,0,0-2.45,2.52v1.43h4.06v4.81ZM154.13,51a9.93,9.93,0,1,1-9.93-9.89A9.64,9.64,0,0,1,154.13,51Zm-5.71,0c0-3.16-2-4.63-4.21-4.63S140,47.83,140,51s2.07,4.66,4.21,4.66S148.42,54.15,148.42,51Zm19-3.69a7.77,7.77,0,0,0-1.8-.19c-2.29,0-4.36,1.35-4.36,5.08v8.16h-5.72V41.66h5.53v2.52c1-2.11,3.35-2.71,4.85-2.71a5.62,5.62,0,0,1,1.5.19ZM124.12,27.76V1.09h17.19V6.73H130.07v5.64H140v5.42H130.1v10Zm31.52-2.41a5.32,5.32,0,0,1-5,2.93c-5.49,0-9.29-4.18-9.29-9.93,0-5.57,3.57-9.85,9.1-9.85,3.35,0,4.81,1.84,5.19,2.71V9.06h5.53V24.41c0,1.73.11,2.93.15,3.35h-5.49a16.28,16.28,0,0,1-.15-2.22Zm-4.29-2c2.29,0,4.25-1.81,4.25-5s-1.92-4.93-4.25-4.93-4.29,1.69-4.29,4.93C147.06,21.48,149,23.36,151.35,23.36Zm11.81,4.4V9.06h5.45v2.14C169.55,9.55,172,8.5,174,8.5c2.67,0,4.59,1.09,5.53,2.94a6.41,6.41,0,0,1,5.79-2.94c3.54,0,6.92,2.07,6.92,7.15V27.76H186.7V16.92a2.83,2.83,0,0,0-3-3.16,3,3,0,0,0-3.12,3.2V27.76H175V16.92a2.84,2.84,0,0,0-3-3.16A3,3,0,0,0,168.88,17V27.76ZM197,0a3.35,3.35,0,1,1-3.31,3.35A3.36,3.36,0,0,1,197,0Zm-2.82,27.76V9.06h5.72V27.76Zm8,0V.53h5.72V27.76ZM212.86,0a3.35,3.35,0,1,1-3.31,3.35A3.36,3.36,0,0,1,212.86,0ZM210,27.76V9.06h5.72V27.76Zm25.32-5.38c-.9,3.23-3.87,5.94-8.61,5.94a9.52,9.52,0,0,1-9.74-10c0-6,4.48-9.85,9.33-9.85,5.79,0,9.36,3.57,9.36,9.59a11.68,11.68,0,0,1-.11,1.77h-13a4,4,0,0,0,4.25,3.61A3.61,3.61,0,0,0,230.58,21Zm-5.19-6.21c-.08-1.43-1.05-3.16-3.76-3.16a3.56,3.56,0,0,0-3.72,3.16Zm11.29,5.42a2.66,2.66,0,0,0,2.93,2.52c1.46,0,2.18-.79,2.18-1.62,0-.68-.45-1.24-1.85-1.54l-2.14-.49c-4-.87-5.56-3.12-5.56-5.75,0-3.42,3-6.21,7.18-6.21,5.42,0,7.3,3.39,7.49,5.57l-4.74.87a2.46,2.46,0,0,0-2.67-2.29,1.82,1.82,0,0,0-2,1.62c0,.79.64,1.24,1.47,1.39l2.48.49c3.87.79,5.76,3.12,5.76,5.87,0,3.2-2.45,6.32-7.45,6.32-5.87,0-7.75-3.8-7.9-5.87Zm-176.71,138,40.83-35a3.89,3.89,0,0,0,1.36-3v-35a3.89,3.89,0,0,0-6.42-3L66.11,113.17V88.42l39.47-33.83a3.89,3.89,0,0,0-5.06-5.91l-40.83,35a3.89,3.89,0,0,0-1.36,3v35a3.89,3.89,0,0,0,6.42,3L99.16,95.08v24.75L59.69,153.67a3.89,3.89,0,1,0,5.06,5.9ZM106.94,40A3.89,3.89,0,0,0,103,36.08a13.61,13.61,0,0,1,0-27.22,3.89,3.89,0,0,0,0-7.78,21.39,21.39,0,0,0,0,42.77A3.89,3.89,0,0,0,106.94,40ZM47.67,159.15a3.89,3.89,0,0,0-.42-5.48L19,129.49a3.89,3.89,0,1,0-5.06,5.9l28.21,24.18a3.89,3.89,0,0,0,5.48-.42Zm-.42-40.48L7.78,84.84V60.09L42.19,89.58a3.89,3.89,0,0,0,5.06-5.9l-40.83-35a3.89,3.89,0,0,0-6.42,3v70a3.89,3.89,0,0,0,7.78,0V95.08l34.41,29.49a3.89,3.89,0,1,0,5.06-5.9Zm-22-96.21A21.41,21.41,0,0,0,3.89,1.08a3.89,3.89,0,0,0,0,7.78,13.61,13.61,0,1,1,0,27.22,3.89,3.89,0,0,0,0,7.78A21.41,21.41,0,0,0,25.28,22.47Z"/></svg>