<svg id="Layer_1" data-name="Layer 1" xmlns="http://www.w3.org/2000/svg" xmlns:xlink="http://www.w3.org/1999/xlink" width="178.96" height="77.33" viewBox="0 0 178.96 77.33"><defs><style>.cls-1{fill:none;}.cls-2{clip-path:url(#clip-path);}.cls-3{fill:#fff;}</style><clipPath id="clip-path" transform="translate(0 -0.67)"><rect class="cls-1" y="0.67" width="178.96" height="77.27"/></clipPath></defs><title>logo-yale</title><g class="cls-2"><path class="cls-3" d="M59.54,16.91,41.31,47.62V68.28c2.1,5,7.4,5.63,12.48,5.85V77H18.12V74.13c5.08-.22,11.27-1,12.92-4.31V48.5L12.48,17.13C9.28,11.83,6.19,10.06,0,9.62V6.75H31V9.62c-5.85.33-7.73,1.44-9.39,2.76L38.88,42.21l16.9-29.72C54,11.17,51.7,10,45.84,9.62V6.75H72.36V9.62c-6,.22-9.72,2.21-12.81,7.29M95.78,78c-6,0-8.84-4.09-9.06-7C83,75,78.1,78,73.46,78c-6,0-11-3.64-11-9.94a17.32,17.32,0,0,1,2.32-8.84l22-8V43.09c0-5-2.32-9.72-7.29-9.72-3,0-5.86,3.65-6.08,9.28l-9.94,1.66V43.2C66.72,33.26,77.66,29.4,83,29.4c10.05,0,13.7,5.3,13.59,13.48l-.33,23.2c-.11,4.53,2.32,5.63,4.53,5.63,1.77,0,3.53-1.1,5.63-3.2v3.2C103.95,74.58,99.64,78,95.78,78ZM73.68,60a21.24,21.24,0,0,0-.77,5.74c0,3.31,1.88,6.63,5.52,6.63,3.31,0,5.19-1.1,8.18-3.42L86.72,54C83.85,55.35,76.78,58.45,73.68,60Zm33.69,17V74.46c5-.33,6.41-1.44,7.29-3.31V13.93c0-3.76-.55-5.3-8.18-6V5.75L126.71.67l.66,1.88-3.2,4V71.15c1.11,2.21,3.2,3,7.73,3.31V77Zm51,.88c-11.6,0-20.55-9.17-20.55-22,0-15.69,9.61-26.4,23.2-26.4,10.93,0,17,6.19,17,16v2l-29.83-.22a35.48,35.48,0,0,0-.33,5.63c0,11.27,7.07,18.67,16.46,18.67,5.63,0,8.51-2,12.92-5.74L179,68.39C172.66,74.13,167.47,77.89,158.41,77.89Zm1-45c-5.52,0-9.39,4.42-10.72,11.38l19.44-.22C168.13,38.23,164.49,32.93,159.4,32.93Z" transform="translate(0 -0.67)"/></g></svg>