<svg id="Layer_1" data-name="Layer 1" xmlns="http://www.w3.org/2000/svg" xmlns:xlink="http://www.w3.org/1999/xlink" width="760.68" height="70.54" viewBox="0 0 760.68 70.54"><defs><style>.cls-1{fill:#fff;}.cls-2{clip-path:url(#clip-path);}.cls-3{clip-path:url(#clip-path-2);}.cls-4{clip-path:url(#clip-path-3);}.cls-5{clip-path:url(#clip-path-4);}.cls-6{clip-path:url(#clip-path-5);}.cls-7{clip-path:url(#clip-path-6);}.cls-8{clip-path:url(#clip-path-7);}.cls-9{clip-path:url(#clip-path-8);}.cls-10{clip-path:url(#clip-path-9);}.cls-11{clip-path:url(#clip-path-10);}.cls-12{clip-path:url(#clip-path-11);}</style><clipPath id="clip-path" transform="translate(5 4.54)"><polyline class="cls-1" points="0 1.66 36.46 1.66 36.46 9.83 9.2 9.83 9.2 28.23 34.06 28.23 34.06 36.4 9.2 36.4 9.2 60.14 0 60.14 0 1.66"/></clipPath><clipPath id="clip-path-2" transform="translate(5 4.54)"><rect class="cls-1" x="58.48" y="1.66" width="9.2" height="58.48"/></clipPath><clipPath id="clip-path-3" transform="translate(5 4.54)"><polyline class="cls-1" points="91.88 1.66 101.09 1.66 101.09 51.97 126.89 51.97 126.89 60.14 91.88 60.14 91.88 1.66"/></clipPath><clipPath id="clip-path-4" transform="translate(5 4.54)"><polyline class="cls-1" points="148.17 0.46 148.6 0.46 177.16 33.4 205.36 0.46 205.79 0.46 205.79 60.14 197.11 60.14 197.11 22.21 177.16 46.04 176.73 46.04 156.86 22.21 156.86 60.14 148.17 60.14 148.17 0.46"/></clipPath><clipPath id="clip-path-5" transform="translate(5 4.54)"><path class="cls-1" d="M255.77,30.9c0-17.28,13.16-30,29.84-30C296.45.89,303.93,5.1,309,12.24l-7.05,5c-3.87-5.25-8.86-8-16.6-8-11.61,0-20,9.29-20,21.67,0,12.64,8.6,21.67,20.38,21.67,7.57,0,13.16-2.84,17.54-8.51l7.14,4.9c-6,8-13.67,12-25,12-16.68,0-29.58-12.73-29.58-30"/></clipPath><clipPath id="clip-path-6" transform="translate(5 4.54)"><path class="cls-1" d="M328.11,30.9c0-17.28,13.42-30,30.18-30s30.18,12.73,30.18,30-13.42,30-30.18,30S328.11,48.19,328.11,30.9Zm50.82,0c0-12.38-8.51-21.67-20.64-21.67s-20.64,9.29-20.64,21.67,8.51,21.67,20.64,21.67S378.94,43.28,378.94,30.9Z"/></clipPath><clipPath id="clip-path-7" transform="translate(5 4.54)"><polyline class="cls-1" points="412.38 0.46 412.8 0.46 441.36 33.4 469.56 0.46 469.99 0.46 469.99 60.14 461.31 60.14 461.31 22.21 441.36 46.04 440.93 46.04 421.06 22.21 421.06 60.14 412.38 60.14 412.38 0.46"/></clipPath><clipPath id="clip-path-8" transform="translate(5 4.54)"><polyline class="cls-1" points="495.07 0.46 495.5 0.46 524.05 33.4 552.26 0.46 552.69 0.46 552.69 60.14 544 60.14 544 22.21 524.05 46.04 523.62 46.04 503.76 22.21 503.76 60.14 495.07 60.14 495.07 0.46"/></clipPath><clipPath id="clip-path-9" transform="translate(5 4.54)"><polyline class="cls-1" points="578.42 1.66 615.66 1.66 615.66 9.83 587.62 9.83 587.62 26.6 612.47 26.6 612.47 34.6 587.62 34.6 587.62 51.97 616.86 51.97 616.86 60.14 578.42 60.14 578.42 1.66"/></clipPath><clipPath id="clip-path-10" transform="translate(5 4.54)"><polyline class="cls-1" points="648.21 21.7 648.21 60.14 639.61 60.14 639.61 0.8 640.3 0.8 677.79 40.1 677.79 1.66 686.39 1.66 686.39 61 685.71 61 648.21 21.7"/></clipPath><clipPath id="clip-path-11" transform="translate(5 4.54)"><polyline class="cls-1" points="724.11 9.83 706.74 9.83 706.74 1.66 750.68 1.66 750.68 9.83 733.31 9.83 733.31 60.14 724.11 60.14 724.11 9.83"/></clipPath></defs><title>logo-filmcomment</title><polyline class="cls-1" points="5 6.2 41.46 6.2 41.46 14.37 14.2 14.37 14.2 32.78 39.06 32.78 39.06 40.95 14.2 40.95 14.2 64.68 5 64.68 5 6.2"/><g class="cls-2"><rect class="cls-1" y="1.2" width="46.46" height="68.48"/></g><rect class="cls-1" x="63.48" y="6.2" width="9.2" height="58.48"/><g class="cls-3"><rect class="cls-1" x="58.48" y="1.2" width="19.2" height="68.48"/></g><polyline class="cls-1" points="96.88 6.2 106.09 6.2 106.09 56.51 131.89 56.51 131.89 64.68 96.88 64.68 96.88 6.2"/><g class="cls-4"><rect class="cls-1" x="91.88" y="1.2" width="45" height="68.48"/></g><polyline class="cls-1" points="153.17 5 153.6 5 182.16 37.94 210.36 5 210.79 5 210.79 64.68 202.11 64.68 202.11 26.76 182.16 50.58 181.73 50.58 161.86 26.76 161.86 64.68 153.17 64.68 153.17 5"/><g class="cls-5"><rect class="cls-1" x="148.17" width="67.62" height="69.68"/></g><path class="cls-1" d="M255.77,30.9c0-17.28,13.16-30,29.84-30C296.45.89,303.93,5.1,309,12.24l-7.05,5c-3.87-5.25-8.86-8-16.6-8-11.61,0-20,9.29-20,21.67,0,12.64,8.6,21.67,20.38,21.67,7.57,0,13.16-2.84,17.54-8.51l7.14,4.9c-6,8-13.67,12-25,12-16.68,0-29.58-12.73-29.58-30" transform="translate(5 4.54)"/><g class="cls-6"><rect class="cls-1" x="255.77" y="0.43" width="64.61" height="70.03"/></g><path class="cls-1" d="M328.11,30.9c0-17.28,13.42-30,30.18-30s30.18,12.73,30.18,30-13.42,30-30.18,30S328.11,48.19,328.11,30.9Zm50.82,0c0-12.38-8.51-21.67-20.64-21.67s-20.64,9.29-20.64,21.67,8.51,21.67,20.64,21.67S378.94,43.28,378.94,30.9Z" transform="translate(5 4.54)"/><g class="cls-7"><rect class="cls-1" x="328.11" y="0.43" width="70.37" height="70.03"/></g><polyline class="cls-1" points="417.38 5 417.8 5 446.36 37.94 474.56 5 474.99 5 474.99 64.68 466.31 64.68 466.31 26.76 446.36 50.58 445.93 50.58 426.06 26.76 426.06 64.68 417.38 64.68 417.38 5"/><g class="cls-8"><rect class="cls-1" x="412.38" width="67.62" height="69.68"/></g><polyline class="cls-1" points="500.07 5 500.5 5 529.05 37.94 557.26 5 557.69 5 557.69 64.68 549 64.68 549 26.76 529.05 50.58 528.62 50.58 508.76 26.76 508.76 64.68 500.07 64.68 500.07 5"/><g class="cls-9"><rect class="cls-1" x="495.07" width="67.62" height="69.68"/></g><polyline class="cls-1" points="583.42 6.2 620.66 6.2 620.66 14.37 592.62 14.37 592.62 31.14 617.47 31.14 617.47 39.14 592.62 39.14 592.62 56.51 621.86 56.51 621.86 64.68 583.42 64.68 583.42 6.2"/><g class="cls-10"><rect class="cls-1" x="578.42" y="1.2" width="48.44" height="68.48"/></g><polyline class="cls-1" points="653.21 26.24 653.21 64.68 644.61 64.68 644.61 5.34 645.3 5.34 682.79 44.65 682.79 6.2 691.39 6.2 691.39 65.54 690.71 65.54 653.21 26.24"/><g class="cls-11"><rect class="cls-1" x="639.61" y="0.34" width="56.78" height="70.2"/></g><polyline class="cls-1" points="729.11 14.37 711.74 14.37 711.74 6.2 755.68 6.2 755.68 14.37 738.31 14.37 738.31 64.68 729.11 64.68 729.11 14.37"/><g class="cls-12"><rect class="cls-1" x="706.74" y="1.2" width="53.94" height="68.48"/></g></svg>