<svg id="Layer_1" data-name="Layer 1" xmlns="http://www.w3.org/2000/svg" width="367.79" height="96.87" viewBox="0 0 367.79 96.87"><defs><style>.cls-1,.cls-2{fill:#520a76;}.cls-1{stroke:#520a76;stroke-miterlimit:10;stroke-width:1.24px;}</style></defs><title>logo-littlebits</title><path class="cls-1" d="M354.89,32.78h0a11.54,11.54,0,0,1-5.19-1.22,11.4,11.4,0,0,1-4.3-3.84,11.15,11.15,0,0,1-2-5.51,9.08,9.08,0,0,1,1.09-4.91,13,13,0,0,1,5.37-5.17,15.67,15.67,0,0,1,7.34-1.93,10.28,10.28,0,0,1,6.26,1.92A9.43,9.43,0,0,1,367,18.41a13.05,13.05,0,0,1-.26,5.6,11.46,11.46,0,0,1-2.34,4.41A12.59,12.59,0,0,1,354.89,32.78Zm2.29-20.9c-4.59,0-9.31,2.61-11.23,6.21-1.45,2.73-1.16,5.73.84,8.69a9.55,9.55,0,0,0,8.11,4.32,10.89,10.89,0,0,0,8.22-3.77,10.33,10.33,0,0,0,2.22-8.66C364.33,12.54,359.3,11.88,357.18,11.88Z"/><path class="cls-1" d="M359.57,26.64a.85.85,0,0,1-.62-.28l-1-1.08c-2.27-2.54-5.1-5.7-6.93-6.85a.84.84,0,0,1,.89-1.42c2,1.27,4.83,4.4,7.29,7.16l1,1.07a.84.84,0,0,1-.07,1.18A.81.81,0,0,1,359.57,26.64Z"/><path class="cls-1" d="M350.67,27.05a.83.83,0,0,1-.6-1.41,60.91,60.91,0,0,1,5.3-4.66c1.7-1.4,3.32-2.72,4.45-3.85A.84.84,0,0,1,361,18.31c-1.19,1.19-2.83,2.53-4.57,4a59.65,59.65,0,0,0-5.15,4.52A.86.86,0,0,1,350.67,27.05Z"/><path class="cls-2" d="M7.83,0h-3C.39,0,0,.39,0,4.83V90.34c0,4.44.39,4.83,4.83,4.83h3c4.44,0,4.83-.39,4.83-4.83V4.83C12.66.39,12.27,0,7.83,0Z"/><path class="cls-2" d="M38.77,17.36a8.29,8.29,0,0,0-16.58,0,8.44,8.44,0,0,0,6.35,8.11V40.21c-4,0-4.4.54-4.4,4.83v45.3c0,4.44.39,4.83,4.83,4.83h3c4.44,0,4.83-.39,4.83-4.83V45c0-4.29-.38-4.8-4.4-4.83V25.46A8.42,8.42,0,0,0,38.77,17.36Z"/><path class="cls-2" d="M71.27,40.21H66.18V24.94c0-4.44-.39-4.83-4.83-4.83h-3c-4.44,0-4.83.39-4.83,4.83V40.21h-.65c-4.31,0-4.7.39-4.7,4.83v2.22c0,4.44.39,4.83,4.7,4.83h.65V90.34c0,4.44.39,4.83,4.83,4.83h3c4.44,0,4.83-.39,4.83-4.83V52.09h5.09c4.44,0,4.83-.39,4.83-4.83V45C76.1,40.6,75.71,40.21,71.27,40.21Z"/><path class="cls-2" d="M106.77,40.21h-5.09V24.94c0-4.44-.39-4.83-4.83-4.83h-3c-4.44,0-4.83.39-4.83,4.83V40.21h-.65c-4.31,0-4.7.39-4.7,4.83v2.22c0,4.44.39,4.83,4.7,4.83H89V90.34c0,4.44.39,4.83,4.83,4.83h3c4.44,0,4.83-.39,4.83-4.83V52.09h5.09c4.44,0,4.83-.39,4.83-4.83V45C111.61,40.6,111.22,40.21,106.77,40.21Z"/><path class="cls-2" d="M127.27,0h-3c-4.44,0-4.83.39-4.83,4.83V90.34c0,4.44.39,4.83,4.83,4.83h3c4.44,0,4.83-.39,4.83-4.83V4.83C132.1.39,131.71,0,127.27,0Z"/><path class="cls-2" d="M192.28,67.36c0-17.36-10.05-28.59-25.85-28.59-16.32,0-26.76,11.35-26.76,29.37,0,17.1,11,28.72,27,28.72a28.13,28.13,0,0,0,20.76-8.48c2.61-2.87,4.18-5.22,4.18-6.53s-.52-2-3.14-3.39l-2.35-1.3c-1.7-1-2.48-1.31-3.14-1.31a3,3,0,0,0-2.74,1.83c-3.26,5.22-7.7,7.83-13.06,7.83-8.09,0-13.58-5.75-14.23-14.75h34.46C191.36,70.76,192.28,70.1,192.28,67.36Zm-38.51-6.92c1.57-6.27,6.53-10.18,12.66-10.18,6.53,0,11.1,3.65,12.79,10.18Z"/><path class="cls-2" d="M239.14,48.3a19.79,19.79,0,0,0,7.05-15.53c0-8.09-3.92-16.06-9.92-20.23-4.57-3.14-10.45-4.44-20.89-4.44h-8.22c-4.44,0-4.83.39-4.83,4.83V90.34c0,4.44.39,4.83,4.83,4.83H222.3c11.75,0,17.24-1.57,23-6.26A24.12,24.12,0,0,0,254,70.1C254,59.92,248.28,51.57,239.14,48.3ZM215.51,20.24h4.57c8.88,0,13.71,4.44,13.71,12.53,0,8.35-4.83,12.79-14.23,12.79h-4Zm8.1,62.53h-8.1V56.53h6.66C234.83,56.53,241.1,61,241.1,70,241.1,78.07,234.83,82.77,223.61,82.77Z"/><path class="cls-2" d="M276.22,17.36a8.29,8.29,0,0,0-16.58,0A8.44,8.44,0,0,0,266,25.48V40.21c-4,0-4.4.54-4.4,4.83v45.3c0,4.44.39,4.83,4.83,4.83h3c4.44,0,4.83-.39,4.83-4.83V45c0-4.29-.38-4.8-4.4-4.83V25.46A8.43,8.43,0,0,0,276.22,17.36Z"/><path class="cls-2" d="M306.76,40.21h-5.09V24.94c0-4.44-.39-4.83-4.83-4.83h-3c-4.44,0-4.83.39-4.83,4.83V40.21h-.65c-4.31,0-4.7.39-4.7,4.83v2.22c0,4.44.39,4.83,4.7,4.83H289V90.34c0,4.44.39,4.83,4.83,4.83h3c4.44,0,4.83-.39,4.83-4.83V52.09h5.09c4.44,0,4.83-.39,4.83-4.83V45C311.59,40.6,311.2,40.21,306.76,40.21Z"/><path class="cls-2" d="M335.61,60.31c-6-2.74-7.31-3.92-7.31-6.27a4,4,0,0,1,4.18-3.91c2,0,2.87.52,4.7,2.87a2.76,2.76,0,0,0,2.35,1.31c.65,0,.92-.13,3-1.31l2.35-1.18c2.74-1.44,3.13-2,3.13-3.39,0-4.31-8.09-9.66-14.75-9.66-9.66,0-17,7-17,16.58,0,6.79,2.61,10.18,10.7,14.23,11.88,5.87,12.66,6.53,12.66,10.05s-2.61,5.88-6.53,5.88a7.09,7.09,0,0,1-6-2.87c-2.48-3.4-2.74-3.66-4-3.53a9.59,9.59,0,0,0-2.88,1l-2.48,1.18c-2.87,1.31-3.39,1.83-3.39,3.26a7,7,0,0,0,1.7,3.79c3.65,5.35,10.05,8.48,17.1,8.48,10.83,0,19.45-8.22,19.45-18.54C352.58,70.24,349.05,66.58,335.61,60.31Z"/></svg>