<svg id="Layer_1" data-name="Layer 1" xmlns="http://www.w3.org/2000/svg" width="202.37" height="86.41" viewBox="0 0 202.37 86.41"><defs><style>.cls-1{fill:#185086;}.cls-2{fill:#43a7de;}.cls-3{fill:#fff;}</style></defs><title>logo-raise</title><path class="cls-1" d="M22.13,44.75l-6.65-12H10.19v12H3V10.87H18.82c7.06,0,11.38,4.62,11.38,10.92,0,6-3.76,9.19-7.42,10.06l7.62,12.9Zm.71-23c0-2.84-2.18-4.57-5.08-4.57H10.19v9.14h7.57C20.65,26.36,22.84,24.64,22.84,21.79Z"/><path class="cls-1" d="M62.05,44.75,60,39H45.44l-2.13,5.74H35.08L48.19,10.87h9L70.28,44.75ZM52.71,18.08,47.43,32.66H58Z"/><path class="cls-1" d="M76.49,44.75V10.87H83.7V44.75Z"/><path class="cls-1" d="M91.17,40l3.91-5.49a14.85,14.85,0,0,0,10.77,4.57c4,0,5.89-1.83,5.89-3.76,0-6-19.51-1.88-19.51-14.63,0-5.64,4.88-10.31,12.85-10.31,5.38,0,9.85,1.63,13.21,4.72l-4,5.28a14.55,14.55,0,0,0-9.85-3.71c-3.1,0-4.83,1.37-4.83,3.4,0,5.38,19.46,1.78,19.46,14.43,0,6.2-4.42,10.87-13.56,10.87C99,45.36,94.32,43.18,91.17,40Z"/><path class="cls-1" d="M127,44.75V10.87h24v6.35H134.19v7.16H150.6v6.35H134.19V38.4H151v6.35Z"/><path class="cls-1" d="M2.16,73.75V61.68H0V59.75H6.51v1.93H4.35V73.75Z"/><path class="cls-1" d="M14.49,73.75V67.52h-3v6.24H9.34v-14h2.18v5.84h3V59.75h2.2v14Z"/><path class="cls-1" d="M20.33,73.75v-14h5.73v1.93H22.51v4h3.4v1.93h-3.4v4.24h3.55v1.93Z"/><path class="cls-1" d="M60.3,85.75,54.35,62.49,48.46,85.75H40.79l-9.7-33.88h8.08l5.94,24.48,6.45-24.48H57.2l6.4,24.48,5.89-24.48h8.13L68,85.75Z"/><path class="cls-1" d="M105.21,85.75,103.12,80H88.6l-2.13,5.74H78.23L91.34,51.87h9l13.06,33.88ZM95.86,59.08,90.58,73.66h10.57Z"/><path class="cls-1" d="M116.28,68.84c0-10.72,8.13-17.53,18-17.53a15.84,15.84,0,0,1,14,7.57l-6,3.25a9.6,9.6,0,0,0-8-4.42c-6.15,0-10.62,4.72-10.62,11.13S128.17,80,134.32,80a11.42,11.42,0,0,0,7.21-2.59V73.31h-8.94V67h16.15V80a18.81,18.81,0,0,1-14.43,6.4C124.41,86.41,116.28,79.5,116.28,68.84Z"/><path class="cls-1" d="M157.54,85.75V51.87h24v6.35H164.75v7.16h16.41v6.35H164.75V79.4h16.76v6.35Z"/><rect class="cls-2" x="2.17" y="79.62" width="23.89" height="6.25"/><circle class="cls-2" cx="180.29" cy="22.09" r="22.09"/><polygon class="cls-3" points="181.46 13.32 181.47 13.38 181.37 13.4 170.15 16.24 166.02 23.16 178.76 19.94 182.77 18.92 182.87 18.9 183.87 22.86 187.09 35.6 191.22 28.68 188.38 17.45 186.98 11.93 181.46 13.32"/></svg>