<svg id="Layer_1" data-name="Layer 1" xmlns="http://www.w3.org/2000/svg" width="154.05" height="63.02" viewBox="0 0 154.05 63.02"><defs><style>.cls-1{fill:#70a2bd;}.cls-2{fill:#fff;}</style></defs><title>logo-fairness</title><path class="cls-1" d="M73.67,4.23H69.31V1.33H81.17v2.9H76.82V15.64H73.67Z"/><path class="cls-1" d="M83.18.72h3.11V6.24A3.88,3.88,0,0,1,89.5,4.48c2.35,0,3.72,1.55,3.72,4.07v7.09H90.11V9.53c0-1.47-.7-2.23-1.88-2.23s-1.94.76-1.94,2.23v6.11H83.18Z"/><path class="cls-1" d="M95.39,10.23v0a5.46,5.46,0,0,1,5.42-5.71c3.66,0,5.34,2.84,5.34,6,0,.25,0,.53,0,.82H98.47a2.54,2.54,0,0,0,2.68,2.15,3.59,3.59,0,0,0,2.66-1.12l1.78,1.57a5.79,5.79,0,0,1-10.2-3.62Zm7.73-.92A2.35,2.35,0,0,0,100.8,7a2.44,2.44,0,0,0-2.37,2.33Z"/><path class="cls-1" d="M83.18,34.52v0c0-2.39,1.82-3.5,4.42-3.5a7.79,7.79,0,0,1,2.68.45v-.18c0-1.29-.8-2-2.35-2a8.05,8.05,0,0,0-3,.59l-.78-2.37a9.67,9.67,0,0,1,4.25-.88,5.06,5.06,0,0,1,3.7,1.23,4.78,4.78,0,0,1,1.19,3.5v6.36h-3V36.48a4.21,4.21,0,0,1-3.31,1.39C84.88,37.87,83.18,36.68,83.18,34.52Zm7.14-.72v-.55a4.82,4.82,0,0,0-2-.41c-1.33,0-2.15.53-2.15,1.51v0c0,.84.69,1.33,1.7,1.33C89.33,35.72,90.31,34.93,90.31,33.8Z"/><path class="cls-1" d="M96,22.74h3.27V25.5H96Zm.08,4h3.11v11H96.08Z"/><path class="cls-1" d="M102.11,26.71h3.11v2.21a3.38,3.38,0,0,1,3.5-2.41v3.25h-.16c-2.07,0-3.33,1.25-3.33,3.86v4h-3.11Z"/><path class="cls-1" d="M110.66,26.71h3.11v1.55A3.88,3.88,0,0,1,117,26.5c2.35,0,3.72,1.55,3.72,4.07v7.09h-3.11V31.55c0-1.47-.7-2.23-1.88-2.23s-1.94.76-1.94,2.23v6.11h-3.11Z"/><path class="cls-1" d="M122.87,32.25v0a5.46,5.46,0,0,1,5.42-5.71c3.66,0,5.34,2.84,5.34,6,0,.25,0,.53,0,.82H126a2.54,2.54,0,0,0,2.68,2.15,3.59,3.59,0,0,0,2.66-1.12l1.78,1.57a5.79,5.79,0,0,1-10.2-3.62Zm7.73-.92A2.35,2.35,0,0,0,128.29,29a2.44,2.44,0,0,0-2.37,2.33Z"/><path class="cls-1" d="M135.07,36.21l1.33-2a6.2,6.2,0,0,0,3.46,1.31c.9,0,1.31-.33,1.31-.82v0c0-.67-1.06-.9-2.27-1.27-1.53-.45-3.27-1.17-3.27-3.29v0c0-2.23,1.8-3.48,4-3.48a7.59,7.59,0,0,1,4.09,1.27L142.54,30a6.49,6.49,0,0,0-3-1c-.76,0-1.15.33-1.15.76v0c0,.61,1,.9,2.23,1.31,1.53.51,3.31,1.25,3.31,3.25v0c0,2.43-1.82,3.54-4.19,3.54A7.68,7.68,0,0,1,135.07,36.21Z"/><path class="cls-1" d="M145.16,36.21l1.33-2a6.2,6.2,0,0,0,3.46,1.31c.9,0,1.31-.33,1.31-.82v0c0-.67-1.06-.9-2.27-1.27-1.53-.45-3.27-1.17-3.27-3.29v0c0-2.23,1.8-3.48,4-3.48a7.59,7.59,0,0,1,4.09,1.27L152.62,30a6.49,6.49,0,0,0-3-1c-.76,0-1.15.33-1.15.76v0c0,.61,1,.9,2.23,1.31,1.53.51,3.31,1.25,3.31,3.25v0c0,2.43-1.82,3.54-4.19,3.54A7.68,7.68,0,0,1,145.16,36.21Z"/><path class="cls-1" d="M70.34,45.38h5.85c3.41,0,5.48,2,5.48,4.95v0c0,3.31-2.58,5-5.79,5H73.49v4.29H70.34ZM76,52.59a2.22,2.22,0,0,0,2.49-2.17v0c0-1.41-1-2.17-2.56-2.17H73.49v4.38Z"/><path class="cls-1" d="M83.67,48.73h3.11v2.21a3.38,3.38,0,0,1,3.5-2.41v3.25h-.16c-2.07,0-3.33,1.25-3.33,3.86v4H83.67Z"/><path class="cls-1" d="M91.4,54.27v0a5.94,5.94,0,0,1,11.86,0v0a5.94,5.94,0,0,1-11.86,0Zm8.79,0v0a2.91,2.91,0,0,0-2.88-3,2.81,2.81,0,0,0-2.84,3v0a2.91,2.91,0,0,0,2.88,3A2.81,2.81,0,0,0,100.19,54.27Z"/><path class="cls-1" d="M103.89,62.9V60.47a3.79,3.79,0,0,0,.65.06c.65,0,1.1-.35,1.1-1.27V48.73h3.11V59.51c0,2.41-1.23,3.52-3.52,3.52A6.44,6.44,0,0,1,103.89,62.9Zm1.68-18.14h3.27v2.76h-3.27Z"/><path class="cls-1" d="M111.15,54.27v0a5.46,5.46,0,0,1,5.42-5.71c3.66,0,5.34,2.84,5.34,6,0,.25,0,.53,0,.82h-7.63a2.54,2.54,0,0,0,2.68,2.15,3.59,3.59,0,0,0,2.66-1.12l1.78,1.57a5.79,5.79,0,0,1-10.2-3.62Zm7.73-.92A2.35,2.35,0,0,0,116.57,51a2.44,2.44,0,0,0-2.37,2.33Z"/><path class="cls-1" d="M123.69,54.27v0a5.63,5.63,0,0,1,5.75-5.71,5.39,5.39,0,0,1,4.38,1.84l-1.9,2a3.2,3.2,0,0,0-2.49-1.21,2.8,2.8,0,0,0-2.66,3v0a2.81,2.81,0,0,0,2.78,3A3.47,3.47,0,0,0,132,56.09l1.82,1.84a5.52,5.52,0,0,1-4.48,2A5.6,5.6,0,0,1,123.69,54.27Z"/><path class="cls-1" d="M136.4,56.58V51.39H135.1V48.73h1.31v-2.8h3.11v2.8h2.58v2.66h-2.58v4.68c0,.72.31,1.06,1,1.06a3.16,3.16,0,0,0,1.53-.39v2.49a4.58,4.58,0,0,1-2.45.63C137.69,59.87,136.4,59.12,136.4,56.58Z"/><rect class="cls-1" x="70.7" y="23.36" width="3.32" height="14.31"/><rect class="cls-1" x="74.89" y="23.36" width="6.98" height="2.79"/><rect class="cls-1" x="74.89" y="29.12" width="6.98" height="2.79"/><path class="cls-1" d="M62.95,31.47A31.47,31.47,0,1,1,31.47,0,31.47,31.47,0,0,1,62.95,31.47"/><rect class="cls-2" x="16.13" y="11.74" width="9.27" height="39.98"/><rect class="cls-2" x="27.83" y="11.74" width="19.5" height="7.8"/><rect class="cls-2" x="27.83" y="27.83" width="19.5" height="7.8"/></svg>