<svg id="Layer_1" data-name="Layer 1" xmlns="http://www.w3.org/2000/svg" width="679.33" height="201.21" viewBox="0 0 679.33 201.21"><title>logo-audubon</title><path d="M191.78,59C188,58.67,166.07,58,166.07,58a66.56,66.56,0,0,1,7.2-.72c10.18-.54,24.55,1.93,24.55,1.93l-6-.15m-17.34,1.42c-.56-.06.15-.38-1.33-.9,12.77-.88,15.61-.24,25.5.39C196,60,179.85,61.07,174.44,60.45Zm-26.31,2s-.92.57.76,1.19c0,0,13.08.07,13.84,3.71.87,4.16,0,9.19-3.12,11.46-1.65,1.22-6.95,2.9-15,2.61-7.64-.28-9.89-5.68-18.92-6-4.27-.17-8.95,2-15.94,3.8-.64.16,1.49-1.83.82-1.67-.48.11-3.77,2.38-4.27,2.49-3.81.84-8.55.85-13.16,1.95-1.19.29-10.56.62-16.38,2.25,0,0-6,1.81-6.8,3.22,0,0-12.26,2.16-11.78.78a29.51,29.51,0,0,1,9.48-4s10.69-.6,15.49-3c5.55-2.75,11.52-9,13-11.15.55-.83,3.34.3,3.62-.16.9-1.32-3.54-.74-3.54-.74s-5.92,5.47-8.13,6.57-7,5.49-19.44,6.3c0,0-1.48-.69-.07-1.9.91-.78,3.45-1.92,5.28-3.62,2.78-2.59,7.31-6.21,7.31-6.21L77.29,72.1a60.57,60.57,0,0,1-5.79,4,18.92,18.92,0,0,0-5.29,4.54l-8.76,5.67c-.88-4.71,3.09-9.24,6.14-10.74,2.42-1.19,3.72-3.11,6.32-4.23.12-.05,3.13.47,3.55.17a3.89,3.89,0,0,1,1.49-.49c.42-.18-1.9-.74-1.55-.9,2.62-1.21,9.35-3.2,15.52-5.8,1.2-.5,3.05-.14,5.24.35C95.47,65,106.29,63,114,57.16c0,0,.93-1.07.28,2.27-.73,3.77-2.29,3.62-2.29,3.62s3.62.33,5.75-5.59c.37-1,2.08-3.06,3.05-2.47,0,0,5.26-2.38,13.51,8.57,4.24,5.63,7.63,6.84,10,6.77,0,0,6.74-.22,8.56-1.36.06,0,.29,0,.3,0s.25-.21-.08-.47a1.26,1.26,0,0,1-.44.22,60.14,60.14,0,0,1-7.6.23c-1.19-.23-3.64.23-4.19-1.07a23.12,23.12,0,0,0-2.07-3.79c-1-1.55,1.83-6.17,7.48-7.3,8.56-1.71,13.17-4.4,20.49-1.13,0,0-7.55-1.6-8.54,1.11,0,0-.46.64,3.41,1.07a5.62,5.62,0,0,0,1.36,1.49s7.41-1.65,8.7,1.61a214.1,214.1,0,0,1-21.94,1.77S149.4,62.19,148.13,62.46ZM57.07,93a9.59,9.59,0,0,0-2.8.27c-.53.26-1.48,1.83-2,2.36-12.82,12.33-32.17,25-32.17,25-.72-1-3.08-.89-3-1.31a12.86,12.86,0,0,0,4.16-3.11C29,110.25,50,93.56,50,93.56a28.5,28.5,0,0,0,3.2-.63c.45-.21.86-2.38,2-2.63l1.1-.88s-1.89,2.08,4.93,1.1C61.18,90.51,57.42,92.82,57.07,93ZM5.32,124.69l-.6-.56a23.63,23.63,0,0,1,3.51-1.28c1.57-.39,3-.19,5.73-2.51l.49-.1c.21.4,3.75,1.44,3.75,1.44S8.19,123.35,5.32,124.69Zm44.3-38.45c.31-7.49,1.81-9.7,1.81-9.7,2.81-3.41,7.81-5.31,12.12-5.28,1.44,0,1.19,1.92,1,2,0,0-9.17,4.63-9,14.16l-2.19,1c-2.08-1.1-2.8.72-3.57,1C49.43,89.51,49.62,86.24,49.62,86.24ZM61.3,27.76c-.21-.21.28-1.17.07-1.17a2.89,2.89,0,0,1-1.58-.86c-.41-.53.34-2,2.12-2.77,0,0-5.25-1.32-3.55-2s3.72-1.61,2.08-2.06-4.67-.76-1.79-1.67c4.54-1.43,2.93-2.48,1.16-3.11s-6.36-2.32-.45-1.82c7.68.65,9.79-.27,3.36-3.54-6-3.07-3.29-4.74,2.85-2,7.1,3.21,3,1.4,9.08,1.77,0,0-7.51-5.3-6.9-6,.83-1,4.12.33,7.26,2.16,6.62,3.85,33.39,4.55,39,8.88a56.48,56.48,0,0,1,8.3,4.11c2.27,1.32,3.08,4.4-.16,6-.3.14,1.37-4.68-14.31-7.41-1.23-.21,12.62,4.29,11.61,10-.24,1.38-3,2.22-3.32,2.24-2,.14-1.64,2.41-5.58,4.52-2.25,1.21-7,11.52-6.63,11,6.34-8.25,11-11,10.34-9.82-5.22,9.28,2.38,16.59,1.56,18.73l-1,1.2c-1.82,4.39-13.5,7.17-19.06,8.15A5.58,5.58,0,0,1,92,61.76c-7.33-4.51-.84-.67-3.71,1,0,0-12.52,4.35-15.31,6,0,0,.24.28-1.22,1a4,4,0,0,1-3.3-1.84S66,67.5,66.07,65.77c0,0-10.65-5.35,4.67-25.3.26-.34,2.89.4,3.19.07,1.12-1.24-3-4.8-3-4.8s-3-.17-3.31-.53c-.12-.12.38-1.1-1.65-1.65a3.88,3.88,0,0,1-2.18-1.8c-.31-.53.3-1.5.3-1.5a3.15,3.15,0,0,1-2-.9A2.87,2.87,0,0,1,61.3,27.76Zm3.9,9.71s-1.24,2.65,3,1.64c0,0-12.21,17.38-7.15,26.68,2.81,5.15,3,3.81,2.76,4,0,0-5.85-.08-17.52-2.86-3.26-.78-5.73-2.07-10.08-2.39,0,0,8.21,3.51,9.14,3.76,3.18,1.12,7.88,1.4,9.73,1.78.14,0-4.82.33-7.31.22-8-.35-24.74-2.25-24.34-2.17.25.05,16.78,2.91,28,3.82,0,0-28.35.92-29.89.59s5.72.91,8,.8c0,0-7.91.37-8.36.32,0,0,26.48,1.57,31.3.92a44.27,44.27,0,0,0-4.19,1.81s-18.21,1.12-19.74,1.5,18-1,20.16.35l-.35,1.28s-13.4.85-14.83,1.84c0,0,12.78-1.4,14.48-.2l-.13,2.18-7.84.31,7.57.35-.44,3.2s-.42,3.24,1,4.36c0,0-26.53,21.07-29.65,23.32l-1.62.06s-2.85-2.54-3.29-3-2.51,1-2.79,1.33l1.93.1a1.49,1.49,0,0,0,.24.9,26.13,26.13,0,0,0,2.65,2.06l-.31.75-1.21,0-.26-.73-.39.76s-10,3.48-11.16,4.43c-.82.68-1.27.62-1.47.54a4.4,4.4,0,0,0,2.25.67c1.22,0,3.6-2.27,4.42-2.38s2.86-.26,2.86-.26S5,122.7,4,123.73L2.28,123l.07,1s-.78.6-1.4.29c0,0-.47.68,0,1s2.29-.24,2.29-.24.16.9.89,1a5.1,5.1,0,0,1,1,.13s-1.27.62-1.78,1a5.26,5.26,0,0,1-2.05.32l-.33-.81a4,4,0,0,0-.39.76c-.11.33.53,1.3.53,1.3a12.12,12.12,0,0,0,7-2.42c.69-.52,6.72-.72,8.17-.69s5.7-1.56,7.89-3.45,29.74-23.41,30-23.63c0,0,3.88-1.74,4.53-2.11s.54-1.51.9-1.65.9-1.24.9-1.24S67,90,70.34,89.36a69.81,69.81,0,0,0,8.9-2.25s1,2.33,1.62,2.27c0,0,3.85,2.58,4.38,2.73,0,0,6.53,3.3,7.61,3.49,0,0,1.36.42,2.11.59,0,0,2.19,14.67,2.91,14.94,0,0-.39,5.22.64,5.64,0,0,1.61.58,1.64,5,0,2.2.63,5.32,1.53,5.48A7.84,7.84,0,0,0,105,127c0,.1-1.79,4.79,4.13,2.15.78-.35,2.25-1.76,1.86-.9-1.18,2.6-.45,5.34,2.55,4.11,0,0,3.66-1.35,5.2-3.83.86-1.38-2.11,6.07,8.31-1.92.29-.22,12.16-8.18,12.16-8.87a49.33,49.33,0,0,0,4.27-6.41c.63-1.19.58-3.49.77-3.54,4.78-1.34,10.67-16.92,7-18a27.48,27.48,0,0,1-13.4-8.65s-14.14-6,.36,3.92c.65.44.08,1.33-.9,1.37-3.48.12-2.51-.39-2.34.14.41,1.32,13.58,3.91,14.06,4.6,1.75,2.57.2,4.9-2.63,11.84-1.5,3.67-3,3.15-4.27,3.86h-2c-.4.27.83,1.41.8,2.1-.18,5,.2,2.53-6.5,11-.21.54-5.43,4.56-8.28,4.29l-.92.82s-.63,3-4.81,3.88c0,0-1.07-.64-.37-2.57,0-.87-1.11-.38-1.06-.89-2,3.12-5.31,6-6.7,5.2s1-3.72,1-4.23c0-2.21-1.07-1-4.83.93,0,0-2,1.14-1.08-.9.4-.88,0-3.45-1.82-2.89-1.15.35-2.64,2.22-3.21,1.4-.35-.51-1.81-.58,1.4-6.08.23-.39-2.36.56-2.63-.33l-.08-1.56,1.75-2.55s-1.12,1.53-1.83.74,1.51-3.7,1.51-3.7-1,.88-1.53.11.53-4,.53-4c-.08.59-1.08.79-1.41-.08a4.44,4.44,0,0,1,.44-2.52c-.66.66-.66.11-1.1-.44s.66-2.85.66-2.85c-1.1.77-1.53-.55-1.32-1.09s1.1-1.54,1.57-2.47C102.42,94.13,89,93.22,82,86.74c0,0,9.27-.42,15.45-3.26.88-.41,6.6-1.14,8.86-1.6,5.55-1.13,13.29-2.73,17.28-3.63s6.08.78,12.82,3c6.33,2.08,17.13,4,22.73.57,0,0,7.86-5.87,4.53-15.35a3.51,3.51,0,0,0-3.19-2.26,30.2,30.2,0,0,0,9.63-1.74s21.61-1.43,22.53-1.86l8.84-.6-1.05-.62a55.29,55.29,0,0,0-7.08-1.47c-8-1.08-17.18-1.09-23.17-1.93a26.14,26.14,0,0,0-9.28-2.7c-3.54-.46-9.2,1-11.74,1.51-3.54.68-12.37,2.38-12.59,8.68,0,0-3.42-9.22-16.61-12.15-.74-.16-5.19-9.6-4.3-15.85.56-3.92,11.73-11,13.88-11.4,2-.33-3-8.41-9.87-10.9-13.31-4.82-29-6.72-31.84-6.93S80.9,5.5,73.41,3c0,0-6-2.95-7.59-2.22S66,3.92,71,7.84C71,7.84,60.07,2,58.41,4.1c-2.63,3.4,4.15,6.43,6.24,7.49,0,0-9.38-2.34-11.06-.48s5.15,4.38,5.15,4.38-5.25,1.37-5.51,2.26,5.44,2,5.44,2-4.86,1.05-4.86,1.88,2.54,1.42,4.16,1.53-2.43,2.76-2.64,3.62c-.33,1.32.49,1.65,1.81,1.32,0,0-.29,1.15.16,1.48A1.48,1.48,0,0,0,59,29.34s-1.19,1.93-.33,2.55,2.1.41,2.14.16a4,4,0,0,0,.53,2.26c.62.74,1.07.66,1.48-.16A3.54,3.54,0,0,0,63.06,37C63.45,37.67,65.2,37.47,65.2,37.47Z" transform="translate(-0.5 -0.65)"/><path d="M193.26,153.58,178.64,116c-1-2.72-1.87-5.61-2.38-7.48h-.34c-2,6.8-7,18.87-8.33,22.44l-8.67,22.61h34.34m-36.21,4.76-7.14,19.38c-2.21,5.78-3.06,8.16-3.06,11.39,0,5.61,4.08,7.65,11,8v3.4H125.26v-3.4c11-1.36,13.94-5.27,27.2-39.1l13.26-34c2.89-7.48,5.78-14.11,5.78-16a4.12,4.12,0,0,1,.85-3.06L180,93.4c1.19-1.7,1.7-2,2.89-2,3.06,0,2.72,4.93,7.65,17.68L216,174.49c7.82,19.72,9.86,21.59,20.4,22.61v3.4H194.11v-3.4c9.18-1,11.56-2.72,11.56-6.12,0-2.89-1-7.14-2.72-11.56l-8-21.08Z" transform="translate(-0.5 -0.65)"/><path d="M250.88,133.52v45.22c0,11.9,6.46,17.34,15,17.34,8,0,17.17-6.12,18.7-11V157.32c0-16.32-1.7-18.19-10.88-19.72v-2.72l22.78-1.36V185.2c0,5.1,1.36,8,4.25,8a19.26,19.26,0,0,0,6.29-1.36v3.91l-21.42,5.44V190.81c-5.27,4.93-11.9,11-25.84,11C241.87,201.86,239,191,239,179.08V162.25c0-21.25-1.53-23.12-9.86-24.65v-2.72l21.76-1.36" transform="translate(-0.5 -0.65)"/><path d="M361.34,160.72c0-16.32-5.1-23.8-18.53-23.8-15,0-23.63,12.58-23.63,30.43,0,19,11,30.43,22.78,30.43,8.5,0,17.51-7.14,18.7-10.37.68-1.36.68-4.59.68-11.22V160.72m.68,31.79c-5.61,4.59-11.9,9.35-22.95,9.35-21.59,0-32.47-17-32.47-32.47,0-20.57,18-35.87,34.85-35.87,11.22,0,17.34,4.42,19.89,6.63V106.83c0-10.88-.51-12.24-6.29-12.24-3.74,0-4.42-.34-4.42-1.53,0-.85,1-1.36,3.57-2.21,4.59-1.53,15.47-5.27,17-5.27,1.19,0,2,.34,2,1.87v103c0,3.23,1.19,4.08,3.23,4.08s3.91-1,4.76-1c.68,0,.85.85.85,1.53,0,1.19-.34,1.36-2.21,2-3.23,1.19-12.24,3.23-17.85,4.76Z" transform="translate(-0.5 -0.65)"/><path d="M402.79,133.52v45.22c0,11.9,6.46,17.34,15,17.34,8,0,17.17-6.12,18.7-11V157.32c0-16.32-1.7-18.19-10.88-19.72v-2.72l22.78-1.36V185.2c0,5.1,1.36,8,4.25,8a19.26,19.26,0,0,0,6.29-1.36v3.91l-21.42,5.44V190.81c-5.27,4.93-11.9,11-25.84,11-17.85,0-20.74-10.88-20.74-22.78V162.25c0-21.25-1.53-23.12-9.86-24.65v-2.72l21.76-1.36" transform="translate(-0.5 -0.65)"/><path d="M476.7,179.42c0,13.6,8.67,19,18,19,13.09,0,21.25-9.52,21.25-28.22,0-19.72-8.5-30.94-21.76-30.94-5.1,0-12.75,3.06-17.51,8.67v31.45m0-93.84v58.14c4.76-4.42,10.54-10.2,21.93-10.2,14.62,0,30.94,9.86,30.94,33.15,0,20.23-14.62,35.19-35.53,35.19-8.67,0-14.79-2.72-18.7-2.72-3.74,0-8.16,2.72-9.18,2.72a1.25,1.25,0,0,1-1.36-1.36v-95c0-5.27-1.36-5.95-4.42-7.48-2.72-1.19-3.06-1.53-3.06-2.21V93.91c0-1.36.85-2,2.55-2.72l14.28-5.61Z" transform="translate(-0.5 -0.65)"/><path d="M548.61,167.69c0,16.15,4.42,30.77,20.91,30.77s20.91-14.62,20.91-30.77-4.42-30.77-20.91-30.77-20.91,14.62-20.91,30.77m55.42,0c0,21.59-17,34.17-34.51,34.17S535,189.28,535,167.69s17-34.17,34.51-34.17S604,146.1,604,167.69Z" transform="translate(-0.5 -0.65)"/><path d="M601.46,197.78c9.18,0,11.22-2.38,11.22-15.3V150.69c0-3.91-.85-4.59-4.08-6.63-1.36-.85-2-1.19-2-2.21,0-1.36,1-1.87,2.89-2.89,5.78-3.57,10.37-6.46,12.58-6.46a1.83,1.83,0,0,1,1.87,2v7c4.59-3.06,11.56-8,22.61-8,10,0,23.29,3.74,23.29,23.63v25.33c0,12.92,2,15.3,10,15.3v2.72h-32v-2.72c8,0,10-2.38,10-15.3V160c0-13.77-6-20.74-17.68-20.74-7,0-12.92,5.27-15.64,8.5v34.68c0,12.92,2,15.3,10.37,15.3v2.72H601.46v-2.72" transform="translate(-0.5 -0.65)"/></svg>