<?xml version="1.0" encoding="utf-8"?>
<!-- Generator: Adobe Illustrator 19.2.1, SVG Export Plug-In . SVG Version: 6.00 Build 0)  -->
<svg version="1.1" id="Layer_1" xmlns="http://www.w3.org/2000/svg" xmlns:xlink="http://www.w3.org/1999/xlink" x="0px" y="0px"
	 viewBox="0 0 1165.4 212.3" style="enable-background:new 0 0 1165.4 212.3;" xml:space="preserve">
<style type="text/css">
	.st0{fill:#FFFFFF;}
</style>
<g>
	<path class="st0" d="M7.8,95.2c0-45.4,29-68.9,59-68.9c27.1,0,48.7,17.3,52.6,46.4L93.1,77C90.6,63.1,83.4,50.6,67,50.6
		c-16.9,0-32.1,15-32.1,44.6c0,35.4,15.2,48.9,32.1,48.9c16.7,0,27.3-9.7,27.3-27.5H68.9V94.3h50.4v18.1c0,35.3-22.2,56.1-52.4,56.1
		C34.3,168.5,7.8,147,7.8,95.2z"/>
	<path class="st0" d="M199.6,155.6h-0.4c0,0-7.2,12.9-28,12.9c-26.7,0-37.2-15-37.2-30.6c0-18.5,10.3-26.1,35.1-32.1
		c24.5-6,26.7-8.2,26.7-14s-5.3-10.9-17.5-10.9c-15.4,0-19.3,9-21.8,16.9l-21-8.8c4.5-15.8,17.7-29.6,42.5-29.6
		c23.2,0,43,11.1,43,40.7v65.4h-21.2v-9.9H199.6z M158.3,136.1c0,7.8,6.2,10.5,15.2,10.5c16.6,0,23-7.6,23-15.2v-17.9h-0.4
		c-1.2,2.1-1.9,4.7-22,9.7C159.7,126.8,158.3,131.8,158.3,136.1z"/>
	<path class="st0" d="M246.2,62.3h24v10.9h0.4c3.9-7.6,12.1-12.9,21.2-12.9c3.1,0,6.2,0.6,9.3,1.9l-3.9,24.5c-2.7-1-5.5-1.6-8-1.6
		c-10.9,0-17.7,7-17.7,23.6v56.7h-25.3V62.3z"/>
	<path class="st0" d="M346.3,160.5L305,62.3h25.7l26.7,69.9h0.4l26.7-69.9h25.7l-59.4,147h-25.1L346.3,160.5z"/>
	<path class="st0" d="M475.4,29.2h26.3v54.9h46.7V29.2h26.3v136.3h-26.3v-59h-46.7v59h-26.3L475.4,29.2L475.4,29.2z"/>
	<path class="st0" d="M603,62.3h25.3v63.9c0,13.4,5.1,17.9,15.6,17.9c11.1,0,20.5-5.1,20.5-19.9V62.3h25.3v103.2h-24.2v-9.9h-0.4
		c-3.3,4.5-12.1,12.9-26.9,12.9c-25.1,0-35.3-16.8-35.3-39.5V62.3H603z"/>
	<path class="st0" d="M731.9,125.6c1.8,13.8,9.7,21.6,23.2,21.6c12.5,0,20.5-4.3,20.5-11.5s-6.8-8.4-27.9-14.4
		c-22.6-6.4-34.7-14.4-34.7-30.4s13.6-31.6,39-31.6c25.3,0,38.4,12.9,43.4,30.4l-21,6.4c-3.1-8.6-8.4-16-22.2-16
		c-10.3,0-16.2,4.5-16.2,9.5c0,5.8,3.9,7.4,31,15c25.5,7,31.2,17.1,31.2,31.6c0,14.4-12.5,32.1-42.1,32.1c-31.2,0-44.2-19.3-46.9-37
		L731.9,125.6z"/>
	<path class="st0" d="M822.8,83.7h-16V62.3h16.6V37h24v25.3h26.1v21.4h-25.7v42.7c0,10.3,2.1,14.8,13.8,14.8h8.4v24.3h-10.7
		c-28.8,0-36.4-12.3-36.4-36.8L822.8,83.7L822.8,83.7z"/>
	<path class="st0" d="M885.2,62.3h24.7l13.6,68.9h0.6l23-68.9h23l21.2,68.8h0.4l15.6-68.8h24.3l-24.7,103.2H982l-23.6-74.2H958
		l-25.5,74.2H908L885.2,62.3z"/>
	<path class="st0" d="M1051.1,23.4h25.3v24h-25.3V23.4z M1051.1,62.3h25.3v103.2h-25.3V62.3z"/>
	<path class="st0" d="M1108.9,83.7h-16V62.3h16.6V37h24v25.3h26.1v21.4h-25.7v42.7c0,10.3,2.1,14.8,13.8,14.8h8.4v24.3h-10.7
		c-28.8,0-36.4-12.3-36.4-36.8v-45H1108.9z"/>
</g>
</svg>
