<svg id="Layer_1" data-name="Layer 1" xmlns="http://www.w3.org/2000/svg" width="91.75" height="31.87" viewBox="0 0 91.75 31.87"><defs><style>.cls-1{fill:#457cbf;fill-rule:evenodd;}</style></defs><title>logo-nyit</title><path class="cls-1" d="M56.61,0H51.49L43.17,12.15,34.79,0H21.62V19.46L12.63,0H0A6,6,0,0,1,2,4.67V27.2a6,6,0,0,1-2,4.67H10.09V12.24L19.4,31.87H31.62a6,6,0,0,1-1.89-4.67V7.83L39,20v7.21a6,6,0,0,1-1.89,4.67h12a5.94,5.94,0,0,1-1.88-4.67V20L56.61,7.82V0"/><path class="cls-1" d="M56.61,7.82V27.21a6,6,0,0,1-1.89,4.67H67.09a6,6,0,0,1-1.89-4.66V7.82H56.61"/><path class="cls-1" d="M65.19,7.82h9.25V27.21a6,6,0,0,1-1.89,4.67h12a6,6,0,0,1-1.89-4.66V7.82h4.39a6,6,0,0,1,4.67,1.91V0H65.19V7.82"/></svg>