<svg xmlns="http://www.w3.org/2000/svg" width="474.06" height="492.49" viewBox="0 0 474.06 492.49"><defs><style>.cls-1{isolation:isolate;}.cls-2,.cls-7{mix-blend-mode:multiply;}.cls-3{fill:#57c0ae;}.cls-4{fill:#ed1d7d;}.cls-5{fill:#fad704;}.cls-6{opacity:0.78;}.cls-7{opacity:0.6;}.cls-8{fill:#24a177;}.cls-9{fill:#e6c61f;}.cls-10{fill:#d2147e;}.cls-11{fill:#fff;}</style></defs><title>logo-the-feast</title><g class="cls-1"><g id="Layer_1" data-name="Layer 1"><g class="cls-2"><path class="cls-3" d="M204.14,446.25A164.4,164.4,0,1,1,436.64,448a164.39,164.39,0,0,1-232.5-1.73" transform="translate(-11.61 -2.78)"/></g><g class="cls-2"><path class="cls-4" d="M58.9,366.64a164.41,164.41,0,1,1,232.5,1.74,164.4,164.4,0,0,1-232.5-1.74" transform="translate(-11.61 -2.78)"/></g><g class="cls-2"><path class="cls-5" d="M195,282.58a164.41,164.41,0,1,1,232.49,1.73A164.41,164.41,0,0,1,195,282.58" transform="translate(-11.61 -2.78)"/></g><g class="cls-6"><g class="cls-7"><path class="cls-8" d="M364.19,389.91a121.61,121.61,0,1,1,107.5-134.25,121.63,121.63,0,0,1-107.5,134.25" transform="translate(-11.61 -2.78)"/></g><g class="cls-2"><path class="cls-9" d="M270,314.48A121.62,121.62,0,1,1,377.48,180.21,121.65,121.65,0,0,1,270,314.48" transform="translate(-11.61 -2.78)"/></g><g class="cls-2"><path class="cls-10" d="M251.42,437.82a121.62,121.62,0,1,1,107.5-134.26,121.67,121.67,0,0,1-107.5,134.26" transform="translate(-11.61 -2.78)"/></g></g><path class="cls-11" d="M82.15,219.18V293.4H71.7V219.18H57.46v-9.71H96.15v9.71Z" transform="translate(-11.61 -2.78)"/><path class="cls-11" d="M134.2,293.4V256.23h-19V293.4H104.59V209.48h10.58v37.3h19v-37.3h10.46V293.4Z" transform="translate(-11.61 -2.78)"/><path class="cls-11" d="M153.73,293.4V209.48h32.89v9.58H164.19v26.08h16.25v9.2H164.19v29.48h22.44v9.58Z" transform="translate(-11.61 -2.78)"/><path class="cls-11" d="M224.93,218.93V246.4h16.89v9.2H224.93v37.8H214.35V209.48h32.39v9.46Z" transform="translate(-11.61 -2.78)"/><path class="cls-11" d="M256.31,293.4V209.48H289.2v9.58H266.77v26.08H283v9.2H266.77v29.48H289.2v9.58Z" transform="translate(-11.61 -2.78)"/><path class="cls-11" d="M330.14,293.4l-3.39-19.28H311.88l-3.53,19.28h-10l15.75-83.93h11.08l15.64,83.93Zm-10.71-64.51-5.91,35.91h11.59Z" transform="translate(-11.61 -2.78)"/><path class="cls-11" d="M366.94,294.92c-11.84,0-19.53-7.8-19.53-18.77v-7.69h10.33V275c0,7.07,3.27,11.09,9.19,11.09,6.18,0,9.21-3.91,9.21-9.7,0-7.82-3.16-13.49-11.72-21.17-7.69-6.8-16.13-16.51-16.13-27.48,0-11.21,6.55-19.78,19-19.78,11.34,0,18.64,7.82,18.64,18.91v7.81H376V228c0-6.43-2.77-10.84-8.93-10.84-5.55,0-8.45,3.28-8.45,8.57,0,8.19,3.28,13,13.1,21.92,9.71,8.7,14.74,16.64,14.74,26.84C386.47,288.11,377.4,294.92,366.94,294.92Z" transform="translate(-11.61 -2.78)"/><path class="cls-11" d="M416.54,219.18V293.4H406.07V219.18H391.83v-9.71h38.69v9.71Z" transform="translate(-11.61 -2.78)"/></g></g></svg>