<svg id="Layer_1" data-name="Layer 1" xmlns="http://www.w3.org/2000/svg" width="54.88" height="58.04" viewBox="0 0 54.88 58.04"><defs><style>.cls-1{fill:#fff;}</style></defs><title>logo-filmlinc</title><path class="cls-1" d="M43.92,32.1H40.76V43.55h3.16V35.61c0-.5.08-1,.68-1s.64.54.64,1v7.94H48.4v-9c0-1.64-.72-2.62-2.14-2.62A2.15,2.15,0,0,0,44,33.52h0Zm-4.46-2.8H36.29V43.55h3.16ZM35,35.19C35,33.12,33.63,32,31.17,32s-3.82,1.16-3.82,3.22v5.46c0,2.12,1.8,3,3.82,3s3.82-.92,3.82-3Zm-4.48-.34c0-.42.16-.8.66-.8s.66.38.66.8v6c0,.42-.16.8-.66.8s-.66-.38-.66-.8Zm-7.6,1.3h3.16v-1c0-2.46-1.8-3.22-3.84-3.22-2.4,0-3.8,1.32-3.8,3.2v5.34c0,2.2,1.44,3.18,3.8,3.18s3.84-.82,3.84-3V39H22.91v1.78c0,.42-.16.8-.66.8s-.66-.38-.66-.8v-6c0-.42.16-.8.66-.8s.66.38.66.8Zm-10.25-4H9.5V43.55h3.16V35.61c0-.5.08-1,.68-1s.64.54.64,1v7.94h3.16v-9c0-1.64-.72-2.62-2.14-2.62a2.15,2.15,0,0,0-2.3,1.56h0ZM8.2,29.3H5v2H8.2Zm0,2.8H5V43.55H8.2ZM3.72,29.3H.55V43.55H3.72Z"/><path class="cls-1" d="M17.93,2.8h-3V14.25h3V6.3c0-.5,0-1,.62-1s.64.54.64,1v7.94h3V6.3c0-.5,0-1,.62-1s.64.54.64,1v7.94h3V5.08c0-1.4-.5-2.42-2.08-2.42a2.07,2.07,0,0,0-2.18,1.66h0a1.9,1.9,0,0,0-2.06-1.66A2.13,2.13,0,0,0,18,4.32h0ZM13.55,0H10.39V14.25h3.16ZM9.07,0H5.9V2H9.07Zm0,2.8H5.9V14.25H9.07ZM.7,4.88v9.37H3.86V4.88h.9V2.8h-.9c0-.46.12-.72.9-.72V0h-2a2,2,0,0,0-2,2.06V2.8H0V4.88Z"/><path class="cls-1" d="M46.86,17,49.34,28.1a2.57,2.57,0,0,1,.08.5c0,.22-.14.32-.56.32H47.22V31h2.54a2.33,2.33,0,0,0,2.56-1.94L54.88,17H52.22l-1.06,7.9h0L50.06,17Zm-5.34,2.08v7c0,1.5.38,2.38,2,2.38h2.58V26.36h-.62c-.74,0-.76-.36-.76-1V19.08h1.38V17H44.68V14.93H41.52V17H40.46v2.08ZM35,21.18V19.62a.66.66,0,1,1,1.32,0v1.56Zm4.48,1.9v-3c0-2.46-1.8-3.22-3.82-3.22-2.46,0-3.82,1.16-3.82,3.22v5.46c0,2.12,1.8,3,3.82,3,2.22,0,3.82-.82,3.82-3V23.92H36.29V25.4c0,.68-.16,1.1-.66,1.1S35,26.08,35,25.4V23.08Zm-8.95-8.89H27.35v2h3.16Zm0,2.8H27.35V28.44h3.16Zm-7.62,4H26v-1c0-2.46-1.8-3.22-3.84-3.22-2.4,0-3.8,1.32-3.8,3.2V25.4c0,2.2,1.44,3.18,3.8,3.18s3.84-.82,3.84-3V23.92H22.89V25.7c0,.42-.16.8-.66.8s-.66-.38-.66-.8v-6c0-.42.16-.8.66-.8s.66.38.66.8Zm-5.76-1c0-2.06-1.36-3.22-3.82-3.22S9.48,18,9.48,20.08v5.46c0,2.12,1.8,3,3.82,3s3.82-.92,3.82-3Zm-4.48-.34c0-.42.16-.8.66-.8s.66.38.66.8v6c0,.42-.16.8-.66.8s-.66-.38-.66-.8ZM8.2,21V19.72c0-1.92-1.54-2.86-3.94-2.86-2.08,0-3.7.9-3.7,3.18C.55,23.76,5,22.92,5,25.64c0,.48-.16.86-.66.86s-.66-.38-.66-.86V23.92H.55v1.82c0,2.06,1.56,2.84,3.58,2.84,2.64,0,4-1.2,4-3.46,0-3.72-4.42-3.36-4.42-5.32,0-.48.16-.86.66-.86s.66.38.66.86V21Z"/><path class="cls-1" d="M45.74,46.45H42.58V57.9h3.16v-8c0-.46.14-.94.66-.94s.66.48.66.94v2.78h3.16V48.55a2,2,0,0,0-2.14-2.24A2.35,2.35,0,0,0,45.8,48h-.06Zm-8.92,4.18V49.07a.66.66,0,1,1,1.32,0v1.56Zm4.48,1.9v-3c0-2.46-1.8-3.22-3.82-3.22-2.46,0-3.82,1.16-3.82,3.22V55c0,2.12,1.8,3,3.82,3,2.22,0,3.82-.82,3.82-3V53.37H38.14v1.48c0,.68-.16,1.1-.66,1.1s-.66-.42-.66-1.1V52.53Zm-13.19-4v7c0,1.5.38,2.38,2,2.38h2.58V55.82H32c-.74,0-.76-.36-.76-1V48.53h1.38V46.45H31.27V44.39H28.11v2.06H27v2.08Zm-6.54-2.08H18.4V57.9h3.16V50c0-.5.08-1,.68-1s.64.54.64,1V57.9H26v-9c0-1.64-.72-2.62-2.14-2.62a2.15,2.15,0,0,0-2.3,1.56h0Zm-8.93,4.18V49.07a.6.6,0,0,1,.66-.68.6.6,0,0,1,.66.68v1.56Zm4.48,1.9v-3c0-2.46-1.8-3.22-3.82-3.22-2.46,0-3.82,1.16-3.82,3.22V55c0,2.12,1.8,3,3.82,3,2.22,0,3.82-.82,3.82-3V53.37H14v1.48c0,.68-.16,1.1-.66,1.1s-.66-.42-.66-1.1V52.53ZM5,50.49H8.2v-1c0-2.46-1.8-3.22-3.84-3.22-2.4,0-3.8,1.32-3.8,3.2v5.34C.55,57.06,2,58,4.36,58s3.84-.82,3.84-3V53.37H5v1.78c0,.42-.16.8-.66.8s-.66-.38-.66-.8v-6c0-.42.16-.8.66-.8s.66.38.66.8Z"/></svg>