<svg id="Layer_1" data-name="Layer 1" xmlns="http://www.w3.org/2000/svg" width="393.39" height="77.18" viewBox="0 0 393.39 77.18"><defs><style>.cls-1{fill:#fff;}</style></defs><title>logo-patronage</title><path class="cls-1" d="M21.42,0H3.08A3.05,3.05,0,0,0,0,3.17V56.23a2.24,2.24,0,0,0,2.37,2.55H3a2.39,2.39,0,0,0,2.46-2.55V35.76H21c14.25,0,22.1-6.4,22.1-18C43.08,6.47,35.19,0,21.42,0Zm-.09,30.85H5.44V5H21.51C31.95,5,37.46,9.47,37.46,17.92S31.88,30.85,21.34,30.85Z"/><path class="cls-1" d="M88.27,15.2C86.11,15.2,85,16.8,85,20v2.31c-2.6-3.85-7.91-7.7-15.86-7.7-12,0-20.77,9.41-20.77,22.37S57,59.4,68.9,59.4c6.88,0,12.54-2.86,16.12-8.08v4.92c0,2.11,1.29,2.55,2.37,2.55h.44a2.26,2.26,0,0,0,2.46-2.55V16.14C90.29,15.43,88.72,15.2,88.27,15.2ZM69.34,54.67c-9.09,0-15.68-7.49-15.68-17.81s6.48-17.54,15.77-17.54c7.36,0,12.89,3.9,15.59,11v9.78C85,48.11,78,54.67,69.34,54.67Z"/><path class="cls-1" d="M124.47,51.09l-.36,0-.15.22a7.51,7.51,0,0,1-6.43,3.42c-4.63,0-6.52-2.71-6.52-9.37V20.29h11.68c1.75,0,2.63-.74,2.63-2.19v-.44c0-1.45-.89-2.19-2.63-2.19H111V7.79c0-2.18-1.24-2.63-2.28-2.63h-.53c-.88,0-2.37.34-2.37,2.63v7.68h-4.65c-1.71,0-2.54.72-2.54,2.19v.44c0,1.49.81,2.19,2.54,2.19h4.65V45.84c0,9.13,3.77,13.57,11.52,13.57,3.17,0,5.79-.94,7.36-2.62a4.17,4.17,0,0,0,1.58-3A2.47,2.47,0,0,0,124.47,51.09Z"/><path class="cls-1" d="M151.36,14.58c-5.23,0-9,2.59-11.14,7.55V20c0-3.21-1.07-4.77-3.26-4.77-.69,0-1.92.32-1.92.95V56.23a2.26,2.26,0,0,0,2.46,2.55h.45a2.24,2.24,0,0,0,2.37-2.55V38c0-6.85,1.38-18.34,10.61-18.34a7.05,7.05,0,0,1,4.73,1.56l.26.14H156a1.66,1.66,0,0,0,1.1-.75,3.29,3.29,0,0,0,.61-2C157.73,16.29,155.05,14.58,151.36,14.58Z"/><path class="cls-1" d="M183.22,14.58c-12.76,0-22,9.41-22,22.37s9.26,22.46,22,22.46S205.14,50,205.14,37.12C205.14,24.06,195.92,14.58,183.22,14.58Zm0,40.09c-9.54,0-16.74-7.62-16.74-17.72s7.2-17.63,16.74-17.63S199.88,27,199.88,37.12C199.88,47.13,192.72,54.67,183.22,54.67Z"/><path class="cls-1" d="M233.45,14.58A17.33,17.33,0,0,0,218.83,22V20c0-3.21-1.07-4.77-3.26-4.77-.69,0-1.92.32-1.92.95V56.23c0,1.67.82,2.55,2.37,2.55h.53c1.55,0,2.37-.88,2.37-2.55V29a15.18,15.18,0,0,1,14.34-9.38c7.82,0,12.3,5.29,12.3,14.53V56.23c0,1.67.82,2.55,2.37,2.55h.54c1.55,0,2.37-.88,2.37-2.55V33.84C250.84,21.78,244.34,14.58,233.45,14.58Z"/><path class="cls-1" d="M298.79,15.2c-2.16,0-3.26,1.6-3.26,4.77v2.31c-2.6-3.85-7.92-7.7-15.86-7.7-12,0-20.77,9.41-20.77,22.37s8.62,22.46,20.5,22.46c6.88,0,12.54-2.86,16.13-8.08v4.92c0,2.11,1.29,2.55,2.37,2.55h.44a2.26,2.26,0,0,0,2.46-2.55V16.14C300.8,15.43,299.23,15.2,298.79,15.2ZM279.85,54.67c-9.09,0-15.68-7.49-15.68-17.81s6.48-17.54,15.77-17.54c7.36,0,12.89,3.9,15.59,11v9.78C295.53,48.11,288.5,54.67,279.85,54.67Z"/><path class="cls-1" d="M334.89,52.73l-3.2-.74c-5.62-1.27-8.33-2-8.33-4.19a2.47,2.47,0,0,1,1.14-2.24h0c.91.09,1.78.16,2.72.16,9.91,0,17.39-6.71,17.39-15.61A14.43,14.43,0,0,0,341,20.6l6.76-7.37V13c0-1.1-1.41-2.43-3.06-2.43a3.88,3.88,0,0,0-3.27,2.14l-3.62,4.93a18.17,18.17,0,0,0-10.38-3.09c-9.65,0-17.21,7-17.21,15.88a15,15,0,0,0,10,13.95,5.54,5.54,0,0,0-1.88,4.1,4.85,4.85,0,0,0,2.3,4.22c-8.25,1.87-13.5,6.72-13.5,12.58,0,7.88,6.75,11.88,20.06,11.88,13.71,0,21.57-4.65,21.57-12.77C348.69,58.72,344.18,54.9,334.89,52.73ZM327.3,19.14c7,0,11.85,4.58,11.85,11.15s-4.87,11.06-11.85,11.06-11.77-4.55-11.77-11.06S320.37,19.14,327.3,19.14Zm-.09,53.58c-9.65,0-15-2.63-15-7.42,0-5.62,7.86-8.79,15.19-9.36,1,.27,2.05.5,3.06.72s1.93.42,2.92.68c6.83,1.59,10,3.89,10,7.25C343.43,69.76,337.52,72.72,327.21,72.72Z"/><path class="cls-1" d="M373.59,14.58c-12.24,0-21.48,9.69-21.48,22.54,0,13.12,9.05,22.28,22,22.28,9.09,0,13.93-4.12,15.2-5.39,1.94-1.95,2.81-3.86,2.81-4.89a3.12,3.12,0,0,0-2.84-3,.74.74,0,0,0-.42.11l-.11.07-.06.12c-2.81,5.5-7.58,8.17-14.58,8.17-9.73,0-16.43-6.61-16.82-16.51H391c1.15,0,2.37-.16,2.37-2v-.45C393.39,23,385.43,14.58,373.59,14.58Zm14.32,18.84H357.56c1.52-8.47,7.9-14.11,16-14.11S387.36,25,387.91,33.42Z"/></svg>