<?xml version="1.0" encoding="utf-8"?>
<!-- Generator: Adobe Illustrator 19.0.0, SVG Export Plug-In . SVG Version: 6.00 Build 0)  -->
<svg version="1.1" id="Layer_1" xmlns="http://www.w3.org/2000/svg" xmlns:xlink="http://www.w3.org/1999/xlink" x="0px" y="0px"
	 viewBox="62 -49.7 376.8 242.7" style="enable-background:new 62 -49.7 376.8 242.7;" xml:space="preserve">
<style type="text/css">
	.st0{opacity:0.4;enable-background:new    ;}
	.st1{fill:#010101;}
	.st2{fill:#FFFFFF;}
	.st3{opacity:0.85;enable-background:new    ;}
</style>
<g>
	<g class="st0">
		<path class="st1" d="M104.3-22.2c0,0,2.7,3.7,3.5,9.5c-1.7,0.8-7.8,3-7.8,3S97.3-19,89.6-17c-7.8,1.7-8.2,10.6-8.3,13.1
			c0,1.7-0.3,4.8,0.6,9.5C78.1,1.7,76-4.8,76-13.8c0-3.1,0.6-6.1,1.5-8.6c0.1-0.1,2.8-2.9,9.7-3.8c7.1-0.8,10.6,5.8,10.6,5.8
			L104.3-22.2z M112.5,16.4c0,0-4.9,12-15.1,15c-8.7,2.6-17.6-4.9-20.5-8.8c4.4,2.4,9.6,3.1,15,2c7.1-1.5,12.5-7.6,15.6-12.2
			L112.5,16.4z"/>
		<path class="st1" d="M167.8,2.5c0,13-6.3,30.7-22.6,30.7c-8.7,0-16.3-5.5-20.5-14.3c4,4,9.3,6.4,14.9,6.4
			c12.6,0,21.3-6.8,24.9-29.5c0.5-2.6,0.8-5.2,0.8-8.1c0-1.6-0.1-3-0.3-4.5C166.8-12.2,167.8-6,167.8,2.5z M150.8-18.4
			c-27.1-6-18.6,25.2-18.6,25.2c-4-3.9-6.8-10.5-6.8-19.1c0-4.3,0.6-8.2,1.7-11.3c2.6-2.7,6.1-4.1,10.3-4.1
			C143.6-27.7,148.1-24.1,150.8-18.4z"/>
		<path class="st1" d="M190.4-27.4v7.9h-11.2l-8.8-7.9H190.4z M202.8,24.7l5-6.6l3.7,4.7v10.3h-18.3l-7.4-8.4H202.8z M225.1-30.8
			v10.9h-17.2V9.2h-4.4v-36.5h14.3l4.8-6.8L225.1-30.8z"/>
	</g>
	<g class="st0">
		<path class="st1" d="M83.2,48.9v7.9H72l-8.8-7.9H83.2z M95.6,101l5-6.6l3.7,4.7v10.4H86l-7.4-8.4L95.6,101L95.6,101z M117.9,45.5
			v10.8h-17.3v29.1h-4.4V48.9h14.3l4.8-6.8L117.9,45.5z"/>
		<path class="st1" d="M125.1,48.2v7.4l-4.3-7.4H125.1z M178.6,100v9.1h-48.7l-9.1-8.1h46.4l5.8-6.2L178.6,100z M149.1,47.6v9h-4.8
			v29.7h-5.4V47.1l5.4-5.3L149.1,47.6z"/>
		<path class="st1" d="M237.4,96v12.1h-49.8l-6.7-7.3h47.7l7.3-7.3L237.4,96z M187.3,50.2v9.1l-6-9.1H187.3z M219.6,69.1v15.1h-14
			v1.5H201V76h7.3l6.9-6.9v-4.9L219.6,69.1z M237.9,44.7v12.8h-31.9v2.1h-4.6v-9.9h27.2l7.3-7.6L237.9,44.7z"/>
	</g>
	<g class="st0">
		<path class="st1" d="M100.8,184.1c-25.6,8-29.5-13-29.5-13c4.1,3.7,10.2,6.7,18.7,6.7c10.9,0,15.6-8.4,20.7-18.1
			c-0.1,0.1-0.1,0.1-0.1,0.2c0.3-0.6,0.6-1.1,0.7-1.7C112.8,161,119.1,176.8,100.8,184.1z M99.4,159.6c-1.2,0.9-2.6,1.6-3.9,1.9
			c-0.3-2.1-1.3-2.6-8.4-6.8c-7.2-4.1-8.5-10.9-8.5-10.9C90.6,151,100.2,153.6,99.4,159.6z M101.4,130.4l6.9-4.4
			c3.5,2,4.8,6.2,4.8,6.2s-2.7,2.7-6.1,6c-7.3-7.3-13.5-3.9-13.5-3.9c-3.5-1.6-7.2-3.2-8.2-3.8c-2.1-1-4.2-2.8-5.1-4.9
			c-0.3-1.7,2.1-2.3,6-2C96.1,124.4,101.4,130.4,101.4,130.4z"/>
		<path class="st1" d="M135.9,125.2v7.9h-11.2l-8.8-7.9H135.9z M148.3,177.3l5-6.6l3.7,4.7v10.4h-18.3l-7.4-8.4L148.3,177.3
			L148.3,177.3z M170.6,121.8v10.8h-17.3v29.1h-4.4v-36.5h14.3l4.8-6.8L170.6,121.8z"/>
		<path class="st1" d="M225.6,155.1c0,13-6.3,30.7-22.6,30.7c-8.7,0-16.3-5.5-20.5-14.3c4,4,9.3,6.4,14.9,6.4
			c12.6,0,21.3-6.8,24.9-29.5c0.5-2.6,0.8-5.2,0.8-8.1c0-1.6-0.1-3-0.3-4.5C224.8,140.4,225.6,146.6,225.6,155.1z M208.6,134.2
			c-27.1-6-18.6,25.2-18.6,25.2c-4-3.9-6.8-10.5-6.8-19.1c0-4.3,0.6-8.2,1.7-11.3c2.6-2.7,6.1-4.1,10.3-4.1
			C201.4,124.9,205.9,128.5,208.6,134.2z"/>
		<path class="st1" d="M233.6,124.6v9.7l-4.6-9.7H233.6z M255.6,175.9v9.5h-18.3l-8.4-8.1H246l4.7-6.2L255.6,175.9z M246.6,162.5
			v-22.2l4.1,6.6v15.6L246.6,162.5L246.6,162.5z M268,124.6v8.4l-4.3-8.4C263.8,124.6,268,124.6,268,124.6z M291,175.8v9.5h-11.1
			l-10.3-8.1h11.8l5.2-6.7L291,175.8z M291,122.5V133h-4.3v29.7h-5.2v-38.6l5.2-6.2L291,122.5z"/>
		<path class="st1" d="M299.5,124.9v8l-5.4-8H299.5z M312.5,177.3H294l7.5,7.8h20.7v-9.3l-4.9-5.6L312.5,177.3z M331.5,132.8h-14
			v3.2h-4.6v-11.2h11.9c0,0,5.7-0.3,7.2,3.9c0.7,2.2,0.6,3.9-0.1,5.3C331.8,133.2,331.5,132.8,331.5,132.8z M346,146.1
			c-4.9,13.4-21.2,12.5-21.2,12.5h-7.4v3.6h-4.3v-11.8h9.2c0,0,15.4,0.6,22.2-16.8h0.1c-0.1,0-0.1,0.1-0.1,0.1
			c0.6-1.3,1.1-2.8,1.3-4.1C346.5,130.7,349.9,135.3,346,146.1z"/>
		<path class="st1" d="M355.8,124.8v10.8l-5-10.8H355.8z M367,177.3h-15.9l9,8h18.1v-8.8l-6.2-5.9L367,177.3z M367.8,162.4v-38.2
			l3.7-6.1l6.7,6.4v8.1H372v29.7L367.8,162.4L367.8,162.4z"/>
		<path class="st1" d="M437,172.3v12.1h-49.8l-6.7-7.3h47.7l7.3-7.3L437,172.3z M386.9,126.5v9.1l-6-9.1H386.9z M419.2,145.4v15.1
			h-14v1.5h-4.6v-9.7h7.3l6.9-6.9v-4.9L419.2,145.4z M437.5,121v12.8h-31.9v2.1H401V126h27.2l7.3-7.6L437.5,121z"/>
	</g>
	<g class="st0">
		<path class="st2" d="M75.7,20.2c-0.2,0.1,0-0.2,0.1-0.3s0.2,0,0.2,0.1S75.9,20.1,75.7,20.2z M76,21.6c-0.2,0.1-0.3,0-0.3-0.2
			c0.2-0.3,0.3-0.3,0.3-0.3C76.2,21,76.1,21.4,76,21.6z M76.3,19.4c0,0.1-0.1,0.1-0.3,0.2s-0.1-0.2,0.1-0.3
			C76.2,19.2,76.2,19.3,76.3,19.4z M76.5,20.2c-0.2,0.2,0-0.1,0.1-0.3s0.1-0.1,0.2,0C77,19.9,76.7,20.1,76.5,20.2z M77,21.5
			c-0.1,0.4-0.4,0.7-0.5,0.6c-0.2-0.1,0.1-0.3,0.3-0.5c0.1-0.3,0.2-0.6,0.3-0.7C77.2,20.7,77.1,21.1,77,21.5z M76.9,17.9
			c0.1-0.3,0.4-0.6,0.4-0.6c0.1-0.2,0.1,0.2,0,0.5s-0.3,0.6-0.6,0.7S76.8,18.3,76.9,17.9z M76.9,19.6c-0.1,0.2-0.2-0.4,0-0.6
			C77.1,18.9,77,19.4,76.9,19.6z M77.4,22.4c0,0.1-0.1,0.2-0.2,0.3c-0.1-0.1-0.1-0.1-0.2-0.2c0.2-0.4,0.7-1.5,1-1.9
			c0.4-0.6,1-1.5,1.4-2.1s1-1.7,1.2-1.8c0.1-0.4,0.3-0.6,0.3-0.6h0.3c0,0-0.6,1.2-1,1.7s-1.7,2.4-1.8,2.8S77.6,22.2,77.4,22.4z
			 M78.1,17.8c-0.2,0.3-0.8,1.3-0.9,1.5c-0.1,0.3,0-0.3,0.2-0.6s0.4-0.8,0.6-1.1s0.6-0.8,0.7-1c0.1-0.3,0.2-0.6,0.3-0.6
			c0.2-0.1,0.2,0.4,0.1,0.6C78.9,16.8,78.3,17.5,78.1,17.8z M80.1,16h0.2c0,0-0.2,0.4-0.5,0.8s-0.6,1.1-1,1.6
			c-0.4,0.4-0.6,0.9-0.9,1.4s-0.4,1-0.5,0.9c-0.3-0.2,0.1-0.6,0.2-1c0.2-0.4,0.9-1.3,1.2-1.7C79.2,17.6,80.1,16,80.1,16z
			 M103.9-28.1l-6.2,7.7c0,0-3.5-6.6-10.6-5.8c-7,0.8-9.6,3.7-9.7,3.8c2.6-7.3,8.3-12.1,13.9-12.1C99.9-34.5,103.9-28.1,103.9-28.1z
			 M77.9,16.3c0.1-0.4,0.4-0.6,0.4-0.6c0.1-0.2,0,0.1,0,0.4c-0.1,0.3-0.3,0.5-0.4,0.6C77.7,17,77.7,16.6,77.9,16.3z M78.4,22.7
			c-0.1,0.1-0.2,0.2-0.3,0.3c-0.2,0-0.3-0.1-0.4-0.1c0.3-0.6,1.3-2.2,1.6-2.8c0.4-0.6,1.2-1.9,1.6-2.6c0.4-0.6,0.8-1.3,0.9-1.5
			c0.1,0,0.2,0.1,0.3,0.1c-0.2,0.5-1.1,2-1.2,2.3c-0.2,0.4-1.6,2.5-1.8,2.8C78.8,21.7,78.7,22.4,78.4,22.7z M80.3,20.9
			c-0.3,0.4-1,2.1-1.3,2.6c-0.2-0.1-0.3-0.2-0.5-0.3c0.1-0.1,0.2-0.4,0.3-0.6c0.2-0.3,1.3-2,1.6-2.6c0.4-0.5,1.8-3.1,2-3.6
			c0.2,0,0.3,0.1,0.4,0.1c-0.2,0.4-0.8,1.4-1.1,1.9C81.3,19,80.4,20.5,80.3,20.9z M108.2,11.5c-3,4.6-8.6,11.6-16.2,13.1
			c-4.6,0.9-8.9,0.6-12.9-1.1l3.8-6.9c2.4,0.9,4.8,1.5,7.3,1.6C100.1,18.7,105.4,14.8,108.2,11.5z M103.9-28.1l-6.2,7.7l6.5-1.8
			l7.8-9.1L103.9-28.1z"/>
		<path class="st2" d="M126.2,17.3c0-0.2,0.2-0.5,0.4-0.6s-0.1,0.4-0.1,0.4C126.3,17.4,126.1,17.5,126.2,17.3z M128.1,16
			c-0.1,0.3-0.7,1.3-0.7,1.3s-0.5,0.6-0.6,0.9c-0.2,0.3-0.3,0.3-0.3,0.1c0.1-0.2,0.3-0.5,0.5-0.8s0.8-1.3,0.9-1.6
			C128.1,15.7,128.2,15.7,128.1,16z M150.1-19.5c-2.6-5-6.9-8.3-12.9-8.3c-4.2,0-7.7,1.5-10.3,4.1c2.4-7.1,7.3-11.1,14.3-11.1
			c4.3,0,7.8,1.7,10.4,4.4c0,0.9,0,2.1-0.1,3.9C151.4-23,150.6-20.5,150.1-19.5z M127.4,21.1c-0.1-0.1-0.1-0.1-0.2-0.1
			c0.2-0.4,0.5-1,0.6-1.2c0.1-0.3,0.9-1.8,1.1-2.2c0.3-0.5,0.5-0.7,0.6-0.8c0.2,0-0.5,1.1-0.5,1.1S127.6,20.5,127.4,21.1z
			 M127.6,18.4c0.1-0.1-0.2,0.4-0.2,0.4c-0.2,0.3-0.3,0.3-0.2,0S127.4,18.4,127.6,18.4z M128.1,21.6c-0.1-0.1-0.2-0.2-0.3-0.2
			l3.1-5.8c0.1,0,0.2,0,0.2,0.1L128.1,21.6z M127.9,17.4c0.2-0.2,0.7-1.2,0.9-1.5c0.3-0.3,0.3-0.3,0.3-0.1c-0.1,0.2-1,1.7-1,1.7
			C128.1,17.7,127.8,17.7,127.9,17.4z M128.6,21.9c-0.1-0.1-0.2-0.1-0.3-0.2l3.1-5.9h0.1L128.6,21.9z M129.1,22.3
			c-0.1-0.1-0.2-0.2-0.3-0.2c0.3-0.5,0.8-1.7,1.1-2.1s1.6-3.1,2-3.9c0,0,0.1,0.1,0.2,0.1c-0.4,0.8-2.2,4.5-2.5,5
			C129.6,21.6,129.3,22.1,129.1,22.3z M132.9,16.6c-0.4,0.6-1.4,2.7-1.7,3.3c-0.5,0.8-1,1.8-1.2,2.1c-0.1,0.3-0.2,0.5-0.2,0.6
			c-0.1,0-0.1,0-0.2,0c0.2-0.5,0.6-1.6,0.8-2.1c0.3-0.5,1.8-3.2,2.3-3.9C132.8,16.5,132.8,16.6,132.9,16.6z M164.4-4.2
			c-3.6,22.7-12.3,29.5-24.9,29.5c-3.4,0-6.6-0.9-9.5-2.5l3-6.1c2.6,1.1,5.3,1.7,8.2,1.7C152.6,18.4,161.8,8.8,164.4-4.2z
			 M131.6,21.6c0.2-0.4,1.5-2.8,1.5-2.8s0.4-0.5,0.3-0.6s-0.4,0.4-0.6,0.8c-0.3,0.6-1.1,2.2-1.3,2.5
			C131.4,21.7,131.4,21.9,131.6,21.6z M132.9,21c0.3-0.4,0.4-0.6,0.4-0.6s0.6-0.7,0.6-0.9c0-0.2-0.3-0.2-0.6,0.4s-1.4,2.4-1.2,2.3
			S132.8,21.4,132.9,21z M134.4,20c0,0,0.6-0.6,0.4-0.6c-0.1-0.1-0.6,0.5-0.8,1c-0.2,0.6-1.3,2.3-1.2,2.4c0.2,0.1,0.4-0.1,0.6-0.6
			C133.6,21.6,134.4,20,134.4,20z M135.4,20.1c-0.3,0.4-0.6,1-0.7,1.3c-0.2,0.4-0.4,0.9,0,0.6c0.3-0.4,0.5-0.8,0.5-0.8
			s0.4-0.7,0.5-1C135.8,19.7,135.6,19.7,135.4,20.1z M150.6-18.7c0-0.1-0.1-0.3-0.2-0.4c1.7-2.1,1.7-9.3,1.7-10.7
			c0,0.1,0.1,0.2,0.2,0.3C152.4-22.5,151.3-19.8,150.6-18.7z M151.8-19.6c-0.1,0.4-0.4,0.2-0.2-0.2c0.1-0.3,1-3.1,1.2-7.2
			c0,0,0-0.8,0.2-0.6C153.1-27.1,152.8-22.4,151.8-19.6z M152.8-22c0.1-0.7,0.3-1.7,0.4-2.2c0-0.5,0.3-0.6,0.2-0.1
			c0,0.5-0.2,1.7-0.2,1.7c-0.1,0.5-0.2,1.7-0.4,2C152.6-20.2,152.6-21.3,152.8-22z"/>
		<path class="st2" d="M190.4-27.4h-20l4.9-6.8h20.1v2.4l-5,14V-27.4z M190.2,18.1h17.7l-5,6.6h-17L190.2,18.1z M203.6-34.2h19.1
			l-4.8,6.8h-14.3V-34.2z"/>
	</g>
	<g class="st0">
		<path class="st2" d="M83.2,48.9h-20l4.9-6.8h20.1v2.4l-5,14V48.9z M83,94.4h17.6l-5,6.6h-17L83,94.4z M96.2,42.1h19.1l-4.8,6.8
			H96.2V42.1z"/>
		<path class="st2" d="M125.1,48.2h-4.3l4.3-6.3h5.5v1.7l-5.5,16.2V48.2z M125.1,94.7h47.8l-5.8,6.2h-46.4L125.1,94.7z M138.8,47.1
			v-5.3h5.4L138.8,47.1z"/>
		<path class="st2" d="M235.9,93.5l-7.3,7.3h-47.7l5.9-7.3H235.9z M187.3,50.2h-6l6.1-8h5.2v2.9l-5.3,15.2V50.2z M201.1,69.1h14.2
			l-6.9,6.8h-7.3V69.1z M201.4,42h34.5l-7.3,7.6h-27.2V42z"/>
	</g>
	<g class="st0">
		<path class="st2" d="M72.5,169c0-0.2,0-0.9,0.2-1.5c0.1-0.5,0.5-1,0.5-1s0.2-0.2,0.1,0.1C73.3,166.6,72.7,167.8,72.5,169
			c0.1,0.1,0.1,0.2,0,0.2S72.5,169.1,72.5,169z M74,166.6c0,0-0.4,1-0.6,1.9s-0.4,2.6-0.6,2.5c-0.2,0-0.1-0.4-0.1-0.4
			c0.1-0.6,0.3-1.5,0.5-2.1c0.1-0.6,0.5-1.7,0.6-2C74,166.2,74,166.6,74,166.6z M73.3,171.7c0-0.4,0.1-2,0.6-3.5s0.8-2.3,0.8-2.3
			s0.2-0.2,0.3-0.1s-0.3,0.6-0.5,1.3s-0.9,2.7-1,4.6C73.5,171.7,73.3,172,73.3,171.7z M73.8,173c0,0-0.1-0.1-0.2-0.1
			c0.2-1.3,0.9-5.9,1.9-7.5c0,0.1,0.1,0.1,0.2,0.2C75.5,166.4,73.9,170.9,73.8,173z M74.3,173.3c-0.1-0.1-0.3-0.2-0.4-0.3
			c0.4-1.6,1.7-6.2,2.1-7.3c0.1,0,0.1,0.1,0.2,0.1C75.7,167.5,74.7,172,74.3,173.3z M110.7,159.7c-5,9.7-9.7,18.1-20.7,18.1
			c-6.5,0-11.5-1.7-15.3-4.1l1.7-7.6c9.5,6,23.3,6,30.2-1C108.4,163.1,109.8,161.4,110.7,159.7z M77,141.4c0,0,0-0.2,0-0.6
			c0-0.5,0-2.7,0-2.9c0,0,0.1-0.5,0.2-0.5c0.1-0.1,0.1-0.1,0.1,0.2c0,0.2-0.1,3.2-0.1,3.5S77,141.4,77,141.4z M78,137.6
			c-0.1,0.4-0.3,3.6-0.2,4.2c0,0,0,0.7-0.1,0.7c-0.2,0-0.2-0.4-0.2-1.1c0-0.6,0.3-4.1,0.3-4.1s0.1-0.3,0.2-0.4
			C78.1,137,78,137.2,78,137.6z M79.1,137c-0.6,1.7-0.6,5.5-0.6,6.7c-0.2-0.1-0.3-0.1-0.4-0.2c-0.2-2,0.4-6.1,0.5-6.9
			C78.8,136.8,79,136.9,79.1,137z M79,144c-0.1-0.1-0.2-0.2-0.4-0.3c-0.2-2.8,0.5-5.9,0.6-6.7c0.2,0.2,0.4,0.3,0.6,0.5
			C79.1,139.2,79,142.8,79,144z M97.2,154.7c-3.2-3.1-10.1-5.9-18-10.6c-0.2-2.7,0.4-5.4,0.6-6.6c3.5,2.3,8,4.5,13.6,6.4
			c0,0,2.8,1,5.1,3C98.3,149.4,97.5,153.5,97.2,154.7z M97.7,127.4c-2.6-1.7-6.4-3.4-11.6-3.9c-3.9-0.3-6.2,0.4-6,2
			c-0.6-1.2-0.6-2.6-0.1-3.9c1.5-3.9,8.6-6.3,16.2-3C96.6,120.4,97.5,125,97.7,127.4z M96.5,118.7c0.2,0.1,0.3,0.1,0.4,0.2
			c0.3,1.5,1.2,7.3,1.4,8.9c-0.1-0.1-0.2-0.2-0.4-0.3L96.5,118.7z M97.1,119c0.1,0,0.3,0.1,0.4,0.1c0.2,1.7,1.1,7.3,1.1,7.6
			c0.1,0.4,0,0.6-0.1,0.6c-0.1,0.1-0.1-0.3-0.1-0.3L97.1,119z M98.7,147.1c0.2,0.1,0.4,0.3,0.6,0.5l-1.6,7.5
			c-0.1-0.1-0.3-0.2-0.4-0.4L98.7,147.1z M98,121.2c0.1,0.3,0.7,5.1,0.7,5.1s0,0.4-0.1,0.1s-0.8-5.2-0.8-5.2s0-0.4,0.1-0.4
			C98,120.9,98,120.9,98,121.2z M98,154.7c-0.1-0.1,1.1-5.6,1.4-7.1c0.1,0.1,0.2,0.1,0.2,0.2c-0.3,1.6-1.3,6.5-1.4,6.7
			C98.1,154.8,98,154.7,98,154.7z M98.7,125.4c0-0.3-0.6-4.3-0.6-4.3s0-0.2,0.1-0.2s0.1,0,0.1,0.3c0.1,0.2,0.7,4.2,0.7,4.2
			s0.1,0.2-0.1,0.3C98.8,125.7,98.8,125.6,98.7,125.4z M99.7,147.9c0,0.1,0.1,0.2,0.2,0.2c-0.3,1.3-1.3,5.9-1.3,6.2
			c-0.1,0.2-0.2,0.3-0.3,0.3s0-0.2,0-0.2S99.4,149.1,99.7,147.9z M98.7,122.1c0,0.3,0.4,2.5,0.4,2.5s0,0.2-0.1,0.2s-0.1-0.1-0.1-0.2
			s-0.3-2.3-0.3-2.3s-0.1-0.3-0.1-0.4C98.6,121.9,98.6,121.9,98.7,122.1z M98.9,154.1c-0.1-0.1,0-0.4,0-0.4l0.8-3.9
			c0.1-0.2,0.1-0.4,0.3-0.3c0.1,0,0.1,0.2,0.1,0.2s-0.9,3.8-0.9,3.9C99.1,153.9,99.1,154.1,98.9,154.1z M100.2,150.7
			c0.1,0,0.1,0.4,0.1,0.4s-0.6,2.1-0.6,2.4c-0.1,0.3-0.1,0.5-0.2,0.5c-0.2-0.1,0-0.6,0-0.6s0.4-1.9,0.5-2.3
			C100.1,150.7,100.1,150.7,100.2,150.7z M110.2,119.2l-1.9,6.8l-6.9,4.4l2.8-6.2L110.2,119.2z"/>
		<path class="st2" d="M135.9,125.2h-20l4.9-6.8h20.1v2.4l-5,14V125.2z M135.8,170.7h17.6l-5,6.6h-17L135.8,170.7z M148.9,118.4
			h19.1l-4.8,6.8h-14.3V118.4z"/>
		<path class="st2" d="M184.1,169.9c0-0.2,0.2-0.5,0.4-0.6s-0.1,0.4-0.1,0.4C184.1,170,183.9,170.1,184.1,169.9z M185.9,168.6
			c-0.1,0.3-0.7,1.3-0.7,1.3s-0.5,0.6-0.6,0.9c-0.2,0.3-0.3,0.3-0.3,0.1c0.1-0.2,0.3-0.5,0.5-0.8s0.8-1.3,0.9-1.6
			C185.9,168.3,186.1,168.3,185.9,168.6z M208.1,133.1c-2.6-5-6.9-8.3-12.9-8.3c-4.2,0-7.7,1.5-10.3,4.1c2.4-7.1,7.3-11.1,14.3-11.1
			c4.3,0,7.8,1.7,10.4,4.4c0,0.9,0,2.1-0.1,3.9C209.2,129.6,208.4,132.1,208.1,133.1z M185.2,173.7c-0.1-0.1-0.1-0.1-0.2-0.1
			c0.2-0.4,0.5-1,0.6-1.2c0.1-0.3,0.9-1.8,1.1-2.2c0.3-0.5,0.5-0.7,0.6-0.8c0.2,0-0.5,1.1-0.5,1.1S185.6,173.1,185.2,173.7z
			 M185.6,171c0.1-0.1-0.2,0.4-0.2,0.4c-0.2,0.3-0.3,0.3-0.2,0S185.3,171,185.6,171z M185.8,174.2c-0.1-0.1-0.2-0.2-0.3-0.2l3.1-5.8
			c0.1,0,0.2,0,0.2,0.1L185.8,174.2z M185.8,170c0.2-0.2,0.7-1.2,0.9-1.5c0.3-0.3,0.3-0.3,0.3-0.1c-0.1,0.2-1,1.7-1,1.7
			C185.8,170.3,185.6,170.3,185.8,170z M186.4,174.5c-0.1-0.1-0.2-0.1-0.3-0.2l3.1-5.9h0.1L186.4,174.5z M186.9,174.9
			c-0.1-0.1-0.2-0.2-0.3-0.2c0.3-0.5,0.8-1.7,1.1-2.1c0.3-0.5,1.6-3.1,2-3.9c0,0,0.1,0.1,0.2,0.1c-0.4,0.8-2.2,4.5-2.5,5
			C187.3,174.2,187.1,174.7,186.9,174.9z M190.8,169.2c-0.4,0.6-1.4,2.7-1.7,3.3c-0.5,0.8-1,1.8-1.2,2.1c-0.1,0.3-0.2,0.5-0.2,0.6
			c-0.1,0-0.1,0-0.2,0c0.2-0.5,0.6-1.6,0.8-2.1c0.3-0.5,1.8-3.2,2.3-3.9C190.6,169.1,190.6,169.2,190.8,169.2z M222.3,148.4
			c-3.6,22.7-12.3,29.5-24.9,29.5c-3.4,0-6.6-0.9-9.5-2.5l3-6.1c2.6,1.1,5.3,1.7,8.2,1.7C210.4,171,219.6,161.4,222.3,148.4z
			 M189.4,174.2c0.2-0.4,1.5-2.8,1.5-2.8s0.4-0.5,0.3-0.6s-0.4,0.4-0.6,0.8c-0.3,0.6-1.1,2.2-1.3,2.5
			C189.2,174.3,189.2,174.5,189.4,174.2z M190.8,173.6c0.3-0.4,0.4-0.6,0.4-0.6s0.6-0.7,0.6-0.9s-0.3-0.2-0.6,0.4s-1.4,2.4-1.2,2.3
			S190.6,174,190.8,173.6z M192.3,172.6c0,0,0.6-0.6,0.4-0.6c-0.1-0.1-0.6,0.5-0.8,1c-0.2,0.6-1.3,2.3-1.2,2.4
			c0.2,0.1,0.4-0.1,0.6-0.6C191.4,174.2,192.3,172.6,192.3,172.6z M193.3,172.7c-0.3,0.4-0.6,1-0.7,1.3c-0.2,0.4-0.4,0.9,0,0.6
			c0.3-0.4,0.5-0.8,0.5-0.8s0.4-0.7,0.5-1C193.6,172.3,193.6,172.3,193.3,172.7z M208.3,133.9c0-0.1-0.1-0.3-0.2-0.4
			c1.7-2.1,1.7-9.3,1.7-10.7c0,0.1,0.1,0.2,0.2,0.3C210.2,130.1,209.1,132.8,208.3,133.9z M209.6,133c-0.1,0.4-0.4,0.2-0.2-0.2
			c0.1-0.3,1-3.1,1.2-7.2c0,0,0-0.8,0.2-0.6C210.9,125.5,210.6,130.2,209.6,133z M210.6,130.6c0.1-0.7,0.3-1.7,0.4-2.2
			c0-0.5,0.3-0.6,0.2-0.1c0,0.5-0.2,1.7-0.2,1.7c-0.1,0.5-0.2,1.7-0.4,2C210.3,132.4,210.4,131.3,210.6,130.6z"/>
		<path class="st2" d="M233.6,124.6h-4.6l4.6-6.6h4.4v1.7l-4.4,16.2V124.6z M246.1,177.3h-17.1l4.6-6.2h17.2L246.1,177.3z
			 M246.6,140.3v-14l1,1.6l3.1,19L246.6,140.3z M268,124.6h-4.3l4.3-6.7h5.3l-5.3,18V124.6z M274.3,170.6h12.4l-5.2,6.7h-11.8
			L274.3,170.6z M281.5,124v-6.2h5.2L281.5,124z"/>
		<path class="st2" d="M298.6,118.2h5.8v1.8l-4.9,14.9v-10h-5.4L298.6,118.2z M299.5,170.2h17.9l-4.9,7.1H294L299.5,170.2z
			 M332.4,132.1c0-0.9-0.1-2-0.5-3.3c-1.5-4.2-7.2-3.9-7.2-3.9h-11.8v-6.7h14.7c0,0,3.6,0,6.2,2
			C335.1,127.1,333.4,130.7,332.4,132.1z M344.6,133.6L344.6,133.6c-6.9,17.3-22.3,16.8-22.3,16.8h-9.2v-6.8c0,0,12.5,0,16.3,0
			C336.8,143.6,342.1,138.9,344.6,133.6z"/>
		<path class="st2" d="M355.8,124.8h-5l4.3-6.6h4.5v3.2l-3.9,13.2v-9.8H355.8z M355.8,170.6H372l-5,6.7h-15.9L355.8,170.6z
			 M367.8,124.2v-6.1h3.7L367.8,124.2z"/>
		<path class="st2" d="M435.4,169.8l-7.3,7.3h-47.7l5.9-7.3H435.4z M386.9,126.5h-6l6.1-8h5.2v2.9l-5.3,15.2L386.9,126.5
			L386.9,126.5z M400.6,145.4h14.3l-6.9,6.8h-7.3v-6.8H400.6z M401,118.3h34.4l-7.3,7.6h-27.2v-7.6H401z"/>
	</g>
	<g class="st3">
		<path class="st2" d="M82.5,16.4c-3.4-0.3-6.7-2-11.5-8.4c-5-7-5-18.3-4.8-21.6c0.1-3.4,2-8.9,2-8.9l0.1-0.1
			c-0.8,2.8-1.2,5.6-1.2,8.4C67.1,3.1,73.9,12.7,82.5,16.4z M97.8-20.4c1.1-1.6,4.2-6.8,4.1-7.5c0-0.7-1-2.3-1-2.3l0.4-0.7
			c1.8,1.5,2.7,2.8,2.7,2.8L97.8-20.4z"/>
		<path class="st2" d="M130.4,16.5c-19.6-11.3-12.7-35.2-12.7-35.2c-0.3,2-0.5,4.1-0.5,6.3c0,12.9,5.6,23.1,13.6,27.9L130.4,16.5z
			 M157.2-12.3c0,8-2.2,14.1-5.6,18c8.6-13.9,1.3-34.3,1.2-34.4C155.8-24.7,157.2-18.8,157.2-12.3z"/>
		<path class="st2" d="M174.2-41l1.1-1.6v8.4l-1.1,1.6V-41z M189.1,10.8l1.2-1.6v8.9l-1,1.5L189.1,10.8z M194.6-29.4l0.9-2.4v41
			h-1.5L194.6-29.4z"/>
	</g>
	<g class="st3">
		<path class="st2" d="M66.9,35.3l1.1-1.6v8.4l-1.1,1.6V35.3z M81.8,87.1l1.2-1.6v8.8l-1,1.5L81.8,87.1z M87.2,46.9l0.9-2.4v41h-1.5
			L87.2,46.9z"/>
		<path class="st2" d="M123.9,35.3l1.2-1.7v8.2l-1,1.7L123.9,35.3z M124,87.5l1-1.5v8.7l-1,1.6V87.5z M129.6,46.4l0.9-2.8V86H129
			L129.6,46.4z"/>
		<path class="st2" d="M186.8,85.6v7.9l-0.9,1.2v-7.8L186.8,85.6z M187.4,33.7v8.5l-0.9,1.1v-8.6L187.4,33.7z M192.6,45.2v40.5h-1.7
			l0.7-37.5L192.6,45.2z"/>
	</g>
	<g class="st3">
		<path class="st2" d="M66,153.2l0.7-2c0.6,6,3.9,10.6,8.4,13.9c-0.2,0.4-0.4,0.7-0.6,1.2C66.7,161.3,66,153.2,66,153.2z
			 M70.5,121.6c-1,4.6,1,9.6,7.3,14.4C66.9,133.1,70.5,121.6,70.5,121.6z M104.1,124.1l-2.8,6.2c0,0-0.2-0.3-0.6-0.6
			c0.5-1.2,1.6-4,1.6-5c0-1.4-3.1-4.6-3.1-4.6C100.9,121.2,102.5,122.5,104.1,124.1z M99.4,159.6c0.1-0.7,0.1-1.4-0.1-2
			c3.9-2,0.6-9.3,0.6-9.5c1.5,1.6,2.6,3.6,2.5,6S101,158.3,99.4,159.6z"/>
		<path class="st2" d="M119.6,111.6l1.1-1.6v8.4l-1.1,1.6V111.6z M134.6,163.4l1.2-1.6v8.8l-1,1.5L134.6,163.4z M139.9,123.2
			l0.9-2.4v41h-1.5L139.9,123.2z"/>
		<path class="st2" d="M188.2,169.1c-19.6-11.3-12.7-35.2-12.7-35.2c-0.3,2-0.5,4.1-0.5,6.3c0,12.9,5.6,23.1,13.6,27.9L188.2,169.1z
			 M215.1,140.3c0,8-2.2,14.1-5.6,18c8.6-13.9,1.3-34.3,1.2-34.4C213.6,127.9,215.1,133.8,215.1,140.3z"/>
		<path class="st2" d="M232.1,111.6l1.4-1.7v8l-1.4,1.9V111.6z M232.6,164.2l1-1.6v8.4l-1,1.4V164.2z M236.9,123.4l1-3.8v43h-1.4
			L236.9,123.4z M247.9,130l-0.4-2.1l26.8,42.7l-1,1.4L247.9,130z M266.9,111.4l1.1-1.4v7.9l-1.1,1.7V111.4z M273.3,117.9V154
			l-0.9-1.6v-31.5L273.3,117.9z"/>
		<path class="st2" d="M297.8,110.9l0.7-0.9v8.2l-0.7,1.1V110.9z M298.6,163.4l0.9-1.1v7.9l-0.9,1.2V163.4z M303.2,123.5l1.1-3.5
			v42.3h-1.1V123.5z M336.8,126.3c0,3.7-2.3,7.8-5.6,9.2c0,0,0.1-0.1,0.1-0.2c3.2-2.8,4.2-7.1,4.2-9.1c0-2.5-1-4.9-1.6-6
			C335.6,121.5,336.8,123.4,336.8,126.3z"/>
		<path class="st2" d="M354.2,111.4l0.9-1.4v8.2l-0.9,1.5V111.4z M355.8,162.4v8.2l-1.1,1.7v-8.4L355.8,162.4z M359.6,121.4v41h-1.1
			v-37.2L359.6,121.4z"/>
		<path class="st2" d="M386.3,161.9v7.9l-0.9,1.2v-7.8L386.3,161.9z M387,110v8.5l-0.9,1.1V111L387,110z M392.2,121.5V162h-1.7
			l0.7-37.5L392.2,121.5z"/>
	</g>
</g>
</svg>
