<?xml version="1.0" encoding="utf-8"?>
<!-- Generator: Adobe Illustrator 19.0.0, SVG Export Plug-In . SVG Version: 6.00 Build 0)  -->
<svg version="1.1" id="Layer_1" xmlns="http://www.w3.org/2000/svg" xmlns:xlink="http://www.w3.org/1999/xlink" x="0px" y="0px"
	 viewBox="124 -99.4 291.7 242.7" style="enable-background:new 124 -99.4 291.7 242.7;" xml:space="preserve">
<style type="text/css">
	.st0{opacity:0.4;}
	.st1{enable-background:new    ;}
	.st2{fill:#010101;}
	.st3{fill:#FFFFFF;}
	.st4{opacity:0.85;}
</style>
<g class="st0">
	<g class="st1">
		<path class="st2" d="M166.4-71c0,0,2.7,3.7,3.5,9.5c-1.7,0.8-7.8,3-7.8,3s-2.7-9.3-10.4-7.3c-7.8,1.8-8.3,10.6-8.4,13.2
			c0,1.7-0.3,4.8,0.6,9.5c-3.8-3.9-5.9-10.4-5.9-19.4c0-3.1,0.6-6.1,1.5-8.6c0.1-0.1,2.8-2.9,9.7-3.8c7.1-0.8,10.6,5.8,10.6,5.8
			L166.4-71z M174.6-32.4c0,0-4.9,12-15.1,15c-8.7,2.6-17.6-4.9-20.5-8.8c4.4,2.4,9.6,3.1,15,2c7.1-1.5,12.5-7.6,15.6-12.2
			L174.6-32.4z"/>
		<path class="st2" d="M229.8-46.3c0,13-6.3,30.7-22.6,30.7c-8.7,0-16.3-5.5-20.5-14.3c4,4,9.3,6.4,14.9,6.4
			c12.6,0,21.3-6.8,24.9-29.5c0.5-2.6,0.8-5.2,0.8-8.1c0-1.6-0.1-3-0.3-4.5C228.9-61,229.8-54.8,229.8-46.3z M212.8-67.2
			c-27.1-6-18.6,25.2-18.6,25.2c-4-3.9-6.8-10.5-6.8-19.1c0-4.3,0.6-8.2,1.7-11.3c2.6-2.7,6.1-4.1,10.3-4.1
			C205.7-76.5,210.2-72.9,212.8-67.2z"/>
		<path class="st2" d="M252.5-76.2v7.9h-11.2l-8.8-7.9H252.5z M264.9-24.1l5-6.6l3.7,4.7v10.4h-18.3l-7.4-8.4H264.9z M287.2-79.6
			v10.8H270v29.1h-4.4v-36.5h14.3l4.8-6.8L287.2-79.6z"/>
		<path class="st2" d="M310-76.2v7.9h-11.2l-8.8-7.9H310z M322.4-24.1l5-6.6l3.7,4.7v10.4h-18.3l-7.4-8.4H322.4z M344.7-79.6v10.8
			h-17.3v29.1H323v-36.5h14.3l4.8-6.8L344.7-79.6z"/>
		<path class="st2" d="M351.9-76.9v7.4l-4.3-7.4H351.9z M405.3-25.1v9.1h-48.7l-9.1-8.1h46.4l5.8-6.2L405.3-25.1z M375.8-77.5v9H371
			v29.7h-5.4V-78l5.4-5.3L375.8-77.5z"/>
	</g>
	<g class="st1">
		<path class="st2" d="M181.6,47.2v12.1h-49.8l-6.7-7.3h47.7l7.3-7.3L181.6,47.2z M131.5,1.4v9.1l-6-9.1H131.5z M163.8,20.3v15.1
			h-14v1.5h-4.6v-9.7h7.3l6.9-6.9v-4.9L163.8,20.3z M182.1-4.1V8.7h-31.9v2.1h-4.6V0.9h27.2l7.3-7.6L182.1-4.1z"/>
		<path class="st2" d="M222.2,59c-25.6,8-29.5-13-29.5-13c4.1,3.7,10.2,6.7,18.7,6.7c10.9,0,15.6-8.4,20.7-18.1
			c-0.1,0.1-0.1,0.1-0.1,0.2c0.3-0.6,0.6-1.1,0.7-1.7C234.3,35.9,240.5,51.7,222.2,59z M220.8,34.5c-1.2,0.9-2.6,1.6-3.9,1.9
			c-0.3-2.1-1.3-2.6-8.4-6.8c-7.2-4.1-8.5-10.9-8.5-10.9C212,25.9,221.6,28.5,220.8,34.5z M222.8,5.3l6.9-4.4c3.5,2,4.8,6.2,4.8,6.2
			s-2.7,2.7-6.1,6c-7.3-7.3-13.5-3.9-13.5-3.9c-3.5-1.6-7.2-3.2-8.2-3.8c-2.1-1-4.2-2.8-5.1-4.9c-0.3-1.7,2.1-2.3,6-2
			C217.5-0.7,222.8,5.3,222.8,5.3z"/>
		<path class="st2" d="M257.3,0.1V8h-11.2l-8.8-7.9H257.3z M269.7,52.2l5-6.6l3.7,4.7v10.4h-18.3l-7.4-8.4H269.7z M292-3.3V7.6
			h-17.3v29.1h-4.4V0.1h14.3l4.8-6.8L292-3.3z"/>
		<path class="st2" d="M347,30c0,13-6.3,30.7-22.6,30.7c-8.7,0-16.3-5.5-20.5-14.3c4,4,9.3,6.4,14.9,6.4c12.6,0,21.3-6.8,24.9-29.5
			c0.5-2.6,0.8-5.2,0.8-8.1c0-1.6-0.1-3-0.3-4.5C346.1,15.3,347,21.5,347,30z M329.9,9.1c-27.1-6-18.6,25.2-18.6,25.2
			c-4-3.9-6.8-10.5-6.8-19.1c0-4.3,0.6-8.2,1.7-11.3c2.6-2.7,6.1-4.1,10.3-4.1C322.8-0.2,327.3,3.4,329.9,9.1z"/>
		<path class="st2" d="M354.9-0.5v9.7l-4.6-9.7H354.9z M376.9,50.8v9.5h-18.3l-8.4-8.1h17.1l4.7-6.2L376.9,50.8z M367.9,37.4V15.2
			l4.1,6.6v15.6H367.9z M389.4-0.5v8.4l-4.3-8.4H389.4z M412.4,50.7v9.5h-11.1L391,52.2h11.8l5.2-6.7L412.4,50.7z M412.4-2.6V7.8
			h-4.3v29.7h-5.2V-1.1l5.2-6.2L412.4-2.6z"/>
	</g>
	<g class="st1">
		<path class="st2" d="M131.2,76.1v8l-5.4-8H131.2z M144.2,128.5h-18.5l7.5,7.8h20.7V127l-4.9-5.6L144.2,128.5z M163.2,84h-14v3.2
			h-4.7V76.1h11.9c0,0,5.7-0.3,7.2,3.9c0.7,2.2,0.6,3.9-0.1,5.3C163.5,84.4,163.2,84,163.2,84z M177.7,97.3
			c-4.9,13.4-21.2,12.5-21.2,12.5h-7.4v3.6h-4.3v-11.8h9.2c0,0,15.4,0.6,22.2-16.8h0.1c-0.1,0-0.1,0.1-0.1,0.1
			c0.6-1.3,1.1-2.8,1.3-4.1C178.2,81.9,181.6,86.5,177.7,97.3z"/>
		<path class="st2" d="M187.4,76v10.8l-5-10.8H187.4z M198.6,128.5h-15.9l9,8h18.1v-8.8l-6.2-5.9L198.6,128.5z M199.5,113.6V75.4
			l3.7-6.1l6.7,6.4v8.1h-6.2v29.7H199.5z"/>
		<path class="st2" d="M268.7,123.5v12.1h-49.8l-6.7-7.3h47.7l7.3-7.3L268.7,123.5z M218.6,77.7v9.1l-6-9.1H218.6z M250.9,96.6v15.1
			h-14v1.5h-4.6v-9.7h7.3l6.9-6.9v-4.9L250.9,96.6z M269.1,72.2V85h-31.9v2.1h-4.6v-9.9h27.2l7.3-7.6L269.1,72.2z"/>
	</g>
</g>
<g class="st0">
	<g class="st1">
		<path class="st3" d="M137.8-28.6c-0.2,0.1,0-0.2,0.1-0.3s0.2,0,0.2,0.1S138-28.7,137.8-28.6z M138.1-27.2c-0.2,0.1-0.3,0-0.3-0.2
			c0.1-0.3,0.3-0.3,0.3-0.3C138.3-27.8,138.2-27.4,138.1-27.2z M138.4-29.4c0,0.1-0.1,0.1-0.3,0.2s-0.1-0.2,0.1-0.3
			C138.3-29.6,138.3-29.5,138.4-29.4z M138.6-28.6c-0.2,0.2,0-0.1,0.1-0.3s0.1-0.1,0.2,0C139.1-28.9,138.8-28.7,138.6-28.6z
			 M139.1-27.3c-0.1,0.4-0.4,0.7-0.5,0.6c-0.2-0.1,0.1-0.3,0.3-0.5c0.1-0.3,0.2-0.6,0.3-0.7C139.3-28.1,139.2-27.7,139.1-27.3z
			 M139-30.9c0.1-0.3,0.4-0.6,0.4-0.6c0.1-0.2,0.1,0.2,0,0.5s-0.3,0.6-0.6,0.7S138.9-30.5,139-30.9z M139-29.2
			c-0.1,0.2-0.2-0.4,0-0.6C139.2-29.9,139.1-29.4,139-29.2z M139.5-26.4c0,0.1-0.1,0.2-0.2,0.3c-0.1-0.1-0.1-0.1-0.2-0.2
			c0.2-0.4,0.7-1.5,1-1.9c0.4-0.6,1-1.5,1.4-2.1s1-1.7,1.2-1.8c0.1-0.3,0.3-0.5,0.3-0.5h0.3c0,0-0.6,1.2-1,1.7s-1.7,2.4-1.8,2.8
			S139.7-26.6,139.5-26.4z M140.2-31c-0.2,0.3-0.8,1.3-0.9,1.5c-0.1,0.3,0-0.3,0.2-0.6s0.4-0.8,0.6-1.1s0.6-0.8,0.7-1
			c0.1-0.3,0.2-0.6,0.3-0.6c0.2-0.1,0.2,0.4,0.1,0.6C141-32,140.4-31.3,140.2-31z M142.2-32.8h0.2c0,0-0.2,0.4-0.5,0.8
			c-0.3,0.4-0.6,1.1-1,1.6c-0.4,0.4-0.6,0.9-0.9,1.4s-0.4,1-0.5,0.9c-0.3-0.2,0.1-0.6,0.2-1c0.2-0.4,0.9-1.3,1.2-1.7
			C141.3-31.2,142.2-32.8,142.2-32.8z M166-76.9l-6.2,7.7c0,0-3.5-6.6-10.6-5.8c-7,0.8-9.6,3.7-9.7,3.8c2.6-7.3,8.3-12.1,13.9-12.1
			C162-83.3,166-76.9,166-76.9z M140-32.5c0.1-0.4,0.4-0.6,0.4-0.6c0.1-0.2,0,0.1,0,0.4c-0.1,0.3-0.3,0.5-0.4,0.6
			C139.8-31.8,139.8-32.2,140-32.5z M140.5-26.1c-0.1,0.1-0.2,0.2-0.3,0.3c-0.2,0-0.3-0.1-0.4-0.1c0.3-0.6,1.3-2.2,1.6-2.8
			c0.4-0.6,1.2-1.9,1.6-2.6c0.4-0.6,0.8-1.3,0.9-1.5c0.1,0,0.2,0.1,0.3,0.1c-0.2,0.4-1.1,1.8-1.2,2.2c-0.2,0.4-1.6,2.5-1.8,2.8
			C140.9-27.1,140.8-26.4,140.5-26.1z M142.4-27.9c-0.3,0.4-1,2.1-1.3,2.6c-0.2-0.1-0.3-0.2-0.5-0.3c0.1-0.1,0.2-0.4,0.3-0.6
			c0.2-0.3,1.3-2,1.6-2.6c0.4-0.5,1.8-3.1,2-3.6c0.2,0,0.3,0.1,0.4,0.1c-0.2,0.4-0.8,1.4-1.1,1.9C143.4-29.8,142.5-28.3,142.4-27.9z
			 M170.3-37.3c-3,4.6-8.6,11.6-16.2,13.1c-4.6,0.9-8.9,0.6-12.9-1.1l3.8-6.9c2.4,0.9,4.8,1.5,7.3,1.6
			C162.2-30.1,167.5-34,170.3-37.3z M166-76.9l-6.2,7.7l6.5-1.8l7.8-9.1L166-76.9z"/>
		<path class="st3" d="M188.3-31.5c0-0.2,0.2-0.5,0.4-0.6s-0.1,0.4-0.1,0.4C188.4-31.4,188.2-31.3,188.3-31.5z M190.2-32.8
			c-0.1,0.3-0.7,1.3-0.7,1.3s-0.5,0.6-0.6,0.9c-0.2,0.3-0.3,0.3-0.3,0.1c0.1-0.2,0.3-0.5,0.5-0.8c0.2-0.3,0.8-1.3,0.9-1.6
			C190.2-33.1,190.3-33.1,190.2-32.8z M212.2-68.3c-2.6-5-6.9-8.3-12.9-8.3c-4.2,0-7.7,1.5-10.3,4.1c2.4-7.1,7.3-11.1,14.3-11.1
			c4.3,0,7.8,1.7,10.4,4.4c0,0.9,0,2.1-0.1,3.9C213.5-71.8,212.7-69.3,212.2-68.3z M189.5-27.7c-0.1-0.1-0.1-0.1-0.2-0.1
			c0.2-0.4,0.5-1,0.6-1.2c0.1-0.3,0.9-1.8,1.1-2.2c0.3-0.5,0.5-0.7,0.6-0.8c0.2,0-0.5,1.1-0.5,1.1S189.7-28.3,189.5-27.7z
			 M189.7-30.4c0.1-0.1-0.2,0.4-0.2,0.4c-0.2,0.3-0.3,0.3-0.2,0S189.5-30.4,189.7-30.4z M190.1-27.2c-0.1-0.1-0.2-0.2-0.3-0.2
			l3.1-5.8c0.1,0,0.2,0,0.2,0.1L190.1-27.2z M190-31.4c0.2-0.2,0.7-1.2,0.9-1.5c0.3-0.3,0.3-0.3,0.3-0.1c-0.1,0.2-1,1.7-1,1.7
			C190.1-31.1,189.9-31.1,190-31.4z M190.6-26.9c-0.1-0.1-0.2-0.1-0.3-0.2l3.1-5.9h0.1L190.6-26.9z M191.2-26.5
			c-0.1-0.1-0.2-0.2-0.3-0.2c0.3-0.5,0.8-1.7,1.1-2.1s1.6-3.1,2-3.9c0,0,0.1,0.1,0.2,0.1c-0.4,0.8-2.2,4.5-2.5,5
			C191.6-27.2,191.4-26.7,191.2-26.5z M195-32.2c-0.4,0.6-1.4,2.7-1.7,3.3c-0.5,0.8-1,1.8-1.2,2.1c-0.1,0.3-0.2,0.5-0.2,0.6
			c-0.1,0-0.1,0-0.2,0c0.2-0.5,0.6-1.6,0.8-2.1c0.3-0.5,1.8-3.2,2.3-3.9C194.8-32.3,194.9-32.2,195-32.2z M226.5-53
			c-3.6,22.7-12.3,29.5-24.9,29.5c-3.4,0-6.6-0.9-9.5-2.5l3-6.1c2.6,1.1,5.3,1.7,8.2,1.7C214.7-30.4,223.8-40,226.5-53z M193.7-27.2
			c0.2-0.4,1.5-2.8,1.5-2.8s0.4-0.5,0.3-0.6s-0.4,0.4-0.6,0.8c-0.3,0.6-1.1,2.2-1.3,2.5C193.5-27.1,193.5-26.9,193.7-27.2z
			 M195-27.8c0.3-0.4,0.4-0.6,0.4-0.6s0.6-0.7,0.6-0.9c0-0.2-0.3-0.2-0.6,0.4s-1.4,2.4-1.2,2.3S194.8-27.4,195-27.8z M196.5-28.8
			c0,0,0.6-0.6,0.4-0.6c-0.1-0.1-0.6,0.5-0.8,1c-0.2,0.6-1.3,2.3-1.2,2.4c0.2,0.1,0.4-0.1,0.6-0.6C195.7-27.2,196.5-28.8,196.5-28.8
			z M197.5-28.7c-0.3,0.4-0.6,1-0.7,1.3c-0.2,0.4-0.4,0.9,0,0.6c0.3-0.4,0.5-0.8,0.5-0.8s0.4-0.7,0.5-1
			C197.8-29.1,197.7-29.1,197.5-28.7z M212.6-67.5c0-0.1-0.1-0.3-0.2-0.4c1.7-2.1,1.7-9.3,1.7-10.7c0,0.1,0.1,0.2,0.2,0.3
			C214.5-71.3,213.4-68.6,212.6-67.5z M213.9-68.4c-0.1,0.4-0.4,0.2-0.2-0.2c0.1-0.3,1-3.1,1.2-7.2c0,0,0-0.8,0.2-0.6
			C215.2-75.9,214.9-71.2,213.9-68.4z M214.8-70.8c0.1-0.7,0.3-1.7,0.4-2.2c0-0.5,0.3-0.6,0.2-0.1c0,0.5-0.2,1.7-0.2,1.7
			c-0.1,0.5-0.2,1.7-0.4,2C214.6-69,214.7-70.1,214.8-70.8z"/>
		<path class="st3" d="M252.5-76.2h-20l4.9-6.8h20.1v2.4l-5,14V-76.2z M252.3-30.7H270l-5,6.6h-17L252.3-30.7z M265.6-83h19.1
			l-4.8,6.8h-14.3V-83z"/>
		<path class="st3" d="M310-76.2h-20l4.9-6.8h20.1v2.4l-5,14V-76.2z M309.8-30.7h17.6l-5,6.6h-17L309.8-30.7z M323-83h19.1l-4.8,6.8
			H323V-83z"/>
		<path class="st3" d="M351.9-76.9h-4.3l4.3-6.3h5.5v1.7l-5.5,16.2V-76.9z M351.9-30.4h47.8l-5.8,6.2h-46.4L351.9-30.4z M365.6-78
			v-5.3h5.4L365.6-78z"/>
	</g>
	<g class="st1">
		<path class="st3" d="M180.1,44.7l-7.3,7.3h-47.7l5.9-7.3H180.1z M131.5,1.4h-6l6.1-8h5.2v2.9l-5.3,15.2V1.4z M145.3,20.3h14.2
			l-6.9,6.8h-7.3V20.3z M145.7-6.8h34.4l-7.3,7.6h-27.2V-6.8z"/>
		<path class="st3" d="M194,43.9c0-0.2,0-0.9,0.2-1.5c0.1-0.5,0.5-1,0.5-1s0.2-0.2,0.1,0.1C194.7,41.5,194.1,42.7,194,43.9
			c0.1,0.1,0.1,0.2,0,0.2S194,44,194,43.9z M195.4,41.5c0,0-0.4,1-0.6,1.9s-0.4,2.6-0.6,2.5c-0.2,0-0.1-0.4-0.1-0.4
			c0.1-0.6,0.3-1.5,0.5-2.1c0.1-0.6,0.5-1.7,0.6-2C195.4,41.1,195.4,41.5,195.4,41.5z M194.7,46.6c0-0.4,0.1-2,0.6-3.5
			s0.8-2.3,0.8-2.3s0.2-0.2,0.3-0.1s-0.3,0.6-0.5,1.3s-0.9,2.7-1,4.6C194.9,46.6,194.7,46.9,194.7,46.6z M195.2,47.9
			c0,0-0.1-0.1-0.2-0.1c0.2-1.3,0.9-5.9,1.9-7.5c0,0.1,0.1,0.1,0.2,0.2C196.9,41.3,195.3,45.8,195.2,47.9z M195.7,48.2
			c-0.1-0.1-0.3-0.2-0.4-0.3c0.4-1.6,1.7-6.2,2.1-7.3c0.1,0,0.1,0.1,0.2,0.1C197.1,42.4,196.1,46.9,195.7,48.2z M232.1,34.6
			c-5,9.7-9.7,18.1-20.7,18.1c-6.5,0-11.5-1.7-15.3-4.1l1.7-7.6c9.5,6,23.3,6,30.2-1C229.8,38,231.2,36.3,232.1,34.6z M198.4,16.3
			c0,0,0-0.2,0-0.6c0-0.5,0-2.7,0-2.9c0,0,0.1-0.5,0.2-0.5c0.1-0.1,0.1-0.1,0.1,0.2c0,0.2-0.1,3.2-0.1,3.5S198.5,16.3,198.4,16.3z
			 M199.4,12.5c-0.1,0.4-0.3,3.6-0.2,4.2c0,0,0,0.7-0.1,0.7c-0.2,0-0.2-0.4-0.2-1.1c0-0.6,0.3-4.1,0.3-4.1s0.1-0.3,0.2-0.4
			C199.5,11.9,199.4,12.1,199.4,12.5z M200.5,11.9c-0.6,1.7-0.6,5.5-0.6,6.7c-0.2-0.1-0.3-0.1-0.4-0.2c-0.2-2,0.4-6.1,0.5-6.9
			C200.2,11.7,200.4,11.8,200.5,11.9z M200.4,18.9c-0.1-0.1-0.2-0.2-0.4-0.3c-0.2-2.8,0.5-5.9,0.6-6.7c0.2,0.2,0.4,0.3,0.6,0.5
			C200.5,14.1,200.4,17.7,200.4,18.9z M218.6,29.6c-3.2-3.1-10.1-5.9-18-10.6c-0.2-2.7,0.4-5.4,0.6-6.6c3.5,2.3,8,4.5,13.6,6.4
			c0,0,2.8,1,5.1,3C219.7,24.3,218.9,28.4,218.6,29.6z M219.1,2.3c-2.6-1.7-6.4-3.4-11.6-3.9c-3.9-0.3-6.2,0.4-6,2
			c-0.6-1.2-0.6-2.6-0.1-3.9c1.5-3.9,8.6-6.3,16.2-3C218-4.7,218.9-0.1,219.1,2.3z M217.9-6.4c0.2,0.1,0.3,0.1,0.4,0.2
			c0.3,1.5,1.2,7.3,1.4,8.9c-0.1-0.1-0.2-0.2-0.4-0.3L217.9-6.4z M218.5-6.1c0.1,0,0.3,0.1,0.4,0.1c0.2,1.7,1.1,7.3,1.1,7.6
			c0.1,0.4,0,0.6-0.1,0.6c-0.1,0.1-0.1-0.3-0.1-0.3L218.5-6.1z M220.1,22c0.2,0.1,0.4,0.3,0.6,0.5l-1.6,7.5
			c-0.1-0.1-0.3-0.2-0.4-0.4L220.1,22z M219.4-3.9c0.1,0.3,0.7,5.1,0.7,5.1s0,0.4-0.1,0.1s-0.8-5.2-0.8-5.2s0-0.4,0.1-0.4
			C219.4-4.2,219.4-4.2,219.4-3.9z M219.4,29.6c-0.1-0.1,1.1-5.6,1.4-7.1c0.1,0.1,0.2,0.1,0.2,0.2c-0.3,1.6-1.3,6.5-1.4,6.7
			C219.5,29.7,219.4,29.6,219.4,29.6z M220.1,0.3c0-0.3-0.6-4.3-0.6-4.3s0-0.2,0.1-0.2s0.1,0,0.1,0.3c0.1,0.2,0.7,4.2,0.7,4.2
			s0.1,0.2-0.1,0.3C220.2,0.6,220.2,0.5,220.1,0.3z M221.1,22.8c0,0.1,0.1,0.2,0.2,0.2c-0.3,1.3-1.3,5.9-1.3,6.2
			c-0.1,0.2-0.2,0.3-0.3,0.3s0-0.2,0-0.2S220.8,24,221.1,22.8z M220.1-3c0,0.3,0.4,2.5,0.4,2.5s0,0.2-0.1,0.2s-0.1-0.1-0.1-0.2
			S220-2.8,220-2.8s-0.1-0.3-0.1-0.4C220-3.2,220-3.2,220.1-3z M220.3,29c-0.1-0.1,0-0.4,0-0.4l0.8-3.9c0.1-0.2,0.1-0.4,0.3-0.3
			c0.1,0,0.1,0.2,0.1,0.2s-0.9,3.8-0.9,3.9C220.5,28.8,220.5,29,220.3,29z M221.6,25.6c0.1,0,0.1,0.4,0.1,0.4s-0.6,2.1-0.6,2.4
			c-0.1,0.3-0.1,0.5-0.2,0.5c-0.2-0.1,0-0.6,0-0.6s0.4-1.9,0.5-2.3C221.5,25.6,221.5,25.6,221.6,25.6z M231.6-5.9l-1.9,6.8l-6.9,4.4
			l2.8-6.2L231.6-5.9z"/>
		<path class="st3" d="M257.3,0.1h-20l4.9-6.8h20.1v2.4l-5,14V0.1z M257.1,45.6h17.6l-5,6.6h-17L257.1,45.6z M270.3-6.7h19.1
			l-4.8,6.8h-14.3V-6.7z"/>
		<path class="st3" d="M305.4,44.8c0-0.2,0.2-0.5,0.4-0.6s-0.1,0.4-0.1,0.4C305.5,44.9,305.3,45,305.4,44.8z M307.3,43.5
			c-0.1,0.3-0.7,1.3-0.7,1.3s-0.5,0.6-0.6,0.9c-0.2,0.3-0.3,0.3-0.3,0.1c0.1-0.2,0.3-0.5,0.5-0.8c0.2-0.3,0.8-1.3,0.9-1.6
			C307.3,43.2,307.4,43.2,307.3,43.5z M329.4,8c-2.6-5-6.9-8.3-12.9-8.3c-4.2,0-7.7,1.5-10.3,4.1c2.4-7.1,7.3-11.1,14.3-11.1
			c4.3,0,7.8,1.7,10.4,4.4c0,0.9,0,2.1-0.1,3.9C330.6,4.5,329.8,7,329.4,8z M306.6,48.6c-0.1-0.1-0.1-0.1-0.2-0.1
			c0.2-0.4,0.5-1,0.6-1.2c0.1-0.3,0.9-1.8,1.1-2.2c0.3-0.5,0.5-0.7,0.6-0.8c0.2,0-0.5,1.1-0.5,1.1S306.9,48,306.6,48.6z M306.9,45.9
			c0.1-0.1-0.2,0.4-0.2,0.4c-0.2,0.3-0.3,0.3-0.2,0S306.7,45.9,306.9,45.9z M307.2,49.1c-0.1-0.1-0.2-0.2-0.3-0.2l3.1-5.8
			c0.1,0,0.2,0,0.2,0.1L307.2,49.1z M307.1,44.9c0.2-0.2,0.7-1.2,0.9-1.5c0.3-0.3,0.3-0.3,0.3-0.1c-0.1,0.2-1,1.7-1,1.7
			C307.2,45.2,307.1,45.2,307.1,44.9z M307.8,49.4c-0.1-0.1-0.2-0.1-0.3-0.2l3.1-5.9h0.1L307.8,49.4z M308.3,49.8
			c-0.1-0.1-0.2-0.2-0.3-0.2c0.3-0.5,0.8-1.7,1.1-2.1s1.6-3.1,2-3.9c0,0,0.1,0.1,0.2,0.1c-0.4,0.8-2.2,4.5-2.5,5
			C308.7,49.1,308.5,49.6,308.3,49.8z M312.1,44.1c-0.4,0.6-1.4,2.7-1.7,3.3c-0.5,0.8-1,1.8-1.2,2.1c-0.1,0.3-0.2,0.5-0.2,0.6
			c-0.1,0-0.1,0-0.2,0c0.2-0.5,0.6-1.6,0.8-2.1c0.3-0.5,1.8-3.2,2.3-3.9C311.9,44,312,44.1,312.1,44.1z M343.7,23.3
			c-3.6,22.7-12.3,29.5-24.9,29.5c-3.4,0-6.6-0.9-9.5-2.5l3-6.1c2.6,1.1,5.3,1.7,8.2,1.7C331.8,45.9,340.9,36.3,343.7,23.3z
			 M310.8,49.1c0.2-0.4,1.5-2.8,1.5-2.8s0.4-0.5,0.3-0.6s-0.4,0.4-0.6,0.8c-0.3,0.6-1.1,2.2-1.3,2.5
			C310.6,49.2,310.6,49.4,310.8,49.1z M312.1,48.5c0.3-0.4,0.4-0.6,0.4-0.6s0.6-0.7,0.6-0.9c0-0.2-0.3-0.2-0.6,0.4s-1.4,2.4-1.2,2.3
			S311.9,48.9,312.1,48.5z M313.7,47.5c0,0,0.6-0.6,0.4-0.6c-0.1-0.1-0.6,0.5-0.8,1c-0.2,0.6-1.3,2.3-1.2,2.4
			c0.2,0.1,0.4-0.1,0.6-0.6C312.8,49.1,313.7,47.5,313.7,47.5z M314.7,47.6c-0.3,0.4-0.6,1-0.7,1.3c-0.2,0.4-0.4,0.9,0,0.6
			c0.3-0.4,0.5-0.8,0.5-0.8s0.4-0.7,0.5-1C314.9,47.2,314.9,47.2,314.7,47.6z M329.7,8.8c0-0.1-0.1-0.3-0.2-0.4
			c1.7-2.1,1.7-9.3,1.7-10.7c0,0.1,0.1,0.2,0.2,0.3C331.7,5,330.6,7.7,329.7,8.8z M331,7.9c-0.1,0.4-0.4,0.2-0.2-0.2
			c0.1-0.3,1-3.1,1.2-7.2c0,0,0-0.8,0.2-0.6C332.3,0.4,332,5.1,331,7.9z M331.9,5.5c0.1-0.7,0.3-1.7,0.4-2.2c0-0.5,0.3-0.6,0.2-0.1
			c0,0.5-0.2,1.7-0.2,1.7c-0.1,0.5-0.2,1.7-0.4,2C331.7,7.3,331.8,6.2,331.9,5.5z"/>
		<path class="st3" d="M354.9-0.5h-4.6l4.6-6.6h4.4v1.7l-4.4,16.2V-0.5z M367.4,52.2h-17.1l4.6-6.2H372L367.4,52.2z M367.9,15.2v-14
			l1,1.6l3.1,19L367.9,15.2z M389.4-0.5h-4.3l4.3-6.7h5.3l-5.3,18V-0.5z M395.7,45.5h12.4l-5.2,6.7H391L395.7,45.5z M402.9-1.1v-6.2
			h5.2L402.9-1.1z"/>
	</g>
	<g class="st1">
		<path class="st3" d="M130.2,69.4h5.8v1.8l-4.9,14.9v-10h-5.4L130.2,69.4z M131.2,121.4h17.9l-4.9,7.1h-18.5L131.2,121.4z
			 M164.1,83.3c0-0.9-0.1-2-0.5-3.3c-1.5-4.2-7.2-3.9-7.2-3.9h-11.9v-6.7h14.7c0,0,3.6,0,6.2,2C166.8,78.3,165,81.9,164.1,83.3z
			 M176.2,84.8L176.2,84.8c-6.9,17.3-22.3,16.8-22.3,16.8h-9.2v-6.8c0,0,12.5,0,16.3,0C168.4,94.8,173.8,90.1,176.2,84.8z"/>
		<path class="st3" d="M187.4,76h-5l4.3-6.6h4.5v3.2l-3.9,13.2V76z M187.4,121.8h16.2l-5,6.7h-15.9L187.4,121.8z M199.5,75.4v-6.1
			h3.7L199.5,75.4z"/>
		<path class="st3" d="M267.1,121l-7.3,7.3h-47.7l5.9-7.3H267.1z M218.6,77.7h-6l6.1-8h5.2v2.9l-5.3,15.2V77.7z M232.3,96.6h14.2
			l-6.9,6.8h-7.3V96.6z M232.7,69.5h34.4l-7.3,7.6h-27.2V69.5z"/>
	</g>
</g>
<g class="st4">
	<g class="st1">
		<path class="st3" d="M147.1-32.4c-3.4-0.3-6.7-2-11.5-8.4c-5-7-5-18.3-4.8-21.6c0.1-3.4,2-8.9,2-8.9l0.1-0.1
			c-0.8,2.8-1.2,5.6-1.2,8.4C131.7-45.7,138.5-36.1,147.1-32.4z M162.4-69.2c1.1-1.6,4.2-6.8,4.1-7.5c0-0.7-1-2.3-1-2.3l0.4-0.7
			c1.8,1.5,2.7,2.8,2.7,2.8L162.4-69.2z"/>
		<path class="st3" d="M195-32.3c-19.6-11.3-12.7-35.2-12.7-35.2c-0.3,2-0.5,4.1-0.5,6.3c0,12.9,5.6,23.1,13.6,27.9L195-32.3z
			 M221.8-61.1c0,8-2.2,14.1-5.6,18c8.6-13.9,1.3-34.3,1.2-34.4C220.3-73.5,221.8-67.6,221.8-61.1z"/>
		<path class="st3" d="M238.8-89.8l1.1-1.6v8.4l-1.1,1.6V-89.8z M253.6-38l1.2-1.6v8.8l-1,1.5L253.6-38z M259.1-78.2l0.9-2.4v41
			h-1.5L259.1-78.2z"/>
		<path class="st3" d="M296.2-89.8l1.1-1.6v8.4l-1.1,1.6V-89.8z M311.1-38l1.2-1.6v8.8l-1,1.5L311.1-38z M316.5-78.2l0.9-2.4v41H316
			L316.5-78.2z"/>
		<path class="st3" d="M353.2-89.8l1.2-1.7v8.2l-1,1.7L353.2-89.8z M353.3-37.6l1-1.5v8.7l-1,1.6V-37.6z M358.9-78.7l0.9-2.8v42.4
			h-1.5L358.9-78.7z"/>
	</g>
	<g class="st1">
		<path class="st3" d="M131,36.8v7.9l-0.9,1.2v-7.8L131,36.8z M131.6-15.1v8.5l-0.9,1.1v-8.6L131.6-15.1z M136.9-3.6v40.5h-1.7
			l0.7-37.5L136.9-3.6z"/>
		<path class="st3" d="M187.4,28.1l0.7-2c0.6,6,3.9,10.6,8.4,13.9c-0.2,0.4-0.4,0.7-0.6,1.2C188.1,36.2,187.4,28.1,187.4,28.1z
			 M191.9-3.5c-1,4.6,1,9.6,7.3,14.4C188.4,8,191.9-3.5,191.9-3.5z M225.5-1l-2.8,6.2c0,0-0.2-0.3-0.6-0.6c0.5-1.2,1.6-4,1.6-5
			c0-1.4-3.1-4.6-3.1-4.6C222.3-3.9,223.9-2.6,225.5-1z M220.8,34.5c0.1-0.7,0.1-1.4-0.1-2c3.9-2,0.6-9.3,0.6-9.5
			c1.5,1.6,2.6,3.6,2.5,6S222.4,33.2,220.8,34.5z"/>
		<path class="st3" d="M241-13.5l1.1-1.6v8.4L241-5.1V-13.5z M255.9,38.3l1.2-1.6v8.8l-1,1.5L255.9,38.3z M261.3-1.9l0.9-2.4v41
			h-1.5L261.3-1.9z"/>
		<path class="st3" d="M309.6,44C290.1,32.7,297,8.8,297,8.8c-0.3,2-0.5,4.1-0.5,6.3c0,12.9,5.6,23.1,13.6,27.9L309.6,44z
			 M336.4,15.2c0,8-2.2,14.1-5.6,18c8.6-13.9,1.3-34.3,1.2-34.4C335,2.8,336.4,8.7,336.4,15.2z"/>
		<path class="st3" d="M353.5-13.5l1.4-1.7v8l-1.4,1.9V-13.5z M353.9,39.1l1-1.6v8.4l-1,1.4V39.1z M358.3-1.7l1-3.8v43h-1.4
			L358.3-1.7z M369.3,4.9l-0.4-2.1l26.8,42.7l-1,1.4L369.3,4.9z M388.3-13.7l1.1-1.4v7.9l-1.1,1.7V-13.7z M394.7-7.2v36.1l-0.9-1.6
			V-4.2L394.7-7.2z"/>
	</g>
	<g class="st1">
		<path class="st3" d="M129.5,61.1l0.7-0.9v8.2l-0.7,1.1V61.1z M130.2,113.6l0.9-1.1v7.9l-0.9,1.2V113.6z M134.9,73.7l1.1-3.5v42.3
			h-1.1V73.7z M168.4,76.5c0,3.7-2.3,7.8-5.6,9.2c0,0,0.1-0.1,0.1-0.2c3.2-2.8,4.2-7.1,4.2-9.1c0-2.5-1-4.9-1.6-6
			C167.2,71.7,168.4,73.6,168.4,76.5z"/>
		<path class="st3" d="M185.9,61.6l0.9-1.4v8.2l-0.9,1.5V61.6z M187.4,112.6v8.2l-1.1,1.7v-8.4L187.4,112.6z M191.3,71.6v41h-1.1
			V75.4L191.3,71.6z"/>
		<path class="st3" d="M218,112.1v7.9l-0.9,1.2v-7.8L218,112.1z M218.6,60.2v8.5l-0.9,1.1v-8.6L218.6,60.2z M223.9,71.7v40.5h-1.7
			l0.7-37.5L223.9,71.7z"/>
	</g>
</g>
</svg>
